<?xml version="1.0" encoding="utf-8"?>
<!-- Generator: Adobe Illustrator 27.4.0, SVG Export Plug-In . SVG Version: 6.00 Build 0)  -->
<svg version="1.1" id="Layer_1" xmlns="http://www.w3.org/2000/svg" xmlns:xlink="http://www.w3.org/1999/xlink" x="0px" y="0px"
	 viewBox="0 0 1080 1350" style="enable-background:new 0 0 1080 1350;" xml:space="preserve">
<style type="text/css">
	.st0{fill:#5CC7D3;}
</style>
<g>
	<path class="st0" d="M713.1,658.8c1.7-4.5,3.2-8.6,4.8-12.6c9.2-23.8,18.3-47.6,27.5-71.4c1.8-4.6,1.7-4.6,6.7-4.6
		c3.7,0,7.3,0.1,11,0c2.3-0.1,3.5,0.6,4.3,2.8c7.6,19.8,15.3,39.6,23,59.4c3.2,8.2,6.4,16.5,9.6,24.7c0.1,0.4,0.2,0.8,0.4,1.7
		c-3.7,0-7.2,0-10.7,0c-3.2-0.1-7.2,0.9-9.5-0.7c-2.1-1.5-2.5-5.5-3.7-8.5c0-0.1-0.1-0.2-0.1-0.3c-1.2-2.8-1.6-6.6-3.7-8.1
		c-2-1.4-5.7-0.5-8.6-0.5c-6.7,0-13.4,0.1-20.1-0.1c-2.3-0.1-3.5,0.8-4.2,2.9c-1.5,4.4-3.1,8.8-4.8,13.2c-0.3,0.8-1.2,1.9-1.9,1.9
		C726.5,658.9,720.1,658.8,713.1,658.8z M757.4,597c-0.3,0-0.6,0-0.9,0.1c-3.2,8.8-6.4,17.6-9.8,26.6c7,0,13.5,0,20.6,0
		C763.9,614.6,760.7,605.8,757.4,597z"/>
	<path class="st0" d="M383.1,658.9c-6.8,0-13.1,0.1-19.3-0.1c-0.8,0-1.9-1-2.2-1.8c-1.8-4.3-3.4-8.7-4.9-13.1
		c-0.7-2.2-1.7-3.1-4.1-3.1c-9.1,0.1-18.1,0.1-27.2,0c-2,0-2.9,0.7-3.5,2.5c-1.6,4.5-3.2,9-5,13.4c-0.4,0.9-1.5,2.1-2.4,2.1
		c-6.2,0.2-12.4,0.1-19.1,0.1c1.4-3.7,2.5-7,3.8-10.2c9.8-25.3,19.6-50.6,29.3-75.9c0.7-1.8,1.5-2.6,3.5-2.5c4.8,0.1,9.6,0.1,14.3,0
		c1.7,0,2.6,0.5,3.2,2.1c11,28.2,22.1,56.4,33.1,84.6C382.7,657.4,382.8,657.9,383.1,658.9z M349.6,623.8
		c-3.5-9.3-6.8-18.2-10.2-27.2c-0.3,0-0.5,0.1-0.8,0.1c-3.3,8.9-6.6,17.8-10,27.1C335.8,623.8,342.4,623.8,349.6,623.8z"/>
	<path class="st0" d="M681.3,658.8c-6.3,0-12.4,0-18.5-0.1c-0.5,0-1.1-0.9-1.4-1.5c-0.2-0.5-0.1-1.2-0.1-1.8
		c0-27.2,0.1-54.4-0.1-81.5c0-3.2,1-3.9,4-3.8c13.9,0.1,27.9,0.1,41.8,0c1.4,0,2.8,0,4.4,0c0,6.1,0,11.8,0,17.8c-10,0-19.7,0-29.9,0
		c0,5.7-0.1,11.1,0.1,16.6c0,0.5,1.6,1.4,2.4,1.4c7,0.1,14,0.2,21.1,0c2.7-0.1,3.8,0.5,3.7,3.5c-0.3,4.6-0.1,9.3-0.1,14.3
		c-1.3,0.1-2.4,0.2-3.5,0.2c-6.8,0-13.6,0.1-20.5,0c-2.5,0-3.4,0.7-3.3,3.2c0.1,9.4,0.1,18.7,0.1,28.1
		C681.4,656.3,681.3,657.4,681.3,658.8z"/>
	<g>
		<path class="st0" d="M565.9,570.2c-1.9,7.2-3.7,14-5.5,20.7c-5.9,21.7-11.8,43.4-17.6,65.1c-0.6,2.1-1.3,3-3.7,2.9
			c-5.5-0.2-11-0.2-16.5,0c-2.4,0.1-3.3-0.7-3.9-3c-3.9-14.5-7.9-29-11.9-43.5c-0.2-0.8-0.6-1.7-1.2-3.3c-1.7,6.4-3.2,11.9-4.8,17.4
			c-2.7,9.7-5.4,19.4-8,29.1c-0.6,2.4-1.6,3.5-4.3,3.4c-5.3-0.3-10.6-0.2-15.9,0c-2.3,0.1-3.2-0.7-3.7-2.9
			c-7-25.8-14.1-51.6-21.2-77.4c-0.7-2.6-1.5-5.3-2.4-8.5c4.4,0,8.4,0,12.4,0c8.4,0,8.4,0,10.5,8.2c4.3,17.1,8.5,34.1,12.8,51.2
			c0.1,0.4,0.3,0.9,0.8,2c2.1-7.9,3.9-15,5.8-22.1c3.3-12.4,6.5-24.8,10-37.1c0.2-0.9,1.7-2,2.6-2.1c3.3-0.3,6.7,0,10.1-0.1
			c2-0.1,2.8,0.6,3.4,2.6c3.8,14.4,7.8,28.8,11.7,43.3c1.2,4.3,2.3,8.6,3.4,13c0.3,0.9,0.6,1.8,1.5,2.7c1.8-7.3,3.5-14.5,5.3-21.8
			c2.9-11.9,6-23.9,8.7-35.9c0.7-3,1.9-4.1,5.1-3.9C554.8,570.4,560.2,570.2,565.9,570.2z"/>
		<path class="st0" d="M649,658.8c-6.8,0-13.1,0.1-19.4-0.1c-0.9,0-2.1-1.4-2.5-2.4c-1.8-4.3-3.4-8.7-4.8-13.2
			c-0.6-1.9-1.7-2.4-3.6-2.4c-9,0.1-17.9,0.1-26.9,0c-2.1,0-3.1,0.7-3.7,2.7c-1.6,4.5-3.3,9-5.1,13.4c-0.3,0.8-1.4,2-2.1,2
			c-6.2,0.2-12.4,0.1-18.8,0.1c0.2-0.9,0.3-1.6,0.5-2.3c10.6-27.9,21.2-55.7,31.8-83.6c0.8-2.2,1.8-3,4.2-2.9c4.5,0.2,9,0.2,13.4,0
			c2-0.1,3.1,0.5,3.8,2.5c8.2,21.4,16.5,42.7,24.8,64C643.3,643.9,646.1,651.1,649,658.8z M615.4,623.8c-3.4-9.2-6.6-17.9-10.2-27.6
			c-3.5,9.6-6.8,18.4-10.1,27.6C602,623.8,608.3,623.8,615.4,623.8z"/>
		<path class="st0" d="M395.3,658.6c0-29.4,0-58.7,0-88.2c6.7,0,13.2,0,20,0c0,23.5,0,46.8,0,70.5c1.4,0.1,2.5,0.2,3.5,0.2
			c7.7,0,15.5,0.1,23.2,0c2.2,0,3.1,0.6,3,2.9c-0.2,4.8,0,9.5,0,14.6C428.4,658.6,412,658.6,395.3,658.6z"/>
		<g>
			<path class="st0" d="M693.6,741.8c-15.7,0-27.2-11.9-27.2-28.2c0-16.5,12.1-29.1,28.1-29.1c15.3,0,27.4,12.7,27.3,28.8
				C721.6,729.8,709.8,741.8,693.6,741.8z M708.6,713c-0.5-2.5-0.8-5-1.5-7.4c-2-6.1-6.9-9.4-13.2-9.3c-6.1,0.1-11,3.7-12.9,9.7
				c-1.4,4.6-1.5,9.2-0.1,13.8c2.4,8,10.2,11.9,18,9.1C704.9,726.8,708.2,721.2,708.6,713z"/>
			<path class="st0" d="M592.9,710.5c1.1-0.1,1.9-0.3,2.7-0.3c6.7,0,13.4,0,20.2-0.1c1.8,0,2.6,0.5,2.5,2.4c-0.1,2.8,0,5.7-0.2,8.5
				c-0.8,10.7-10.6,19.5-22.4,20.5c-15.6,1.4-25.9-9.3-28.9-20.6c-3.7-14,2.4-28.1,14.8-34.1c9.5-4.6,22.6-2.6,30.2,4.7
				c0.8,0.8,1.5,1.6,2.4,2.7c-2.7,2.9-5.3,5.6-8,8.4c-0.9-1-1.6-1.9-2.4-2.6c-6-6.5-16.2-5.6-21.1,1.7c-5.2,7.7-4.2,19.2,2.3,25
				c3.6,3.2,7.8,4.4,12.5,2.9c4.1-1.3,7.2-3.8,8.1-8.3c0.1-0.5,0-1,0-1.9c-3.3,0-6.5-0.1-9.8,0c-2.1,0.1-3-0.6-2.8-2.8
				C593,714.7,592.9,712.7,592.9,710.5z"/>
			<path class="st0" d="M635.6,719.7c0,6.9,0,13.8,0,21.2c-3.8,0-7.4,0.1-11-0.1c-0.5,0-1.2-1.9-1.2-2.9c-0.1-13.3-0.1-26.6-0.1-40
				c0-3.4,0.1-6.7,0-10.1c0-1.7,0.6-2.3,2.3-2.3c6.7,0.1,13.4-0.1,20.1,0.1c7.6,0.3,13.4,5.1,14.8,11.8c1.8,8.7-1.3,15.8-8.4,19.4
				c-0.8,0.4-1.6,0.8-2.6,1.4c6,7.4,11.9,14.6,18.3,22.6c-5.5,0-10.2,0.1-14.8-0.1c-0.7,0-1.4-1.1-1.9-1.8
				c-4.6-6.1-9.2-12.2-13.8-18.3c-0.3-0.5-0.7-0.9-1.1-1.3C636,719.5,635.8,719.6,635.6,719.7z M635.6,695.3c0,3.6,0,6.5,0,9.5
				c0,5.7,0.5,6.1,6.3,5.1c0.2,0,0.4-0.1,0.6-0.1c3.5-0.9,5.4-3.1,5.5-6.7c0.1-3.6-1.4-6-5-7C640.7,695.5,638.4,695.6,635.6,695.3z"
				/>
			<path class="st0" d="M726.4,685.7c4.3,0,8.1,0,12.2,0c0.1,1.2,0.1,2.3,0.1,3.4c0,9.2,0,18.3,0,27.5c0,1.8,0.3,3.6,0.5,5.5
				c0.8,7.8,7.2,8.7,12.3,7.2c1.8-0.6,3.6-2.6,4.4-4.4c0.9-1.9,0.9-4.3,0.9-6.6c0.1-9.7,0.1-19.3,0.1-29c0-1.1,0.1-2.2,0.1-3.4
				c4.2,0,8.1,0,12.1,0c0.1,0.8,0.3,1.4,0.3,1.9c0,12,0.1,24-0.2,36c-0.2,6.4-2.3,12.3-8.4,15.3c-8.6,4.2-17.5,4-26.2-0.1
				c-3.7-1.7-5.9-5.1-6.9-8.9c-0.8-3.1-1.5-6.4-1.5-9.6c-0.2-10.6-0.1-21.2-0.1-31.7C726.2,687.7,726.3,686.8,726.4,685.7z"/>
			<path class="st0" d="M776.9,740.9c0-18.6,0-36.7,0-55.4c2.8,0,5.6,0,8.3,0c5,0,10-0.1,15,0.1c9.1,0.4,15.1,6.5,15.7,15.9
				c0.6,9.1-4.9,16.5-13.5,18c-3.3,0.6-6.7,0.8-10,0.6c-2.8-0.1-3.5,0.9-3.4,3.5c0.2,4.9,0,9.8,0.1,14.6c0,1.9-0.5,2.8-2.6,2.7
				C783.4,740.8,780.2,740.9,776.9,740.9z M789.1,702.6C789.1,702.6,789.1,702.6,789.1,702.6c0,1.8-0.1,3.7,0.1,5.5
				c0.1,0.7,1,1.9,1.6,1.9c2.4,0,4.9,0.1,7.2-0.5c3.7-1,5.6-4.5,4.8-8.3c-0.8-4.1-5.5-6.5-11.7-5.6c-4,0.6-1.1,4-1.9,5.9
				C788.9,701.8,789.1,702.2,789.1,702.6z"/>
		</g>
		<g>
			<path class="st0" d="M428.6,741.7c-16.3,0.1-28-11.7-28.2-28.4c-0.1-15.9,12.2-28.7,27.8-28.8c15.3-0.1,27.8,12.4,27.9,28
				C456.3,729.5,445,741.6,428.6,741.7z M413.7,713.1c0.6,2.7,0.9,5.4,1.8,8c2,5.6,7,8.8,13,8.9c5.9,0,10.8-3.1,12.8-8.6
				c2-5.4,2.1-11-0.1-16.4c-2.9-7-9.7-10.2-17-8C417.7,698.9,414,704.8,413.7,713.1z"/>
			<path class="st0" d="M461.8,685.8c8.2,0,16.2-0.5,24.2,0.2c7.4,0.7,12.4,6,13.4,12.3c1.4,8.5-1.5,14.9-8.6,18.7
				c-0.6,0.3-1.2,0.7-2.2,1.2c6,7.5,11.9,14.8,18.3,22.6c-5.4,0-10.2,0.1-15-0.1c-0.7,0-1.6-1.2-2.1-2c-4.5-5.9-8.9-11.9-13.3-17.8
				c-0.5-0.7-1.1-1.3-2.2-2.7c0,3.5,0,6.2,0,8.9c0,3.8-0.1,7.5,0,11.3c0,1.8-0.5,2.6-2.4,2.5c-3.2-0.1-6.5,0-9.9,0
				C461.8,722.4,461.8,704.2,461.8,685.8z M474.3,709.7c5.7,0.9,9.6-0.1,11.2-3.1c1.5-2.7,1.6-5.6-0.3-8.1c-2.8-3.7-6.9-3-10.9-3
				C474.3,700.5,474.3,705.1,474.3,709.7z"/>
			<path class="st0" d="M300.9,685.5c5.1,0,9.4-0.1,13.8,0.1c0.9,0,1.9,1.1,2.5,1.9c2.9,4,5.7,8.2,8.9,12.8c1.8-2.7,3.7-5,5-7.6
				c2.8-5.9,7.1-8.6,13.8-7.3c1.6,0.3,3.4,0,5.7,0c-2.5,3.8-4.7,7.1-6.9,10.3c-3,4.4-5.9,8.8-9.1,13c-1.2,1.6-1.1,2.7,0.1,4.3
				c5.8,8,11.5,16,17.2,24.1c0.7,1,1.3,2,2.4,3.6c-5.4,0-10.2,0.1-15-0.1c-0.7,0-1.6-1.2-2.1-2c-3.8-5.4-7.4-10.9-11.4-16.7
				c-3.7,5.6-7.3,10.8-10.7,16.1c-1.3,2-2.7,3-5.2,2.8c-3.5-0.2-7.1-0.1-11.3-0.1c0.8-1.3,1.3-2.2,1.8-3.1
				c5.6-8.2,11.1-16.3,16.7-24.4c1.1-1.6,1.1-2.7,0-4.3C311.7,701.5,306.6,693.8,300.9,685.5z"/>
			<path class="st0" d="M294.8,718.4c-5.2,0-9.9,0.1-14.7,0c-2.5-0.1-3.3,0.7-3.3,3.3c0,8.5-0.1,8.5,8.4,8.5c3.4,0,6.9,0,10.6,0
				c0,3.7,0,7,0,10.6c-10.5,0-20.9,0-31.5,0c-0.1-1.1-0.2-2-0.2-2.8c0-16.3,0.1-32.5,0-48.8c0-2.8,0.8-3.6,3.6-3.6
				c8.3,0.2,16.7,0.1,25,0c2.5,0,3.2,0.8,3.1,3.1c-0.2,2.4,0,4.8,0,7.8c-5.1,0-9.8,0-14.5,0c-4.3,0-4.3,0-4.3,4.2c0,6.8,0,6.8,7,6.8
				c2.8,0,5.7,0.1,8.5,0c1.6,0,2.5,0.3,2.4,2.2C294.7,712.3,294.8,715.1,294.8,718.4z"/>
			<path class="st0" d="M370.1,720.2c0,6.9,0,13.6,0,20.5c-4.3,0-8.2,0-12.3,0c0-18.3,0-36.5,0-54.8c0.5-0.1,1-0.4,1.4-0.4
				c7.2,0,14.5-0.2,21.7,0.1c8,0.3,13.8,5.4,15.5,13.1c1.7,7.9-1.3,15.8-8.1,19c-3.1,1.5-6.8,1.9-10.3,2.4
				C375.6,720.5,373.1,720.2,370.1,720.2z M370.1,702.7C370.1,702.7,370.1,702.7,370.1,702.7c0,1.8-0.1,3.7,0.1,5.5
				c0.1,0.7,0.9,1.8,1.4,1.8c2.7-0.1,5.5,0,8.1-0.8c3.5-1,4.9-4.9,3.8-8.8c-1-3.5-6.4-6-11.7-4.8c-3.4,0.7-0.9,3.8-1.6,5.6
				C370,701.6,370.1,702.2,370.1,702.7z"/>
			<path class="st0" d="M504.5,696.3c0-3.8,0-7.1,0-10.6c12.7,0,25.2,0,38,0c0,3.5,0,6.8,0,10.6c-3.1,0-6.2,0.1-9.3,0
				c-2.5-0.1-3.3,0.7-3.3,3.2c0.1,12.4,0,24.8,0,37.2c0,1.2,0,2.4,0,4.1c-3.9,0-7.5,0.1-11.1-0.1c-0.6,0-1.4-1.7-1.4-2.6
				c-0.1-7.6-0.1-15.2-0.1-22.9c0-5,0-10,0-14.9c0-3.9,0-3.9-4.1-3.9C510.4,696.3,507.6,696.3,504.5,696.3z"/>
		</g>
	</g>
</g>
</svg>
