<?xml version="1.0" encoding="utf-8"?>
<!-- Generator: Adobe Illustrator 27.4.0, SVG Export Plug-In . SVG Version: 6.00 Build 0)  -->
<svg version="1.1" id="Layer_1" xmlns="http://www.w3.org/2000/svg" xmlns:xlink="http://www.w3.org/1999/xlink" x="0px" y="0px"
	 viewBox="0 0 76.6 29.7" style="enable-background:new 0 0 76.6 29.7;" xml:space="preserve">
<style type="text/css">
	.st0{fill:#FFFFFF;}
</style>
<g>
	<g>
		<path class="st0" d="M26.2,19.8c0.2-0.6,0.4-1.2,0.6-1.8c-0.5,0.5-0.5,0.5-0.8,0.2c-0.2,0.1-0.3,0.2-0.4,0.5
			c-0.1,0.4-0.2,0.8-0.3,1.1c0,0.1-0.1,0.2-0.1,0.2c0,0,0,0-0.1,0c0.1-0.5,0.3-1,0.4-1.5c-0.6,0.3-1.1,0.5-1.6,0.7
			c-0.4,0.2-0.9,0.3-1.3,0.5c-0.1,0-0.2,0.2-0.2,0.3c-0.1,0.4-0.1,0.7-0.2,1.1c-0.1,0.3-0.1,0.3,0.3,0.4c0.1,0,0.1,0,0.2,0
			c0.1,0.4,0,0.8-0.3,1.2c-0.3,0.4-0.6,0.8-0.9,1.2c-0.1,0.1-0.2,0.3-0.4,0.4c-1.8,1.4-3.9,2.3-6.1,2.9c0,0-0.1,0-0.1,0
			c0.2-0.4,0.4-0.8,0.6-1.2c0.1-0.1,0.1-0.3,0.2-0.5c0.2-0.5,0.1-0.6-0.4-0.6c-1.8,0-3.5-0.2-5.2-0.5c-0.1,0-0.1,0-0.2,0
			c0.3,1.2,0.9,2.3,1.7,3.3c-0.5,0-0.9,0-1.3-0.1c-2.1-0.1-3.7-1.1-5.3-2.4c-0.5-0.5-1-1-1.5-1.5c0,0-0.1-0.1-0.2-0.1
			C3.2,23.3,3.2,23.2,3,23c-1.5-2-2.5-4.3-2.9-6.8c-0.3-2.2-0.2-4.5,0.6-6.6c1.1-3.2,3.1-5.7,6-7.5c4.6-2.7,9.2-2.8,13.9-0.3
			c3.8,2,6.1,5.3,7,9.4c0.6,2.8,0.3,5.5-0.6,8.2C26.8,19.7,26.8,19.7,26.2,19.8z M3.6,12.9c0,0,0.1-0.1,0.1-0.1
			c-0.6-0.4-1.1-0.8-1.7-1.2c0,0.1,0,0.1-0.1,0.2c-0.3,1.4-0.3,2.9-0.2,4.3c0,0.1,0.1,0.3,0.2,0.3C2.3,16.8,2.7,17,3,17.3
			c0.1,0.1,0.3,0.1,0.4,0.1c0.3,0.4,0.7,0.5,1.1,0.8c0-0.2,0-0.4-0.1-0.3c0-0.1,0.1-0.3,0.1-0.4c-0.1-1.3,0-2.6,0.2-3.9
			c0-0.1-0.1-0.2-0.1-0.3C4.3,13.2,3.9,13.1,3.6,12.9C3.6,12.9,3.6,12.9,3.6,12.9z M22.6,14.7c-0.1,0-0.1,0-0.1,0
			c-1.4,0.4-2.8,0.6-4.2,0.7c-0.5,0-0.5,0.1-0.4,0.5c0,0.3-0.2,0.6,0.3,0.7c-0.1,0-0.2,0-0.3,0c0,0.7,0,1.4,0,2.1
			c0.2,0.1,0.3,0.1,0.5,0.2c0.1,0.1,0.2,0.2,0.3,0.3c0.1,0.1,0.2,0.1,0.2,0.2c0.2,0.3,0.4,0.3,0.7,0.3c0.2,0,0.5,0.2,0.7,0.2
			c0.1,0,0.2,0.1,0.3,0.1c0.4-0.1,0.8-0.1,1.1-0.5c0,0.1-0.1,0.1-0.1,0.2c0.2-0.1,0.4-0.1,0.6-0.1c0.2,0,0.2-0.1,0.3-0.3
			c0-0.3,0.1-0.7,0.1-1c0.1-1.1,0.1-2.3,0.1-3.4C22.6,14.9,22.6,14.8,22.6,14.7z M9.1,19.8C9.1,19.8,9.1,19.8,9.1,19.8
			c0,1.5,0.3,2.8,0.6,4.2c0,0.1,0.2,0.2,0.3,0.2c0.4,0.1,0.8,0.1,1.2,0.2c1.4,0.2,2.7,0.3,4.1,0.3c0.1,0,0.2,0,0.4,0
			c-0.4-0.3-0.7-0.6-1.1-0.9c0,0-0.1-0.1-0.1-0.1c0-0.1,0-0.3-0.1-0.4c-0.1-0.1-0.2-0.1-0.4-0.1c0.2-0.2,0.2-0.4,0-0.6
			c0-0.1-0.1-0.1-0.1-0.2c-0.2-0.2-0.2-0.4,0-0.6c0,0,0.1-0.1,0.1-0.2c-0.2-0.2-0.1-0.3,0-0.5c0.2-0.2,0.3-0.4,0.5-0.6
			c-0.2,0-0.3,0-0.4,0c-1.1-0.1-2.1-0.3-3.2-0.4c-0.1,0-0.2,0-0.4,0C10.2,19.9,9.6,19.9,9.1,19.8z M17.8,15.4c0.3,0,0.6-0.1,0.9-0.1
			c1.2-0.2,2.4-0.4,3.6-0.7c0.1,0,0.2-0.1,0.2-0.2c0-0.5-0.1-1-0.1-1.5c0-0.1-0.1-0.2-0.1-0.2c-0.1-0.1-0.3-0.1-0.4-0.2
			c0,0,0-0.1,0-0.1c0.2,0.1,0.3,0.1,0.5,0.2c-0.1-0.5-0.2-1-0.3-1.5c0-0.1-0.1-0.1-0.2-0.1c0-0.1,0.1-0.1,0.1-0.2
			c0-0.2-0.1-0.4-0.2-0.6c0,0-0.1-0.1-0.2-0.1c-0.3,0.1-0.6,0.1-0.8,0.3c0,0-0.1,0.1-0.2,0.1c0,0,0,0,0,0c0.1-0.1,0.1-0.1,0.2-0.3
			c-0.6,0.1-1.1,0.2-1.7,0.3c0.1,0.1,0.2,0.2,0.3,0.2c-0.1,0-0.2-0.1-0.3-0.1c-0.1,0-0.2-0.1-0.3-0.1c-0.4,0-0.8,0.1-1.2,0.1
			c-0.1,0-0.2,0.1-0.2,0.2c-0.1,0.2,0.1,0.5,0.3,0.7c0.1,0.1,0.2,0.1,0.3,0.2c0.2,0.2,0.4,0.2,0.7,0.1c0.1-0.1,0.3,0,0.4,0
			c-0.1,0.1-0.2,0.3-0.3,0.3c-0.3,0.1-0.4,0.3-0.4,0.6c0,0.2-0.1,0.4-0.1,0.5c0,0.1-0.1,0.2-0.1,0.3c0,0,0,0-0.1,0
			c0-0.3-0.1-0.7-0.1-1c-0.5,0-0.5,0.1-0.5,0.5c0,0.7,0.1,1.3,0.1,2C17.8,15.1,17.8,15.2,17.8,15.4z M5.6,18.6
			c0.1-0.3,0.1-0.6,0.2-0.9c0,0,0,0,0.1,0c0.1,0.3,0.1,0.7,0.2,1c0.4-0.1,0.8-0.2,0.9-0.7c0.1,0.3,0.3,0.5,0.4,0.8
			C7,18.7,6.7,18.6,6.5,19c0.8,0.2,1.6,0.4,2.5,0.7c-0.1-0.6,0.1-1.1-0.3-1.6c0.1,0,0.1,0.1,0.3,0.2c0-0.2-0.1-0.4-0.1-0.6
			c0-0.1,0.1-0.2,0.1-0.3C9,17.1,9,16.8,9,16.5c0-0.2-0.1-0.3-0.1-0.5c-0.1-0.2-0.2-0.3-0.2-0.5c0.1-0.3-0.1-0.6-0.2-0.8
			c-0.1-0.2-0.2-0.2-0.3-0.1c0-0.1-0.1-0.1-0.1-0.2c0,0.2,0,0.3,0,0.4c-0.2-0.3-0.4-0.5-0.8-0.6c-0.3,0-0.6-0.3-1,0
			c0.1-0.1,0.1-0.2,0.1-0.3c-0.5-0.2-0.9-0.4-1.4-0.6c0,0.3,0,0.4,0,0.6c0,0.1-0.1,0.1-0.1,0.2c-0.2,1.3-0.2,2.5-0.1,3.8
			c0,0.1,0.1,0.2,0.1,0.2C5,18.4,5.3,18.5,5.6,18.6z M16.1,19.1C16.2,19.1,16.2,19.1,16.1,19.1c0.1,0,0.1-0.1,0.1-0.1
			c0.1-0.4,0.2-0.4,0.5-0.3c0.2,0.1,0.5,0.1,0.7,0.2c0.1,0,0.2-0.1,0.2-0.1c0-0.5,0-1,0-1.6c-0.1,0-0.2,0-0.3,0
			c-0.1,0-0.2,0-0.2-0.1c0,0,0,0,0-0.1c0.2,0,0.3,0,0.6,0c0-0.5,0-1,0-1.4c0,0-0.1-0.1-0.1-0.1c-0.4,0-0.9,0.1-1.3,0.1
			c0,0.1,0,0.2,0,0.2c-0.1-0.2-0.2-0.2-0.4-0.2c-1.6,0-3.2-0.1-4.8-0.4c-0.6-0.1-0.6-0.1-0.6,0.5c0,0,0,0,0,0c0,0.6,0.7,1.1,1.3,0.9
			c0.1,0,0.2-0.1,0.2-0.1c0-0.2,0.2-0.4,0.4-0.5c0.1,0,0.2-0.1,0.3,0c0.1,0.1,0.1,0.2,0.1,0.3c0,0.2-0.2,0.4-0.2,0.6
			c-0.1,0.2,0,0.3,0.2,0.4c0.3,0.1,0.6,0.2,0.9,0.3c0.2,0.1,0.2,0.2,0.1,0.4c-0.2,0.2-0.2,0.5-0.1,0.7c0.2,0.3,0.4,0.3,0.7,0.3
			c0.2,0,0.4,0.1,0.5,0.1c0.1,0,0.2,0,0.2,0c0.2-0.2,0.5-0.4,0.7-0.6c0,0-0.1-0.1-0.2-0.2c0.2,0.1,0.4,0.2,0.6,0.3
			C16.1,18.8,16.1,18.9,16.1,19.1z M9.6,24.1c0-0.1,0-0.1,0-0.1c-0.2-1.2-0.4-2.3-0.6-3.5c0-0.1-0.1-0.1-0.2-0.2
			c0,0,0.1-0.1,0.1-0.2c0-0.2,0.1-0.3-0.2-0.4c-0.8-0.2-1.6-0.4-2.4-0.6c-0.1,0-0.1,0-0.3,0c0.3,0.3,0.6,0.5,0.8,0.8c0,0,0,0,0,0.1
			c-0.3-0.1-0.5-0.3-0.8-0.4c-0.2-0.1-0.4-0.2-0.7,0c-0.1,0.1-0.3,0.1-0.5,0.1c0.3,1.1,0.6,2.2,1.1,3.3c0,0.1,0.1,0.2,0.2,0.2
			c0.5,0.2,1.1,0.4,1.6,0.6C8.5,23.8,9,23.9,9.6,24.1z M17.3,13.2c-0.1-0.3-0.2-0.5-0.4-0.8c0.1,0,0.2,0.1,0.3,0.1
			c0.1,0.1,0.3,0,0.3-0.1c0-0.3,0-0.7-0.2-1c0.2-0.2,0-0.4,0.1-0.6c-0.3,0-0.5,0-0.8,0.1c-0.1,0-0.1,0.1-0.1,0.2
			c0,0.3-0.1,0.4-0.3,0.5c-0.3,0.1-0.4,0.3-0.6,0.5c-0.1,0.2,0,0.4,0.1,0.4c-0.1,0.1-0.2,0.1-0.2,0.2c-0.1,0.3-0.3,0.4-0.6,0.6
			c-0.2,0.1-0.4,0.2-0.5,0.4c-0.2,0.2-0.3,0.4-0.2,0.7c0.1-0.1,0.3-0.2,0.4-0.2c0,0,0,0,0,0.1c-0.1,0.1-0.3,0.2-0.4,0.3
			c0.1,0.2,0.1,0.4,0.2,0.6c0.1,0.3-0.1,0.4-0.4,0.3c-0.3-0.1-0.4-0.3-0.3-0.6c0.1-0.3-0.2-0.6-0.5-0.6c0,0.1-0.1,0.3-0.1,0.4
			c0,0,0,0,0,0c0-0.1,0-0.3,0.1-0.4c-0.3,0-0.7-0.4-0.9,0.1c-0.1,0-0.3-0.1-0.4-0.1c-0.7-0.3-1.1,0.2-1.3,0.7
			c-0.1,0.2,0,0.2,0.2,0.3c0.6,0.1,1.2,0.2,1.7,0.3c0.4,0.1,0.4,0.1,0.6-0.3c0,0,0,0,0.1,0c0,0.1,0,0.2,0,0.3
			c0.1-0.1,0.2-0.1,0.3-0.2c0,0,0,0,0,0c-0.1,0.1-0.1,0.2-0.2,0.3c1.5,0.2,3,0.2,4.5,0c0-0.9,0-1.8-0.1-2.7c0,0-0.1,0-0.1,0
			C17.4,12.9,17.4,13,17.3,13.2z M23.8,14.1c0.1,0,0.2,0,0.3,0c0.5-0.2,0.9-0.4,1.3-0.6c0.2-0.1,0.3-0.2,0.3-0.5
			c-0.2-1.2-0.5-2.3-0.9-3.4c-0.1-0.2-0.2-0.5-0.3-0.7c-0.9,0.3-1.7,0.7-2.5,1C21.9,9.9,22,10,22,10.1c0.1,0.4,0.3,0.8,0.3,1.2
			c0,0.4,0.1,0.8,0.2,1.2c0,0.2,0.1,0.5,0.3,0.6c0.1,0,0.1,0.1,0.2,0.1c0,0-0.1,0.1-0.1,0.1c-0.1-0.1-0.2-0.1-0.4-0.2
			c0,0.5,0.1,0.9,0.1,1.4C23.3,14.4,23.8,14.2,23.8,14.1z M24.2,18.4C24.2,18.5,24.2,18.5,24.2,18.4c-0.3,0-0.7,0-1,0
			c-0.1,0-0.2,0-0.3,0.1c-0.4,0.2-0.5,0.7-0.5,1.1c0,0,0,0,0.1,0c1-0.4,1.9-0.8,2.9-1.2c0.1,0,0.1-0.1,0.1-0.1
			c0.1-0.4,0.1-0.8,0.1-1.2c0-0.2,0-0.5,0-0.7c0-0.2,0.1-0.4-0.3-0.5c0.3-0.1,0.3-0.3,0.3-0.6c0-0.4,0.1-0.8,0.1-1.2
			c0-0.2,0-0.4,0-0.7c-0.6,0.3-1.1,0.5-1.7,0.7c0,0.1,0.1,0.1,0,0.1c-0.2,0-0.3,0-0.5,0c-0.3,0.1-0.5,0.2-0.8,0.2
			c-0.2,0-0.2,0.1-0.2,0.3c0,0.7,0,1.4,0,2c0,0.3,0.2,0.6,0.3,0.9c0.3-0.2,0.7-0.4,0.6-0.9c0.2,0.2,0.4,0.4,0.6,0.6
			c-0.2,0-0.3,0-0.6,0.1c0.1,0.1,0.2,0.1,0.2,0.2c-0.3-0.1-0.4,0.2-0.5,0.4C23.7,18.2,24,18.3,24.2,18.4z M21.7,9.4
			c-0.5-1-1-2.2-1.6-3.3C20.1,6.1,20,6,19.9,6c-0.7,0.1-1.4,0.3-2.1,0.4c-0.4,0.1-0.8,0.1-1.2,0.1c-0.1,0-0.2,0.1-0.3,0.2
			c0,0,0,0.2,0,0.2c0.1,0,0.2,0.1,0.4,0.1c0.1,0,0.1-0.1,0.2-0.1c0.2-0.2,0.3-0.1,0.5,0.1c0.1,0.2,0.2,0.4,0.3,0.6
			c0.1,0.1,0.2,0.2,0.3,0.2c0.2,0.1,0.4,0.2,0.6,0.3c0,0,0,0.1,0,0.1c0.1,0.3-0.4,0.8-0.7,0.8c-0.2,0-0.4,0-0.6,0.1
			c-0.3,0.1-0.5,0.3-0.7,0.5c-0.1,0-0.1,0.1-0.2,0.3c0.3-0.2,0.6-0.3,0.9-0.5c0,0-0.1-0.1-0.1-0.2c0.2,0.1,0.3,0.1,0.5,0.2
			c-0.1,0.1-0.2,0.1-0.2,0.1c0.2,0.6,0.4,0.8,1.1,0.5c-0.2,0.2-0.4,0.3-0.5,0.5c0,0,0,0.1,0.1,0.1c0.8-0.1,1.6-0.2,2.4-0.4
			C20.8,10.1,21.3,10.1,21.7,9.4z M2.6,9.9c-0.2,0.5-0.4,1-0.5,1.5c0,0.1,0,0.2,0.1,0.2c0.4,0.3,0.8,0.6,1.2,0.9
			c0.2,0.1,0.4,0.3,0.6,0.4c0-0.1,0.1-0.3,0.1-0.4c0,0.5,0.1,0.6,0.6,0.6c0.2-0.7,0.3-1.3,0.5-2C5.2,11,5,10.9,4.9,10.9
			c0,0,0,0,0-0.1c0.1,0,0.3,0.1,0.4,0.1c0.3-0.7,0.6-1.4,0.9-2.1c0.1-0.2-0.1-0.2-0.1-0.2c-0.2,0.1-0.2,0-0.3-0.1
			C5.7,8.5,5.6,8.5,5.4,8.4C5.4,8.6,5.3,8.8,5.3,9C5.2,9,5.1,9,5,8.9c0.1-0.2,0.2-0.4,0.3-0.6c-0.3,0-0.4,0-0.6,0c0,0,0,0,0,0
			c0.1,0,0.2-0.1,0.3-0.1C4.6,7.9,4.3,7.7,3.9,7.4C3.5,8.2,3.1,9,2.7,9.7C2.8,9.8,2.9,9.9,3,10c0,0,0,0,0,0C2.9,10,2.8,9.9,2.6,9.9z
			 M12.5,19.9c0,0.1,0,0.2,0,0.2c0,0.1,0.1,0.2,0.2,0.2c0.6,0,1.1,0.1,1.7,0.1c0.2,0,0.3-0.1,0.3-0.3c0-0.2,0-0.5,0-0.7
			c0-0.1-0.1-0.3-0.2-0.3c-0.1,0-0.3,0-0.4,0.1c-0.3,0.2-0.3,0.2-0.5,0c-0.1-0.1-0.2-0.2-0.4-0.2c-0.2,0-0.3-0.1-0.4-0.3
			c0-0.1-0.1-0.3-0.1-0.4c0,0,0,0-0.1,0c0,0.1,0,0.2-0.1,0.3c0-0.1-0.1-0.2,0-0.3c0-0.2,0-0.2-0.2-0.2c-0.5,0-0.8-0.3-1.1-0.6
			c-0.1-0.1-0.2-0.1-0.3-0.2c-0.2,0-0.5,0-0.7-0.1c-0.3-0.1-0.5-0.3-0.7-0.5c-0.1-0.1-0.3-0.2-0.5-0.3c0,0.3,0,0.5-0.1,0.7
			c0,0.2,0,0.4,0,0.6c-0.1,0.6,0,1.1,0,1.7c0,0,0.1,0.1,0.1,0.1c0,0,0.1,0,0.1-0.1c0.1-0.1,0.1-0.2,0.2-0.2c0,0,0,0,0,0
			c-0.1,0.1-0.1,0.2-0.2,0.3c0,0,0,0,0.1,0c0.8,0.2,1.7,0.4,2.5,0.5C12.4,20.3,12.4,20.3,12.5,19.9z M14.7,5.8c0,0,0,0.1-0.1,0.1
			c-0.1,0-0.2-0.1-0.4-0.1c-0.1,0-0.3-0.1-0.4,0c-0.3,0.2-0.7,0.5-1,0.7c0,0,0,0.1,0,0.1c0.6,0,1.1,0,1.7,0c0.2,0,0.4,0,0.4-0.3
			c0-0.1,0.1-0.1,0.1-0.1c0.3,0.1,0.5,0.1,0.7,0.1c0.1,0,0.2,0,0.3,0.1c0.1,0.2,0.3,0.1,0.5,0.1c0.1,0,0.3,0,0.4,0
			c0.6-0.1,1.2-0.2,1.9-0.3c-0.5-0.3-0.8-0.6-0.9-1.1c-0.1-0.2-0.2-0.5-0.3-0.7c0,0-0.1-0.1-0.1-0.1c-0.1-0.1-0.3-0.2-0.4-0.3
			c-0.1,0.2-0.2,0.1-0.3,0c0,0-0.1-0.1-0.1-0.1c-0.2-0.4-0.5-0.6-1-0.6c-0.1,0-0.1,0-0.2,0c0-0.1,0-0.3-0.1-0.4
			c0.1,0,0.1-0.1,0.2-0.1c0-0.1,0-0.2,0-0.3c-0.3,0-0.6,0-0.7,0.3C15.2,3,15.2,3.1,15,3.2c-0.1,0.1-0.2,0.1-0.2,0.3
			c0,0.1,0,0.1-0.1,0.2c-0.4-0.2-0.6-0.3-0.5-0.6c0.1,0,0.2,0,0.4,0c-0.2-0.3-0.4-0.4-0.7-0.4c-0.6-0.1-0.8,0.1-1,0.6
			c-0.2,0.4-0.3,0.8,0.1,1.2c-0.2,0-0.4-0.1-0.6-0.1c0,0.1-0.1,0.2-0.2,0.4c0.3,0,0.6,0.1,0.9,0.1c0.1,0,0.3-0.1,0.4-0.2
			c-0.1-0.2,0.1-0.5-0.3-0.6c0.3-0.1,0.3-0.1,0.5,0.1c0.1,0.2,0.1,0.3,0.2,0.5c0,0.1,0.2,0.2,0.3,0.4c0.1-0.1,0.3-0.2,0.4-0.4
			c0.1-0.1-0.2-0.5-0.3-0.5c-0.1,0-0.1,0-0.2-0.1c0-0.1,0-0.2,0-0.3c0.2,0,0.4,0,0.6,0.1c0.2,0,0.4,0,0.5,0.1
			c0.2,0.3,0.5,0.3,0.9,0.3c0.2,0,0.3,0.1,0.1,0.3c-0.2,0.3-0.4,0.4-0.8,0.3c-0.2,0-0.3-0.1-0.1-0.3c-0.4-0.1-0.6,0.1-0.5,0.4
			c0,0.2,0,0.3-0.2,0.3c-0.1,0-0.1,0.1-0.1,0.1C14.5,5.5,14.6,5.6,14.7,5.8z M23.6,7.5C23.6,7.4,23.5,7.4,23.6,7.5
			c0.2-0.3,0.1-0.4-0.1-0.6c-0.4-0.5-0.9-1.1-1.3-1.6c-0.1-0.1-0.2-0.1-0.3-0.1c-0.4,0.2-0.8,0.4-1.2,0.6c-0.2,0.1-0.3,0.1-0.5,0.2
			c0,0,0,0.1,0,0.1c0.5,1.2,1.1,2.4,1.6,3.6c0,0.1,0.2,0.1,0.2,0.1c0.8-0.3,1.5-0.6,2.3-1c0.1,0,0.1-0.1,0.1-0.2
			c-0.2-0.5-0.4-0.9-0.7-1.4c0,0-0.1,0-0.1,0C23.7,7.3,23.6,7.4,23.6,7.5z M5.8,22.9C5.8,22.9,5.9,22.8,5.8,22.9
			c0-0.2-0.1-0.4-0.2-0.6c-0.5-1.2-0.8-2.4-1-3.6c-0.1-0.5-0.4-0.8-0.9-0.6c0,0-0.1,0-0.1,0c0,0,0,0,0,0C3.7,18.1,3.8,18,4,17.9
			c-0.2-0.1-0.4-0.2-0.6-0.3c-0.1-0.2-0.7-0.6-1.1-0.5c0.1,0.2,0.2,0.4,0.3,0.5c-0.1,0-0.2,0.1-0.3,0.1c-0.1-0.2-0.1-0.4-0.2-0.6
			c0,0-0.1,0-0.1,0c0.1,0.3,0.1,0.6,0.2,0.9c0,0.1,0.1,0.2,0.2,0.3c0,0.1-0.1,0.2,0,0.3c0.2,0.6,0.4,1.1,0.6,1.7
			c0,0.1,0.1,0.1,0.1,0.2c0.1-0.1,0.3-0.2,0.4-0.3c0,0.1,0.1,0.3,0.1,0.4c0,0,0,0,0,0c0-0.1-0.1-0.2-0.1-0.3c0,0.2,0,0.4-0.1,0.5
			c0,0,0,0,0,0c0-0.1,0-0.2,0-0.3c0,0,0,0-0.1,0c0,0.1-0.1,0.1,0,0.2c0.1,0.4,0.2,0.6,0.5,0.6c0-0.1,0-0.2,0-0.2
			c0,0.4,0.3,0.5,0.6,0.7C4.7,22.3,5.3,22.6,5.8,22.9z M11.3,27.4c-0.1-0.1-0.1-0.1-0.1-0.2c-0.6-0.7-1-1.5-1.2-2.3
			c-0.2-0.6-0.4-0.8-1-0.9c-0.6-0.1-1.3-0.3-1.9-0.5C7,23.7,6.9,23.8,6.8,24c0,0,0,0-0.1,0c0.1-0.1,0.1-0.3,0.2-0.4
			c-0.2-0.1-0.5-0.2-0.7-0.3c0,0.1,0,0.1,0,0.1c0.6,1.2,1.4,2.2,2.2,3.2c0,0,0.1,0.1,0.1,0.1C9.5,27,10.3,27.3,11.3,27.4z M6.3,8.7
			c0.4-0.7,0.8-1.4,1.2-2.1C7.5,6.4,7.7,6.3,7.6,6c-0.1-0.1,0-0.3,0.1-0.4c0-0.1,0.1-0.2,0.1-0.2C7.7,5.3,7.5,5.3,7.5,5.2
			C7.4,4.8,7,4.7,6.8,4.5C6.7,4.6,6.7,4.6,6.6,4.7c-0.1,0-0.3,0-0.4,0c0.1,0.1,0.1,0.1,0.1,0.1C6.1,4.9,5.9,5,5.8,5.2
			C5.2,5.9,4.6,6.6,4,7.3C4.4,7.6,4.7,7.8,5.1,8C5.2,8,5.3,8,5.4,7.9c0.1-0.1,0.1-0.2,0.2-0.3c0.1,0.3-0.2,0.5,0.1,0.7
			C5.9,8.4,6.1,8.5,6.3,8.7z M9.9,1.9C9.7,1.8,9.5,1.8,9.4,1.7C9.2,1.6,9,1.6,8.8,1.7C7.5,2.2,6.4,2.9,5.4,3.7
			C4.6,4.5,3.8,5.3,3.1,6.2c0,0.1-0.1,0.2,0,0.3C3.4,6.7,3.6,7,3.9,7.2C4.5,6.5,5.1,5.7,5.7,5c-0.2,0-0.4,0-0.6,0c0,0,0-0.1,0-0.1
			c0.2,0,0.5-0.1,0.7-0.1C6,4.8,6.1,4.7,6,4.5C6,4.2,6.3,3.8,6.5,3.8c0.3,0.1,0.5,0,0.7-0.3c0.1-0.3,0.3-0.4,0.6-0.2
			C7.9,3,8.1,2.9,8.4,2.8C8.9,2.6,9.4,2.2,9.9,1.9z M6.5,11.4c0-0.1,0.1-0.2,0.1-0.2c0-0.5-0.1-1,0.2-1.4C6.9,9.5,7,9.3,7.1,9.1
			C6.8,9,6.6,8.9,6.4,8.8C6.3,9,6.2,9.2,6.1,9.3c-0.6,1.2-0.9,2.4-1.2,3.7c0,0.1-0.1,0.2,0.1,0.3c0.4,0.2,0.8,0.4,1.2,0.5
			c0.2,0.1,0.2,0,0.3-0.2c-0.2,0-0.5-0.1-0.7-0.1c0-0.1,0.1-0.2,0.2-0.4c0.1,0.4,0.3,0.3,0.6,0.4c0-0.2,0-0.4,0-0.7
			c0.2,0.3,0.1,0.8,0.6,0.9c0-0.2,0-0.3-0.1-0.5c0-0.2-0.1-0.4-0.1-0.6C7.2,12,6.7,11.8,6.5,11.4z M8.2,26.5
			C8.2,26.4,8.2,26.4,8.2,26.5c0-0.1,0-0.1,0-0.1c-0.8-0.9-1.5-2-2.1-3.1C6,23.1,5.9,23.1,5.8,23c-0.8-0.4-1.5-0.8-2.3-1.3
			c0,0-0.1,0-0.1,0c0.1,0.2,0.1,0.3,0.2,0.3c0.2,0,0.2,0.2,0.2,0.3c0,0.1,0.1,0.3,0.2,0.4c0.5,1.1,1.3,1.9,2.3,2.5
			C6.9,25.7,7.5,26.1,8.2,26.5z M2.9,6.5C2.9,6.5,2.9,6.5,2.9,6.5c-0.8,1.1-1.4,2.4-1.8,3.7c0,0.1,0,0.2,0,0.2
			c0.2,0.3,0.5,0.6,0.7,0.9c0.3-0.7,0.5-1.4,0.8-2.1c0.3-0.7,0.7-1.3,1-2C3.5,7.1,3.2,6.8,2.9,6.5z M1.6,16.2c0-0.1,0-0.1,0-0.1
			c0-0.1,0-0.2,0-0.3c-0.1-1.3-0.1-2.6,0.2-3.9c0.1-0.3,0-0.5-0.2-0.6c-0.2-0.2-0.4-0.4-0.6-0.6c0,0.1,0,0.1,0,0.2
			c-0.3,1.2-0.4,2.5-0.4,3.7C0.6,15.3,1.1,15.7,1.6,16.2z M18,1.9c0.1,0.1,0.2,0.1,0.3,0.2c1.2,0.7,2.3,1.4,3.3,2.3
			C22.2,5,22.2,5,22.7,4.4c0,0,0,0,0,0c0.1-0.1,0.1-0.2,0-0.3c-1.1-1-2.4-1.8-3.8-2.4c-0.1,0-0.2-0.1-0.2,0
			C18.5,1.7,18.3,1.8,18,1.9z M22,5c-0.1-0.1-0.1-0.1-0.2-0.2c-1.1-1.1-2.4-2-3.8-2.7C17.8,2,17.5,2,17.2,2.3
			c0.3,0.1,0.5,0.2,0.8,0.3c0.1,0,0.3,0.1,0.3,0.1c0,0.2,0.2,0.3,0.4,0.4c0.3,0.2,0.6,0.4,0.9,0.6c0.2,0.2,0.2,0.5,0,0.6
			c-0.3,0-0.2,0.2-0.1,0.3c0.2,0.3,0.4,0.7,0.6,1c0,0.1,0.2,0.1,0.2,0.1C20.8,5.5,21.4,5.3,22,5z M24.6,8.6c0.2-0.1,0.3-0.2,0.5-0.3
			c0,0,0.1-0.1,0.1-0.1c0-0.3,0-0.5-0.1-0.8C25,7.2,25,7,25.1,6.8c0-0.1,0-0.2,0-0.3c-0.2-0.3-0.4-0.6-0.6-0.8
			c-0.1-0.2-0.2-0.3-0.4-0.2c-0.1,0-0.2-0.1-0.3-0.2c-0.2-0.2-0.3-0.4-0.4-0.6c-0.1-0.1-0.2-0.2-0.2-0.4c-0.3,0.3-0.5,0.5-0.8,0.7
			c0.5,0.7,1.1,1.4,1.6,2.1C24,7,24.1,6.8,24.3,6.7c0,0,0,0-0.1-0.1c-0.1,0-0.1,0.1-0.2,0.2c0.1-0.2,0.1-0.3,0.2-0.3
			c0.2,0.1,0.3,0.2,0.5,0.4c0.1,0.2,0.2,0.4,0.3,0.6c0,0.1-0.1,0.2-0.2,0.3c-0.1-0.2-0.2-0.3-0.3-0.4C24.2,7.8,24.4,8.2,24.6,8.6z
			 M3,21.2c-0.1-0.3-0.2-0.5-0.3-0.7c-0.2-0.6-0.5-1.3-0.7-1.9c-0.2-0.6-0.2-1.2-0.3-1.9c0-0.1,0-0.3-0.1-0.3c-0.3-0.3-0.6-0.6-1-1
			c0,0.2,0,0.3,0,0.4c0.2,1.4,0.6,2.8,1.2,4.1C2.1,20.4,2.5,20.8,3,21.2z M13,2.6c-0.5-0.1-0.9-0.2-1.3-0.2c-0.1,0-0.2,0-0.2,0.1
			c-0.4,0.3-0.8,0.7-1.2,1c-0.1,0.1-0.1,0.2-0.2,0.3c0.7,0,1.1,0.3,1.3,0.8c0.2-0.2,0.2,0.1,0.4,0.1C11.9,4.6,12,4.5,12,4.3
			c-0.2,0-0.4,0-0.6-0.1c0,0,0,0,0,0c0.1,0,0.1,0,0.2-0.1c-0.2,0-0.3-0.1-0.4-0.1c0.1-0.1,0.2-0.2,0.4-0.3c-0.1-0.1-0.2-0.2-0.3-0.3
			c0.1,0,0.2-0.1,0.2-0.1c0.3,0,0.6,0.1,0.9,0.3C12.6,3.2,12.8,2.9,13,2.6z M12.9,6.7C13,6.9,13,7.1,13.1,7.2c0.1,0,0.2,0,0.3,0.1
			c0.2,0.1,0.3,0.3,0.5,0.4c0.1,0,0.1,0.1,0.2,0.1c0.2,0,0.3,0,0.4,0c0,0.3,0,0.4,0.1,0.6c0,0.2,0.1,0.4,0.3,0.3
			C15,8.7,15,8.4,15,8.3c0-0.1-0.1-0.1-0.1-0.2c0.1-0.1,0.3-0.3,0.4-0.4c0.4-0.3-0.2-0.5-0.2-0.8c0-0.1-0.1-0.2-0.2-0.2
			C14.2,6.7,13.6,6.7,12.9,6.7z M11.4,2.4c-0.4-0.1-0.8-0.2-1.2-0.4c0,0-0.1,0-0.1,0C9.6,2.2,9.2,2.5,8.7,2.7c0,0,0,0,0,0.1
			c0.1,0,0.2,0,0.2,0C9.1,2.9,9.3,3,9.4,3.1c0.1,0.1,0.2,0.3,0.4,0.5c0,0,0.2,0,0.2,0C10.5,3.2,10.9,2.8,11.4,2.4z M20.3,21
			C20.3,21,20.3,21.1,20.3,21c0.2,0,0.3-0.1,0.4-0.1c0,0.1,0,0.3,0,0.4c0.1-0.1,0.2-0.2,0.4-0.2c0.1,0,0.3,0.1,0.4,0.2
			c0.2,0.1,0.6,0,0.6-0.1c0.1-0.4,0.2-0.9,0.3-1.4c-0.6,0.2-1.2,0.3-1.8,0.4C20.6,20.5,20.5,20.8,20.3,21z M26.3,9
			C26,9.2,26,9.4,26.1,9.6c0.1,0.1,0.1,0.2,0.1,0.3c0.1,0.2,0.2,0.5,0.2,0.7c0,0.2-0.2,0.4-0.4,0.5c-0.2,0-0.3-0.1-0.3-0.3
			c-0.1-0.1-0.1-0.3-0.2-0.4c0,0-0.1-0.1-0.2-0.1c0.2,1,0.4,1.9,0.6,2.8c0,0,0,0,0.1,0c0.1-0.1,0.2-0.2,0.2-0.4c0-0.4,0-0.8,0-1.1
			c0-0.1,0-0.3,0.1-0.4c0.1-0.2,0.3-0.3,0.5-0.5c0.1-0.1,0.1-0.2,0.1-0.2C26.7,10.1,26.5,9.6,26.3,9z M9.3,1.5
			c0.2,0.1,0.4,0.2,0.6,0.2c0.1,0,0.3,0,0.4,0c0.9-0.4,1.9-0.7,2.9-0.9c0.1,0,0.3-0.1,0.4-0.1C12.1,0.6,10.7,0.9,9.3,1.5z M13.8,0.9
			c-1.2,0.1-2.4,0.4-3.4,1c0.4,0.1,0.7,0.2,1.1,0.3c0.1,0,0.2-0.1,0.2-0.1c0.5-0.3,1-0.6,1.5-0.9C13.4,1.1,13.6,1,13.8,0.9z
			 M14.1,0.9c-0.9,0.3-1.6,0.7-2.3,1.3c0.4,0.1,0.8,0.1,1.2,0.2c0.1,0,0.2,0,0.2-0.1C13.5,1.9,13.8,1.4,14.1,0.9z M14.7,0.9
			c0,0.4,0,0.7-0.1,1.1c0,0.2,0.1,0.3,0.3,0.2c0.1,0,0.2-0.1,0.4-0.1c-0.1-0.1-0.2-0.2-0.3-0.2c0,0,0-0.1,0.1-0.1
			c0.2,0.1,0.3,0.2,0.5,0.3c0,0,0,0.1,0,0.1c-0.3,0-0.3,0.1-0.4,0.4c0.3-0.1,0.6-0.1,0.9-0.2c0,0,0,0,0-0.1c0,0-0.1,0-0.1-0.1
			c0.1-0.1,0.2-0.2,0.2-0.3c-0.3-0.3-0.7-0.5-1-0.8C15.1,1,15,1,14.7,0.9z M14.6,0.9c-0.4,0.1-1.2,1.2-1.4,1.6c0.4,0,0.7,0,1.1,0.1
			C14.5,2,14.5,1.4,14.6,0.9z M7.4,8.1c0.1,0.1,0.2,0.2,0.2,0.3c0.2-0.2,0.1-0.2,0-0.4C7.5,7.7,7.3,7.4,7.5,7c0,0,0-0.1,0-0.2
			c0,0-0.1,0-0.1,0C7.1,7.4,6.8,8,6.4,8.7C6.7,8.8,6.9,8.9,7.1,9C7.2,8.7,7.3,8.4,7.4,8.1z M25.3,8.4c-0.1,0.1-0.3,0.2-0.5,0.3
			c0,0-0.1,0.1-0.1,0.2c0.2,0.5,0.3,0.9,0.5,1.3c0,0,0.1,0.1,0.1,0.1c0,0,0.1-0.1,0.1-0.1c0,0,0-0.1,0-0.2c-0.1-0.2-0.1-0.4,0.2-0.5
			c0,0,0.1-0.1,0.1-0.2c0.1,0,0.2,0,0.3,0C25.8,8.9,25.7,8.5,25.3,8.4z M15.1,0.9c0.2,0.1,0.4,0.3,0.5,0.4c0.2,0.2,0.5,0.4,0.7,0.6
			c0.4,0.3,0.8,0.3,1.2,0C17,1.5,15.6,0.9,15.1,0.9z M18.5,1.5C18.5,1.5,18.5,1.5,18.5,1.5c-1-0.4-1.9-0.6-2.9-0.8c0,0,0,0.1,0,0.1
			c0.7,0.3,1.4,0.6,2.1,1c0.1,0,0.1,0,0.2,0C18.1,1.7,18.3,1.6,18.5,1.5z M3.2,21.9c0.1-0.3-0.1-0.5-0.4-0.7c-0.1,0-0.2,0-0.2-0.1
			c0,0.1,0,0.2,0,0.2c0.3,0.5,0.6,0.9,1,1.4c0,0.1,0.1,0.1,0.2,0.2C3.8,22.6,3.4,21.9,3.2,21.9z M14.2,10.6c0,0,0.1-0.1,0.1-0.2
			c0-0.1,0-0.3-0.1-0.4c0-0.1-0.2-0.1-0.3,0c-0.4,0.1-0.7,0.4-0.9,0.8c0,0.1-0.1,0.2-0.1,0.3c0,0.1,0.1,0.1,0.1,0.2
			c0,0,0.1-0.1,0.1-0.1c0-0.1,0-0.2,0.1-0.3c0.1-0.2,0.2-0.4,0.3-0.6C13.8,10.4,14,10.5,14.2,10.6z M19.4,4.8
			c-0.1,0.3-0.2,0.4-0.2,0.6c0,0.1,0,0.3,0,0.4c0.2,0.3,0.4,0.3,0.8,0C19.8,5.5,19.6,5.2,19.4,4.8z M13.3,10c0.2,0,0.4,0.1,0.5-0.2
			c0-0.2-0.1-0.4-0.2-0.5c-0.1-0.1-0.3-0.1-0.4-0.1c-0.2,0.1-0.4,0.3-0.5,0.4c0,0,0,0,0,0.1c0.1,0,0.2,0,0.3,0
			C13.2,9.7,13.2,9.7,13.3,10z M8.3,14.5C8.3,14.5,8.3,14.4,8.3,14.5c-0.2-0.6-0.4-1.1-0.6-1.6c0,0-0.1-0.1-0.1-0.1
			c0,0.1-0.1,0.1-0.1,0.2c0.1,0.4,0.2,0.9,0.5,1.1c0,0.1-0.1,0.2,0,0.2C8,14.4,8.1,14.4,8.3,14.5z M4.9,19.4
			c0.2-0.1,0.4-0.3,0.5-0.4c0.2-0.1,0.2-0.3,0-0.4c-0.2-0.1-0.4-0.2-0.7-0.3C4.8,18.8,4.8,19.1,4.9,19.4z M6.7,13.9c0,0,0,0.1,0,0.1
			c0.3,0.1,0.6,0.2,1,0.3c-0.1-0.2-0.1-0.3-0.2-0.4C7.2,13.9,6.9,13.9,6.7,13.9z M18,12.1c-0.1-0.1-0.2-0.3-0.3-0.4c0,0,0,0,0,0
			c0,0.2,0,0.3,0.1,0.5C17.8,12.2,17.9,12.2,18,12.1z M25.8,17.6c0,0.2-0.1,0.4-0.1,0.5C26,18,26,17.9,25.8,17.6z M17.3,10.7
			c0.1-0.1,0.2-0.2,0.2-0.2c0-0.1-0.1-0.2-0.1-0.3c0,0,0,0-0.1,0C17.3,10.4,17.3,10.5,17.3,10.7z M1.9,17.1C2,16.7,2,16.7,1.8,16.6
			C1.9,16.8,1.9,16.9,1.9,17.1z"/>
		<path class="st0" d="M28,20.4c-0.4,1.5-0.8,3-1.3,4.6c-0.2-0.3-0.4-0.5-0.7-0.8c-0.4,0.3-0.7,0.6-1.1,0.9c-2.6,2.2-5.6,3.7-9,4.3
			c-3.5,0.6-6.8,0.2-9.8-1.6c-1.4-0.8-3-2.4-3.6-3.7c0,0,0,0,0-0.1c0,0.1,0.1,0.1,0.1,0.2c1.7,1.9,3.8,3.2,6.4,3.8
			c1.3,0.2,2.5,0.3,3.8,0.1c4.6-0.6,8.3-2.8,11.4-6c0,0,0.1-0.1,0.1-0.1c-0.2-0.3-0.5-0.6-0.8-1C25.2,20.8,26.6,20.6,28,20.4z"/>
		<path class="st0" d="M3.6,12.9C3.6,13,3.6,13,3.6,12.9c-0.3,0-0.5-0.1-0.8-0.1c0,0,0,0,0-0.1C3.1,12.8,3.4,12.9,3.6,12.9
			C3.6,12.9,3.6,12.9,3.6,12.9z"/>
		<path class="st0" d="M21.5,11.1c-0.1,0-0.2,0.1-0.3,0.1c0,0.1,0.1,0.2,0.1,0.2c0,0,0,0,0,0c-0.1-0.1-0.2-0.2-0.3-0.3
			C21.2,11.1,21.3,11,21.5,11.1C21.5,11,21.5,11,21.5,11.1z"/>
		<path class="st0" d="M8.4,17.8c-0.1-0.1-0.2-0.2-0.2-0.3c0,0,0,0,0.1,0C8.3,17.5,8.4,17.7,8.4,17.8c0,0.1-0.2,0.2-0.3,0.2
			c0,0,0,0,0-0.1C8.1,17.9,8.2,17.8,8.4,17.8z"/>
		<path class="st0" d="M15.6,16.5c-0.1,0.1-0.1,0.2-0.2,0.2c-0.1,0-0.3,0-0.4,0c-0.2,0-0.4-0.1-0.6-0.2c0,0,0.1,0,0.2-0.1
			c-0.4-0.3-0.8-0.5-1.3-0.4c0.1-0.2,0.2-0.3,0.4-0.3c0.2,0,0.4,0.1,0.6,0.2c0.3,0.1,0.7,0.3,1,0.4C15.5,16.4,15.6,16.4,15.6,16.5z"
			/>
		<path class="st0" d="M17,16.9c-0.1,0.2-0.6,0.1-0.5,0.5c-0.1-0.1-0.2-0.1-0.3-0.2c-0.2-0.1-0.3-0.3-0.3-0.5c0.1,0,0.3,0,0.5,0
			c-0.1-0.1-0.2-0.1-0.2-0.1c0-0.1,0.1-0.2,0.2-0.2c0,0.1,0.1,0.2,0.2,0.3c0,0-0.1,0-0.1,0.1c0,0,0,0.1,0,0.1
			C16.6,16.8,16.8,16.8,17,16.9z"/>
		<path class="st0" d="M12.9,16.7c0,0.1-0.1,0.1-0.1,0.2c0,0,0,0,0,0c0-0.1,0-0.3,0-0.4c0.1,0,0.3,0.1,0.4,0.1
			C13.2,16.9,13,16.7,12.9,16.7z"/>
		<path class="st0" d="M15.4,17.2c-0.3,0-0.6,0-0.9,0c0,0,0-0.1,0-0.1C14.8,17.1,15.1,17.1,15.4,17.2C15.4,17.1,15.4,17.1,15.4,17.2
			z"/>
		<path class="st0" d="M15.7,13c0,0.1,0.1,0.2,0.1,0.4c0.1-0.1,0.2-0.1,0.4-0.2c0,0,0,0,0,0.1c-0.1,0.1-0.3,0.2-0.4,0.1
			C15.7,13.3,15.7,13.2,15.7,13C15.6,13,15.7,13,15.7,13z"/>
		<path class="st0" d="M24.8,14.9c-0.1-0.1-0.3-0.2-0.4-0.3c0,0,0-0.1,0.1-0.1C24.6,14.6,24.7,14.7,24.8,14.9
			C24.9,14.9,24.8,14.9,24.8,14.9z"/>
		<path class="st0" d="M4,13.2c0.1,0.1,0.2,0.2,0.3,0.3c0,0,0,0,0,0c-0.1,0-0.1-0.1-0.2-0.1c0,0.1-0.1,0.2-0.1,0.2c0,0,0,0-0.1,0
			C3.9,13.5,3.9,13.4,4,13.2z"/>
		<path class="st0" d="M19,7.5c0.2,0.4,0.5,0.4,0.9,0.5c-0.2,0-0.3,0.1-0.6,0.1c0.1,0.2,0.3,0.4,0.4,0.5c-0.1,0-0.2,0.1-0.3,0.1
			c-0.1-0.2-0.1-0.4-0.2-0.6c-0.2,0.2-0.3,0.3-0.4,0.5c0,0,0,0-0.1,0c0.1-0.3,0.5-0.6,0.1-1.1C18.9,7.5,18.9,7.5,19,7.5z"/>
		<path class="st0" d="M18.4,9.7c0.1-0.3,0.2-0.5,0.2-0.8C18.8,9,19,9.1,19.2,9.2c0.1,0.1,0.2,0.3,0.4,0.5
			C19.1,9.7,18.8,9.7,18.4,9.7z"/>
		<path class="st0" d="M14.9,5.5c0.3-0.1,0.7-0.4,0.8-0.6c0.1,0,0.2,0,0.3,0c0.1,0,0.2,0,0.2,0c0.2,0,0.3-0.1,0.5-0.1
			c0.1,0,0.3,0.2,0.5,0.3c-0.1,0-0.2,0.1-0.3,0.1c-0.1,0-0.3,0-0.3,0.1c-0.2,0.1-0.2,0.2,0,0.4c0.1,0.1,0.2,0.2,0.2,0.2
			c-0.1,0.1-0.2,0.2-0.3,0.2c-0.1,0-0.2,0-0.2-0.1c-0.3-0.5-0.5-0.6-1.1-0.3c0,0-0.1,0-0.1,0C15,5.7,15,5.6,14.9,5.5z"/>
		<path class="st0" d="M13.6,3.7c-0.2,0-0.4,0.1-0.6,0.2C13.2,3.5,13.3,3.5,13.6,3.7z"/>
		<path class="st0" d="M3.2,20.2c0-0.2-0.1-0.4-0.1-0.5C3.4,19.8,3.3,20,3.2,20.2z"/>
		<path class="st0" d="M21,5.1c-0.2-0.2-0.4-0.3-0.6-0.5c0.2,0,0.4-0.1,0.6-0.1c0.1,0,0.2,0.2,0.2,0.3c0,0,0,0.1-0.1,0.2
			C21.1,5.1,21,5.1,21,5.1z"/>
		<path class="st0" d="M23.9,6.4c-0.3,0-0.5-0.3-0.6-0.5c0.1-0.1,0.1-0.1,0.2-0.2C23.6,5.9,23.8,6.1,23.9,6.4
			C24,6.4,23.9,6.4,23.9,6.4z"/>
	</g>
	<g>
		<path class="st0" d="M67.7,13.1c0.1-0.4,0.3-0.7,0.4-1.1c0.8-2,1.6-4.1,2.4-6.1c0.2-0.4,0.1-0.4,0.6-0.4c0.3,0,0.6,0,0.9,0
			c0.2,0,0.3,0.1,0.4,0.2c0.7,1.7,1.3,3.4,2,5.1c0.3,0.7,0.5,1.4,0.8,2.1c0,0,0,0.1,0,0.1c-0.3,0-0.6,0-0.9,0
			c-0.3,0-0.6,0.1-0.8-0.1c-0.2-0.1-0.2-0.5-0.3-0.7c0,0,0,0,0,0c-0.1-0.2-0.1-0.6-0.3-0.7c-0.2-0.1-0.5,0-0.7,0c-0.6,0-1.2,0-1.7,0
			c-0.2,0-0.3,0.1-0.4,0.3c-0.1,0.4-0.3,0.8-0.4,1.1c0,0.1-0.1,0.2-0.2,0.2C68.9,13.1,68.3,13.1,67.7,13.1z M71.6,7.8
			C71.5,7.8,71.5,7.8,71.6,7.8c-0.4,0.8-0.6,1.5-0.9,2.3c0.6,0,1.2,0,1.8,0C72.1,9.3,71.8,8.5,71.6,7.8z"/>
		<path class="st0" d="M39.4,13.1c-0.6,0-1.1,0-1.7,0c-0.1,0-0.2-0.1-0.2-0.2c-0.2-0.4-0.3-0.7-0.4-1.1c-0.1-0.2-0.1-0.3-0.3-0.3
			c-0.8,0-1.6,0-2.3,0c-0.2,0-0.3,0.1-0.3,0.2c-0.1,0.4-0.3,0.8-0.4,1.2c0,0.1-0.1,0.2-0.2,0.2c-0.5,0-1.1,0-1.6,0
			c0.1-0.3,0.2-0.6,0.3-0.9c0.8-2.2,1.7-4.3,2.5-6.5c0.1-0.2,0.1-0.2,0.3-0.2c0.4,0,0.8,0,1.2,0c0.1,0,0.2,0,0.3,0.2
			c0.9,2.4,1.9,4.8,2.8,7.3C39.4,13,39.4,13,39.4,13.1z M36.5,10.1c-0.3-0.8-0.6-1.6-0.9-2.3c0,0,0,0-0.1,0
			c-0.3,0.8-0.6,1.5-0.9,2.3C35.3,10.1,35.9,10.1,36.5,10.1z"/>
		<path class="st0" d="M65,13.1c-0.5,0-1.1,0-1.6,0c0,0-0.1-0.1-0.1-0.1c0,0,0-0.1,0-0.2c0-2.3,0-4.7,0-7c0-0.3,0.1-0.3,0.3-0.3
			c1.2,0,2.4,0,3.6,0c0.1,0,0.2,0,0.4,0c0,0.5,0,1,0,1.5c-0.9,0-1.7,0-2.6,0c0,0.5,0,1,0,1.4c0,0,0.1,0.1,0.2,0.1c0.6,0,1.2,0,1.8,0
			c0.2,0,0.3,0,0.3,0.3c0,0.4,0,0.8,0,1.2c-0.1,0-0.2,0-0.3,0c-0.6,0-1.2,0-1.8,0c-0.2,0-0.3,0.1-0.3,0.3c0,0.8,0,1.6,0,2.4
			C65,12.9,65,13,65,13.1z"/>
		<g>
			<path class="st0" d="M55.1,5.5c-0.2,0.6-0.3,1.2-0.5,1.8c-0.5,1.9-1,3.7-1.5,5.6c0,0.2-0.1,0.3-0.3,0.3c-0.5,0-0.9,0-1.4,0
				c-0.2,0-0.3-0.1-0.3-0.3c-0.3-1.2-0.7-2.5-1-3.7C50,9,50,8.9,49.9,8.8c-0.1,0.5-0.3,1-0.4,1.5c-0.2,0.8-0.5,1.7-0.7,2.5
				c-0.1,0.2-0.1,0.3-0.4,0.3c-0.5,0-0.9,0-1.4,0c-0.2,0-0.3-0.1-0.3-0.2c-0.6-2.2-1.2-4.4-1.8-6.6c-0.1-0.2-0.1-0.5-0.2-0.7
				c0.4,0,0.7,0,1.1,0c0.7,0,0.7,0,0.9,0.7c0.4,1.5,0.7,2.9,1.1,4.4c0,0,0,0.1,0.1,0.2c0.2-0.7,0.3-1.3,0.5-1.9
				c0.3-1.1,0.6-2.1,0.9-3.2c0-0.1,0.1-0.2,0.2-0.2c0.3,0,0.6,0,0.9,0c0.2,0,0.2,0.1,0.3,0.2c0.3,1.2,0.7,2.5,1,3.7
				c0.1,0.4,0.2,0.7,0.3,1.1c0,0.1,0.1,0.2,0.1,0.2c0.2-0.6,0.3-1.2,0.5-1.9c0.3-1,0.5-2.1,0.7-3.1c0.1-0.3,0.2-0.3,0.4-0.3
				C54.1,5.5,54.6,5.5,55.1,5.5z"/>
			<path class="st0" d="M62.2,13.1c-0.6,0-1.1,0-1.7,0c-0.1,0-0.2-0.1-0.2-0.2c-0.2-0.4-0.3-0.7-0.4-1.1c-0.1-0.2-0.1-0.2-0.3-0.2
				c-0.8,0-1.5,0-2.3,0c-0.2,0-0.3,0.1-0.3,0.2c-0.1,0.4-0.3,0.8-0.4,1.2c0,0.1-0.1,0.2-0.2,0.2c-0.5,0-1.1,0-1.6,0
				c0-0.1,0-0.1,0-0.2c0.9-2.4,1.8-4.8,2.7-7.2c0.1-0.2,0.2-0.3,0.4-0.2c0.4,0,0.8,0,1.2,0c0.2,0,0.3,0,0.3,0.2
				c0.7,1.8,1.4,3.7,2.1,5.5C61.7,11.8,62,12.4,62.2,13.1z M59.3,10.1c-0.3-0.8-0.6-1.5-0.9-2.4c-0.3,0.8-0.6,1.6-0.9,2.4
				C58.2,10.1,58.7,10.1,59.3,10.1z"/>
			<path class="st0" d="M40.4,13.1c0-2.5,0-5,0-7.6c0.6,0,1.1,0,1.7,0c0,2,0,4,0,6.1c0.1,0,0.2,0,0.3,0c0.7,0,1.3,0,2,0
				c0.2,0,0.3,0.1,0.3,0.3c0,0.4,0,0.8,0,1.3C43.3,13.1,41.9,13.1,40.4,13.1z"/>
			<g>
				<path class="st0" d="M66.1,20.2c-1.4,0-2.3-1-2.3-2.4c0-1.4,1-2.5,2.4-2.5c1.3,0,2.4,1.1,2.3,2.5C68.5,19.2,67.5,20.2,66.1,20.2
					z M67.4,17.7c0-0.2-0.1-0.4-0.1-0.6c-0.2-0.5-0.6-0.8-1.1-0.8c-0.5,0-0.9,0.3-1.1,0.8c-0.1,0.4-0.1,0.8,0,1.2
					c0.2,0.7,0.9,1,1.6,0.8C67,18.9,67.3,18.4,67.4,17.7z"/>
				<path class="st0" d="M57.4,17.5c0.1,0,0.2,0,0.2,0c0.6,0,1.2,0,1.7,0c0.2,0,0.2,0,0.2,0.2c0,0.2,0,0.5,0,0.7
					c-0.1,0.9-0.9,1.7-1.9,1.8c-1.3,0.1-2.2-0.8-2.5-1.8c-0.3-1.2,0.2-2.4,1.3-2.9c0.8-0.4,1.9-0.2,2.6,0.4c0.1,0.1,0.1,0.1,0.2,0.2
					c-0.2,0.2-0.5,0.5-0.7,0.7c-0.1-0.1-0.1-0.2-0.2-0.2c-0.5-0.6-1.4-0.5-1.8,0.1c-0.4,0.7-0.4,1.6,0.2,2.1
					c0.3,0.3,0.7,0.4,1.1,0.2c0.4-0.1,0.6-0.3,0.7-0.7c0,0,0-0.1,0-0.2c-0.3,0-0.6,0-0.8,0c-0.2,0-0.3-0.1-0.2-0.2
					C57.4,17.9,57.4,17.7,57.4,17.5z"/>
				<path class="st0" d="M61.1,18.3c0,0.6,0,1.2,0,1.8c-0.3,0-0.6,0-0.9,0c0,0-0.1-0.2-0.1-0.2c0-1.1,0-2.3,0-3.4c0-0.3,0-0.6,0-0.9
					c0-0.1,0.1-0.2,0.2-0.2c0.6,0,1.2,0,1.7,0c0.7,0,1.2,0.4,1.3,1c0.2,0.7-0.1,1.4-0.7,1.7c-0.1,0-0.1,0.1-0.2,0.1
					c0.5,0.6,1,1.3,1.6,1.9c-0.5,0-0.9,0-1.3,0c-0.1,0-0.1-0.1-0.2-0.2c-0.4-0.5-0.8-1-1.2-1.6C61.2,18.4,61.2,18.3,61.1,18.3
					C61.1,18.3,61.1,18.3,61.1,18.3z M61.1,16.2c0,0.3,0,0.6,0,0.8c0,0.5,0,0.5,0.5,0.4c0,0,0,0,0.1,0c0.3-0.1,0.5-0.3,0.5-0.6
					c0-0.3-0.1-0.5-0.4-0.6C61.5,16.2,61.3,16.2,61.1,16.2z"/>
				<path class="st0" d="M68.9,15.4c0.4,0,0.7,0,1,0c0,0.1,0,0.2,0,0.3c0,0.8,0,1.6,0,2.4c0,0.2,0,0.3,0,0.5
					c0.1,0.7,0.6,0.8,1.1,0.6c0.2,0,0.3-0.2,0.4-0.4c0.1-0.2,0.1-0.4,0.1-0.6c0-0.8,0-1.7,0-2.5c0-0.1,0-0.2,0-0.3c0.4,0,0.7,0,1,0
					c0,0.1,0,0.1,0,0.2c0,1,0,2.1,0,3.1c0,0.5-0.2,1.1-0.7,1.3c-0.7,0.4-1.5,0.3-2.2,0c-0.3-0.1-0.5-0.4-0.6-0.8
					c-0.1-0.3-0.1-0.5-0.1-0.8c0-0.9,0-1.8,0-2.7C68.9,15.6,68.9,15.5,68.9,15.4z"/>
				<path class="st0" d="M73.2,20.1c0-1.6,0-3.2,0-4.8c0.2,0,0.5,0,0.7,0c0.4,0,0.9,0,1.3,0c0.8,0,1.3,0.6,1.3,1.4
					c0,0.8-0.4,1.4-1.2,1.5c-0.3,0-0.6,0.1-0.9,0.1c-0.2,0-0.3,0.1-0.3,0.3c0,0.4,0,0.8,0,1.3c0,0.2,0,0.2-0.2,0.2
					C73.8,20.1,73.5,20.1,73.2,20.1z M74.3,16.8C74.3,16.8,74.3,16.8,74.3,16.8c0,0.2,0,0.3,0,0.5c0,0.1,0.1,0.2,0.1,0.2
					c0.2,0,0.4,0,0.6,0c0.3-0.1,0.5-0.4,0.4-0.7c-0.1-0.4-0.5-0.6-1-0.5c-0.3,0-0.1,0.3-0.2,0.5C74.3,16.8,74.3,16.8,74.3,16.8z"/>
			</g>
			<g>
				<path class="st0" d="M43.3,20.2c-1.4,0-2.4-1-2.4-2.4c0-1.4,1-2.5,2.4-2.5c1.3,0,2.4,1.1,2.4,2.4C45.7,19.2,44.7,20.2,43.3,20.2
					z M42,17.7c0.1,0.2,0.1,0.5,0.2,0.7c0.2,0.5,0.6,0.8,1.1,0.8c0.5,0,0.9-0.3,1.1-0.7c0.2-0.5,0.2-0.9,0-1.4
					c-0.2-0.6-0.8-0.9-1.5-0.7C42.4,16.5,42,17,42,17.7z"/>
				<path class="st0" d="M46.2,15.4c0.7,0,1.4,0,2.1,0c0.6,0.1,1.1,0.5,1.2,1.1c0.1,0.7-0.1,1.3-0.7,1.6c-0.1,0-0.1,0.1-0.2,0.1
					c0.5,0.6,1,1.3,1.6,1.9c-0.5,0-0.9,0-1.3,0c-0.1,0-0.1-0.1-0.2-0.2c-0.4-0.5-0.8-1-1.1-1.5c0-0.1-0.1-0.1-0.2-0.2
					c0,0.3,0,0.5,0,0.8c0,0.3,0,0.6,0,1c0,0.2,0,0.2-0.2,0.2c-0.3,0-0.6,0-0.9,0C46.2,18.5,46.2,17,46.2,15.4z M47.2,17.5
					c0.5,0.1,0.8,0,1-0.3c0.1-0.2,0.1-0.5,0-0.7c-0.2-0.3-0.6-0.3-0.9-0.3C47.2,16.7,47.2,17.1,47.2,17.5z"/>
				<path class="st0" d="M32.3,15.4c0.4,0,0.8,0,1.2,0c0.1,0,0.2,0.1,0.2,0.2c0.2,0.3,0.5,0.7,0.8,1.1c0.2-0.2,0.3-0.4,0.4-0.6
					c0.2-0.5,0.6-0.7,1.2-0.6c0.1,0,0.3,0,0.5,0c-0.2,0.3-0.4,0.6-0.6,0.9c-0.3,0.4-0.5,0.8-0.8,1.1c-0.1,0.1-0.1,0.2,0,0.4
					c0.5,0.7,1,1.4,1.5,2.1c0.1,0.1,0.1,0.2,0.2,0.3c-0.5,0-0.9,0-1.3,0c-0.1,0-0.1-0.1-0.2-0.2c-0.3-0.5-0.6-0.9-1-1.4
					c-0.3,0.5-0.6,0.9-0.9,1.4c-0.1,0.2-0.2,0.3-0.4,0.2c-0.3,0-0.6,0-1,0c0.1-0.1,0.1-0.2,0.2-0.3c0.5-0.7,1-1.4,1.4-2.1
					c0.1-0.1,0.1-0.2,0-0.4C33.3,16.8,32.8,16.1,32.3,15.4z"/>
				<path class="st0" d="M31.8,18.2c-0.4,0-0.9,0-1.3,0c-0.2,0-0.3,0.1-0.3,0.3c0,0.7,0,0.7,0.7,0.7c0.3,0,0.6,0,0.9,0
					c0,0.3,0,0.6,0,0.9c-0.9,0-1.8,0-2.7,0c0-0.1,0-0.2,0-0.2c0-1.4,0-2.8,0-4.2c0-0.2,0.1-0.3,0.3-0.3c0.7,0,1.4,0,2.1,0
					c0.2,0,0.3,0.1,0.3,0.3c0,0.2,0,0.4,0,0.7c-0.4,0-0.8,0-1.2,0c-0.4,0-0.4,0-0.4,0.4c0,0.6,0,0.6,0.6,0.6c0.2,0,0.5,0,0.7,0
					c0.1,0,0.2,0,0.2,0.2C31.8,17.7,31.8,17.9,31.8,18.2z"/>
				<path class="st0" d="M38.3,18.4c0,0.6,0,1.2,0,1.8c-0.4,0-0.7,0-1.1,0c0-1.6,0-3.1,0-4.7c0,0,0.1,0,0.1,0c0.6,0,1.2,0,1.9,0
					c0.7,0,1.2,0.5,1.3,1.1c0.1,0.7-0.1,1.4-0.7,1.6c-0.3,0.1-0.6,0.2-0.9,0.2C38.7,18.4,38.5,18.4,38.3,18.4z M38.3,16.9
					C38.3,16.9,38.3,16.9,38.3,16.9c0,0.2,0,0.3,0,0.5c0,0.1,0.1,0.2,0.1,0.2c0.2,0,0.5,0,0.7-0.1c0.3-0.1,0.4-0.4,0.3-0.8
					c-0.1-0.3-0.6-0.5-1-0.4c-0.3,0.1-0.1,0.3-0.1,0.5C38.3,16.8,38.3,16.8,38.3,16.9z"/>
				<path class="st0" d="M49.8,16.3c0-0.3,0-0.6,0-0.9c1.1,0,2.2,0,3.3,0c0,0.3,0,0.6,0,0.9c-0.3,0-0.5,0-0.8,0
					c-0.2,0-0.3,0.1-0.3,0.3c0,1.1,0,2.1,0,3.2c0,0.1,0,0.2,0,0.4c-0.3,0-0.6,0-1,0c0,0-0.1-0.1-0.1-0.2c0-0.7,0-1.3,0-2
					c0-0.4,0-0.9,0-1.3c0-0.3,0-0.3-0.3-0.3C50.3,16.3,50.1,16.3,49.8,16.3z"/>
			</g>
		</g>
	</g>
</g>
</svg>
