<?xml version="1.0" encoding="utf-8"?>
<!-- Generator: Adobe Illustrator 27.4.0, SVG Export Plug-In . SVG Version: 6.00 Build 0)  -->
<svg version="1.1" id="Layer_1" xmlns="http://www.w3.org/2000/svg" xmlns:xlink="http://www.w3.org/1999/xlink" x="0px" y="0px"
	 viewBox="0 0 1080 1350" style="enable-background:new 0 0 1080 1350;" xml:space="preserve">
<style type="text/css">
	.st0{fill:#5CC7D3;}
</style>
<g>
	<path class="st0" d="M682.3,733.9c2.2-6.8,4.4-13.4,6.8-20.7c-6.3,5.7-6.3,5.7-9.3,2.2c-2.7,0.9-4,2.8-4.7,5.5
		c-1.1,4.4-2.5,8.7-3.8,13.1c-0.3,1-0.9,1.9-1.4,2.8c-0.2-0.1-0.5-0.2-0.7-0.3c1.7-5.7,3.4-11.4,5.2-17.7c-6.8,3-12.9,5.7-19,8.3
		c-5,2-10.1,3.7-15,5.8c-1.1,0.4-2.2,1.8-2.5,2.9c-1,4.1-1.6,8.3-2.4,12.4c-0.7,3.9-0.6,4,3.2,4.5c0.7,0.1,1.4,0.2,2.1,0.3
		c1.3,5.2-0.2,9.5-3.5,13.5c-3.6,4.5-6.6,9.4-10,14c-1.2,1.6-2.7,3.1-4.4,4.3c-21.4,15.8-44.9,27.2-70.8,33.7
		c-0.5,0.1-1,0.1-1.5,0.2c2.5-4.8,5-9.4,7.4-14.1c0.9-1.7,1.6-3.6,2.3-5.4c2.2-6.2,1.6-6.9-4.8-6.9c-20.4,0-40.6-1.9-60.6-5.8
		c-0.8-0.2-1.6-0.1-2.9-0.3c4,14.1,10.2,26.7,20,38.2c-5.3-0.2-9.9-0.4-14.6-0.7c-24.1-1.4-43.5-13.3-61.3-28.2
		c-6.3-5.3-11.8-11.5-17.8-17.2c-0.5-0.5-1.5-0.6-2.4-1c-0.9-1.7-1.9-3.8-3.2-5.6c-17.9-23.7-29.1-50.2-33.5-79.5
		c-3.9-26.2-1.7-51.9,6.8-76.9c12.7-37.2,35.6-66.8,69.4-86.9c53-31.6,107.5-32.4,161.5-3.6c44.1,23.4,70.4,61.3,81.3,109.8
		c7.3,32.3,3.7,64-7.4,94.9C689.5,733.3,689.5,733.3,682.3,733.9z M419.5,654.7c0.5-0.4,1-0.8,1.4-1.2c-6.5-4.6-13.1-9.2-19.8-13.8
		c-0.3,0.7-0.6,1.3-0.7,1.8c-3.4,16.7-3.4,33.6-2.1,50.5c0.1,1.4,1,3,2.1,3.9c4,3.2,8.2,6.3,12.5,9.2c1.3,0.9,3.8,0.6,4.5,1.7
		c3.1,4.8,8.6,5.3,13,8.7c0.1-2.5,0.5-4.4-1.6-4c0.4-1.5,1.1-3.1,1-4.7c-0.6-15.1-0.1-30.1,2.5-45.1c0.2-0.9-0.7-2.7-1.5-3
		c-3.7-1.6-7.6-2.8-11.5-4.2C419.4,654.5,419.5,654.7,419.5,654.7z M640,675.1c-0.7,0-1.1-0.1-1.5,0c-15.9,4.2-32,6.9-48.3,8.7
		c-5.3,0.6-5.4,0.6-5.2,6.3c0.1,3-2.1,7.3,3.4,8.1c-1.1,0.1-2.2,0.3-3.5,0.4c0,8.5,0,16.8,0,24.7c2.1,0.6,4.1,1,5.8,1.9
		c1.4,0.7,2.4,2,3.6,3c0.9,0.7,2.1,1.2,2.7,2c1.9,3.3,4.8,3.5,8.2,3.8c2.8,0.2,5.5,1.8,8.3,2.7c1.1,0.4,2.3,1.1,3.3,0.8
		c4.6-1,9.7-0.8,12.9-5.5c-0.4,0.8-0.9,1.6-1.5,2.9c2.5-0.7,4.5-1.3,6.4-1.7c1.9-0.4,2.8-1.3,2.9-3.3c0.4-4,1.2-7.9,1.4-11.9
		c0.6-13.2,1-26.3,1.5-39.5C640.4,677.4,640.2,676.3,640,675.1z M483.7,734.1c-0.3,0.7-0.4,0.9-0.4,1.1c0.9,16.1,3.4,32,7.8,47.5
		c0.3,1,1.9,2.1,3,2.4c4.7,1,9.5,1.7,14.3,2.5c15.7,2.4,31.5,3.6,47.5,3.5c1.2,0,2.4-0.3,4.3-0.5c-4.6-3.7-8.6-6.9-12.6-10.1
		c-0.4-0.3-0.9-0.7-1-1.1c-0.5-1.4-0.5-3.3-1.5-4.2c-0.9-0.8-2.7-0.7-4.2-1c2.9-2.5,1.8-5-0.4-7.4c-0.6-0.6-1.1-1.2-1.6-1.9
		c-1.9-2.4-2.2-4.8,0.1-7.1c0.5-0.5,0.8-1.1,1.3-1.8c-2.5-2.1-1.6-4,0.1-5.9c1.9-2.1,3.7-4.2,6.1-6.9c-2.1,0-3.6,0.1-4.9,0
		c-12.5-1.4-24.9-2.9-37.4-4.4c-1.2-0.1-2.4,0.1-4.3,0.1C495.7,735.5,489.4,735.8,483.7,734.1z M585.1,683.1
		c3.8-0.4,7.2-0.7,10.7-1.3c14-2.5,27.9-5.2,41.9-7.8c1.6-0.3,2.6-1,2.4-2.9c-0.6-5.6-0.9-11.3-1.5-16.9c-0.1-0.8-0.9-1.8-1.6-2.3
		c-1.6-1-3.3-1.7-5-2.4c0.2-0.4,0.4-0.9,0.6-1.3c1.8,0.7,3.6,1.3,5.8,2.1c-1.1-5.9-2.3-11.9-3.6-17.9c-0.1-0.6-1.2-1-1.8-1.4
		c0.3-0.6,1.1-1.5,0.9-2.3c-0.4-2.5-1.1-5-2-7.5c-0.2-0.5-1.5-1-2.1-0.9c-3.2,0.9-6.8,0.9-9,4.1c-0.4,0.6-1.2,0.9-1.8,1.3
		c-0.1-0.1-0.2-0.2-0.3-0.4c0.7-0.8,1.5-1.6,2.7-2.9c-6.8,1.3-13,2.5-19.7,3.8c1.5,1.2,2.5,2,3.4,2.8c-1.5-0.1-2.5-1-3.7-1.5
		c-1-0.5-2.1-0.9-3.1-0.8c-4.5,0.4-9,1-13.5,1.7c-1,0.2-2.5,1-2.8,1.8c-1,2.7,0.6,6.2,3.2,7.8c1.3,0.8,2.8,1.5,4,2.4
		c2.4,1.8,4.8,2.2,7.7,0.8c1.4-0.6,3.4,0,5.1,0c-1.1,1.2-2,3-3.4,3.6c-3.5,1.3-4.5,3.8-4.9,7.1c-0.3,2.1-0.8,4.3-1.3,6.4
		c-0.2,1.1-0.7,2.2-1,3.2c-0.3-0.1-0.5-0.1-0.8-0.2c-0.3-3.9-0.6-7.9-0.9-11.8c-5.6,0.6-5.8,0.9-5.6,6c0.4,7.7,0.6,15.5,0.9,23.2
		C584.9,680.1,585,681.4,585.1,683.1z M442.3,720.8c0.7-4,1.3-7.4,1.9-10.8c0.2,0,0.5,0,0.7,0.1c0.7,3.9,1.3,7.9,2,12
		c4.7-1.5,9.7-2.2,10.2-8.4c1.7,3.2,3.2,6,4.8,9.1c-3.2-0.7-6.8-2.5-9.4,2.3c9.6,2.6,19.1,5.1,29.4,7.9c-1.4-6.8,1.7-13.2-3.1-18.6
		c0.7,0.4,1.4,0.8,3,1.8c-0.6-2.8-0.9-4.7-1.4-6.9c0.2-0.7,0.9-1.8,1-3c0.4-3.3,0.8-6.6,0.7-9.9c0-1.8-0.7-3.6-1.3-5.4
		c-0.6-1.8-2.4-3.7-2.1-5.3c0.7-3.8-0.9-6.6-2.3-9.7c-1-2.2-2.1-2.8-3.8-0.9c-0.4-0.6-0.7-1.2-1.5-2.3c-0.2,2-0.3,3.2-0.4,4.5
		c-2.2-3.7-4.9-6.3-9.4-6.8c-3.8-0.4-7.5-3.8-11.8,0.3c0.6-1.5,1-2.3,1.3-3.1c-5.6-2.4-11-4.8-16.8-7.3c0,3,0,5.2,0,7.5
		c-0.4,0.7-1.3,1.6-1.4,2.5c-1.7,14.6-1.8,29.2-0.6,43.8c0.1,0.9,0.7,2,1.4,2.4C436.1,718.1,439,719.3,442.3,720.8z M565.2,726.3
		c0.2,0,0.5,0,0.7,0c0.2-0.4,0.5-0.9,0.6-1.4c0.8-4.1,2.1-4.6,5.8-3.2c2.7,1.1,5.7,1.6,8.6,2.1c0.7,0.1,2.2-1.1,2.2-1.7
		c0.2-5.9,0.1-11.9,0.1-18.1c-1.2-0.1-2.3,0-3.4-0.2c-1-0.1-1.9-0.4-2.9-0.7c0-0.2,0.1-0.4,0.1-0.6c2,0,4.1,0,6.6,0
		c0-5.7,0-11.1-0.1-16.5c0-0.5-1.1-1.5-1.7-1.4c-5,0.2-10.1,0.6-15.3,1c0,1,0,1.8,0,2.6c-0.7-2.8-2.7-2.7-4.8-2.6
		c-18.8,0.3-37.5-1.5-56-5.1c-6.5-1.3-7.1-0.7-6.8,6.1c0,0.1,0,0.2,0,0.3c0.4,7.2,8.1,12.7,15,10.8c0.7-0.2,1.9-0.7,2-1.1
		c0.5-2.8,2.1-4.6,4.7-5.4c1.1-0.3,2.9-0.7,3.4-0.2c0.9,0.9,1.7,2.7,1.4,3.9c-0.6,2.4-1.9,4.5-2.9,6.8c-1.1,2.5-0.3,3.7,2.3,4.4
		c3.4,0.9,6.8,1.9,10.1,3.3c1.9,0.8,2.3,2.6,0.8,4.6c-2,2.6-2.8,5.8-0.9,8.7c1.9,2.9,5,3.5,8.5,3c2-0.3,4.1,0.6,6.1,0.9
		c0.9,0.1,2,0.2,2.6-0.3c2.7-2.1,5.3-4.5,7.9-6.7c-0.4-0.4-0.9-1.1-1.8-2.2c2.7,1.2,4.7,2.2,7,3.2
		C565.2,722.5,565.2,724.4,565.2,726.3z M489.1,784.3c0.2-0.9,0.3-1.1,0.3-1.3c-2.3-13.5-4.7-27-7.1-40.5c-0.1-0.7-1.1-1.3-1.8-2.2
		c0.3-0.5,1-1.3,1.2-2.3c0.3-1.9,1-3.8-2-4.6c-9.3-2.4-18.5-5-27.8-7.4c-0.7-0.2-1.6,0-3.3,0c3.7,3.5,6.6,6.2,9.5,9
		c-0.2,0.2-0.3,0.4-0.5,0.7c-3.1-1.5-6.3-2.9-9.3-4.6c-2.7-1.5-5.2-2.2-8.1-0.5c-1.5,0.9-3.4,1.1-5.4,1.6c3.1,13.1,6.8,26.1,13,38.2
		c0.5,1,1.7,1.9,2.7,2.3c6.3,2.4,12.5,4.9,18.9,6.8C475.9,781.4,482.5,782.7,489.1,784.3z M578.7,657.1c-1.5-3.3-2.8-6.3-4.3-9.7
		c1.5,0.6,2.7,1,3.8,1.5c1.7,0.7,3.6,0.3,3.5-1.6c-0.3-4,0.6-8.3-2.5-11.7c2.6-2,0.6-4.2,0.6-6.5c-3.2,0.3-6.2,0.4-9.1,0.8
		c-0.6,0.1-1.6,1.6-1.5,2.3c0.5,3-1,5-3.5,5.4c-3.8,0.6-4.9,3.6-6.6,6.1c-1.4,2-0.5,4.3,1.6,5.1c-0.7,0.6-1.9,1.2-2.1,2
		c-0.8,3.7-3.9,5.1-6.4,7.1c-1.9,1.6-4.1,2.8-5.8,4.5c-2.2,2.2-3.2,4.9-2,8.2c1.7-1,3.1-1.8,4.6-2.7c0.1,0.2,0.3,0.4,0.4,0.7
		c-1.5,1-3,2-4.6,3.1c0.7,2.2,1.7,4.5,2.2,6.9c0.6,3.1-1.5,4.7-4.5,3.6c-3-1-4.7-4-4.1-7.3c0.6-3.4-2-6.7-5.7-7
		c-0.4,1.6-0.8,3.2-1.3,4.8c-0.2,0-0.4-0.1-0.5-0.1c0.2-1.6,0.4-3.2,0.6-5.2c-3.8,0.5-7.8-4.3-11,1.3c-1.7-0.5-3.3-0.9-4.9-1.4
		c-8.4-3-12.9,2.4-14.7,8.1c-0.6,2-0.2,2.8,1.9,3.1c6.7,1.1,13.4,2.2,20.1,3.3c5.1,0.8,5.1,0.8,6.6-3.7c0-0.1,0.3-0.1,0.8-0.3
		c-0.1,1.3-0.3,2.5-0.4,4c1.4-0.9,2.5-1.7,3.6-2.4c0.1,0.1,0.2,0.3,0.3,0.4c-0.8,0.9-1.6,1.8-2.8,3c17.6,1.9,34.8,1.7,52.2,0.2
		c0.1-10.6-0.2-20.9-1.2-31.1c-0.3,0-0.7-0.1-1-0.1C580.3,653.6,579.5,655.3,578.7,657.1z M654.5,667.6c1.5-0.2,2.8,0,3.9-0.5
		c5.2-2.2,10.4-4.6,15.6-6.7c2.9-1.1,3.4-2.8,3-5.7c-1.8-13.7-5.7-26.8-10.3-39.7c-1-2.9-2.2-5.6-3.1-7.9c-10,4-19.6,7.8-29.2,11.5
		c-1.7,0.7-1.4,1.6-1.1,2.9c1.1,4.8,3.2,9.3,3.7,14.3c0.4,4.5,1.5,8.9,2.1,13.4c0.4,2.8,0.6,5.5,3.6,6.9c0.9,0.4,1.7,0.9,2.6,1.4
		c-0.4,0.4-0.7,0.7-1.1,1.1c-1.2-0.7-2.5-1.5-4.1-2.5c0.5,5.7,1,11,1.4,16.3C648,671.5,653.8,669.1,654.5,667.6z M659.5,718.6
		c-0.1,0.3-0.1,0.5-0.2,0.8c-3.7-0.5-7.5-1-11.2-1.4c-1.1-0.1-2.4,0.1-3.4,0.7c-5.2,2.8-5.8,7.6-5.7,12.8c0.3,0.1,0.5,0.2,0.7,0.1
		c11.2-4.7,22.4-9.4,33.6-14.1c0.7-0.3,1.6-1,1.7-1.6c0.6-4.5,1.1-8.9,1.5-13.4c0.2-2.8-0.2-5.7,0.2-8.4c0.4-2.6,0.6-4.8-3.1-5.9
		c3.4-1.5,3.3-3.9,3.3-6.6c0-4.5,0.7-9,1-13.5c0.1-2.4,0-4.8,0-7.6c-6.9,3-13.3,5.8-19.7,8.5c0.3,0.8,0.6,1.3,0.6,1.2
		c-1.9,0.1-3.8,0-5.6,0.5c-3,0.8-5.8,2.1-8.8,2.8c-2.1,0.5-2.5,1.6-2.4,3.5c0.1,7.9,0.1,15.9,0.1,23.8c0,4,2.8,6.6,4,10
		c3.9-2.9,7.6-5.2,6.4-10.4c2.5,2.3,4.6,4.3,6.9,6.4c-2.1,0.3-3.9,0.5-6.5,0.9c1.4,1.1,2,1.5,2.6,1.9c-3.7-0.9-4.5,1.9-6,4.3
		C652.8,715.6,656.1,717.1,659.5,718.6z M630,613.6c-5.7-12.1-11.9-25.3-18.2-38.3c-0.3-0.7-2.2-1.1-3.2-0.9
		c-8,1.5-15.9,3.4-23.9,4.9c-4.8,0.9-9.6,0.9-14.4,1.7c-1.2,0.2-2.4,1.6-3.3,2.6c-0.3,0.4,0,1.9,0.3,2c1.3,0.5,2.7,0.7,4.1,0.8
		c0.6,0,1.2-0.7,1.8-1.1c2.6-1.8,3.9-1.7,5.6,1c1.4,2.2,2.3,4.6,3.8,6.7c0.8,1.2,2.1,2.1,3.4,2.8c2.2,1.2,4.5,2.1,6.7,3.2
		c0.3,0.1,0.5,0.6,0.6,1c1,3.9-4.7,9.7-8.6,9.2c-2.3-0.3-5.1-0.3-7.1,0.6c-3.1,1.4-5.9,3.7-8.7,5.8c-0.8,0.6-1.1,1.7-2.1,3.2
		c4-2.2,7.1-4,10.4-5.8c-0.3-0.3-0.7-0.9-1.5-1.8c2.3,0.9,4,1.6,6.1,2.5c-1.2,0.6-2,1-2.8,1.4c2.6,7.1,5.1,8.9,12.3,5.5
		c-2.4,2.1-4.4,3.9-6.4,5.8c0.2,0.3,0.4,0.6,0.6,0.9c9.2-1.5,18.5-2.8,27.7-4.6C619.1,621.6,625.9,621.6,630,613.6z M407.9,618.8
		c-2.1,5.9-4.1,11.6-6,17.3c-0.2,0.7,0.5,2.2,1.3,2.7c4.5,3.5,9,6.9,13.6,10.1c2.3,1.6,4.8,3,7.4,4.6c0.6-1.7,1-3,1.4-4.2
		c0.2,6,1,6.8,7.6,6.8c1.9-7.8,3.9-15.7,5.9-23.6c-1.6-0.7-3.2-1.3-4.8-2c0.1-0.2,0.2-0.4,0.2-0.6c1.6,0.6,3.2,1.1,4.7,1.6
		c3.5-8.1,6.9-16,10.3-23.9c0.8-1.8-0.7-2.9-1.5-2.4c-1.9,1.1-2.5-0.3-3.5-1.1c-1.1-0.7-2.1-1.5-4-2.8c-0.6,3.2-1.1,5.7-1.5,8
		c-1.1-0.4-2.8-1-3.8-1.4c1.1-2.2,2.3-4.5,3.7-7.3c-3-0.2-5-0.3-7-0.4c0-0.2,0-0.3-0.1-0.5c1-0.4,1.9-0.8,3.2-1.4
		c-4.1-2.7-8-5.2-12.4-8.1c-4.9,9.3-9.6,18.2-14.4,27.2c1.8,1.1,2.9,1.8,4,2.5c-0.1,0.2-0.2,0.3-0.3,0.5
		C410.8,619.9,409.7,619.5,407.9,618.8z M522.9,735.5c0,0.9,0.1,1.8,0,2.7c-0.1,1.6,0.6,2.2,2.1,2.3c6.7,0.4,13.4,0.9,20,1.5
		c2.5,0.2,3.4-0.8,3.3-3.2c-0.2-2.8-0.1-5.6-0.5-8.3c-0.2-1.2-1.3-2.9-2.3-3.2c-1.2-0.3-3,0.3-4.1,1.1c-3,2.4-3,2.4-5.8-0.4
		c-1.1-1.1-2.9-2.3-4.3-2.2c-2.9,0.2-3.9-0.9-4.3-3.5c-0.3-1.7-0.9-3.3-1.3-5c-0.2,0.1-0.5,0.1-0.7,0.2c-0.3,1.1-0.6,2.1-0.8,3.2
		c-0.5-1.4-0.6-2.6-0.3-3.8c0.5-2-0.5-2.7-2.2-2.7c-5.7,0-9.3-3.3-12.4-7.5c-0.7-1-2.2-1.7-3.4-1.9c-2.6-0.4-5.5,0.1-7.8-0.8
		c-3.1-1.2-5.8-3.5-8.6-5.3c-1.7-1.1-3.4-2.1-5.5-3.5c-0.3,3.3-0.3,6-0.8,8.6c-0.5,2.5,0,4.9-0.2,7.4c-0.6,6.6,0,13.4,0.3,20.1
		c0,0.6,0.6,1.1,0.9,1.7c0.6-0.3,1.3-0.6,1.7-1c0.8-0.9,1.4-1.9,2.1-2.8c0.2,0.1,0.4,0.2,0.5,0.3c-0.6,1.2-1.2,2.5-1.8,3.7
		c0.3,0.2,0.6,0.5,0.8,0.6c9.7,2,19.4,4.1,29.1,5.9C521.6,740.3,521.6,740.1,522.9,735.5z M548.6,571c-0.3,0.4-0.6,0.9-0.8,1.3
		c-1.4-0.5-2.8-1.1-4.2-1.5c-1.4-0.3-3.3-1.1-4.2-0.5c-4,2.6-7.6,5.7-11.4,8.6c0.1,0.5,0.3,1,0.4,1.4c6.6,0,13.1,0,19.7,0
		c2.3,0,4.6,0.2,4.7-3.2c0-0.7,0.8-1.3,0.9-1.3c3,0.6,5.5,1.1,7.9,1.6c1.1,0.2,2.7,0,3.2,0.7c1.7,2.1,3.8,1.5,5.9,1.3
		c1.6-0.1,3.3-0.2,4.9-0.5c7-0.9,14-1.9,21.8-2.9c-5.4-3.5-9.5-6.9-11-12.6c-0.8-2.9-2-5.7-3.1-8.5c-0.2-0.4-0.7-0.7-1.1-0.9
		c-1.6-1-3.2-1.9-5-3c-1.5,2.6-2.6,1.3-3.6-0.5c-0.3-0.5-0.6-0.9-0.8-1.3c-2-5.1-5.7-7.3-11.2-6.6c-0.7,0.1-1.4-0.2-2-0.2
		c-0.2-1.6-0.4-2.9-0.6-4.5c0.7-0.3,1.7-0.7,2.5-1.1c0-1.1,0-2.1,0-3.2c-3.5-0.1-6.6,0.2-8.6,3.3c1.5,2.3,1.4,3-1.3,4.4
		c-1.4,0.7-2.4,1.3-2.1,3.1c0.1,0.6-0.4,1.3-0.6,2c-5.1-2.2-6.5-3.7-6.3-6.4c1.3-0.1,2.6-0.3,4.3-0.4c-2.6-3-5-4.4-8.7-4.9
		c-6.4-1-9.4,1.4-12.1,6.8c-2.4,5-3.2,9.3,1.2,14c-2.8-0.4-5.1-0.8-7.5-1.2c-0.6,1.2-1.1,2.4-1.9,4.2c3.9,0.5,7.3,1.2,10.6,1.2
		c1.7,0,3.3-1.4,5-2.2c-1.4-2.1,1.6-6.1-3.4-6.6c3.4-1.6,3.8-1.2,5.5,1.2c1.3,1.9,1.4,3.8,1.8,5.9c0.3,1.6,2.1,2.8,3.2,4.2
		c1.6-1.4,3.5-2.6,4.9-4.2c0.7-0.9-2.1-5.4-3.5-5.9c-0.8-0.3-1.5-0.5-2.5-0.8c0.2-1.2,0.3-2.3,0.6-3.7c2.5,0.2,4.8,0.4,7.1,0.7
		c1.9,0.2,4.6-0.2,5.6,0.9c2.9,3.1,6.3,3.5,10.1,3.7c2.2,0.1,3,1.1,1.7,3.2c-2.1,3.6-5,4.6-9.5,3.3c-1.9-0.5-3-1.3-1.4-3.3
		c-4.2-0.8-6.4,0.7-5.9,4.2c0.3,2.1-0.5,3-1.8,4.1c-0.6,0.5-1,1.2-1.4,1.6C546.1,567.9,547.3,569.5,548.6,571z M651.8,590.7
		c-0.3-0.2-0.5-0.4-0.8-0.6c2.6-2.3,1.6-4.4-0.1-6.5c-5-6.3-10-12.6-14.9-18.9c-1.1-1.4-2-1.5-3.6-0.6c-4.5,2.4-9.2,4.6-13.9,6.8
		c-1.8,0.9-3.8,1.5-5.4,2.2c-0.1,0.5-0.1,0.7-0.1,0.7c6.3,14.1,12.5,28.2,18.9,42.3c0.3,0.7,1.9,1.4,2.4,1.2
		c8.9-3.6,17.7-7.3,26.5-11.1c0.6-0.3,1.4-1.6,1.2-2c-2.5-5.3-5.2-10.6-7.9-15.8c-0.3,0-0.7,0-1,0
		C652.7,589.1,652.3,589.9,651.8,590.7z M445.2,770.5c0.2-0.3,0.4-0.6,0.6-0.8c-0.8-2-1.7-4-2.5-6c-5.6-13.5-9.4-27.5-11.8-41.9
		c-1-6.3-4.7-8.8-10.6-6.6c-0.5,0.2-1.1,0.3-1.6,0.4c-0.1-0.1-0.1-0.3-0.2-0.4c1.2-0.7,2.5-1.4,4.3-2.4c-2.6-1.2-4.5-2-7.2-3.2
		c-0.9-2.7-8.5-6.8-13-5.6c1.3,2.2,2.5,4.2,3.7,6.2c-0.9,0.4-2.3,1.2-3,1.5c-0.7-2.1-1.4-4.4-2.1-6.7c-0.4,0.1-0.9,0.2-1.3,0.3
		c0.7,3.7,1.3,7.4,2.2,11c0.3,1.2,1.5,2.2,2,3c-0.1,1.2-0.7,2.6-0.3,3.7c2.1,6.7,4.4,13.3,6.7,19.9c0.2,0.7,0.8,1.3,1.2,2.2
		c1.6-1.2,3-2.2,4.7-3.4c0.5,1.7,0.9,3.2,1.4,4.7c-0.2,0.1-0.4,0.1-0.6,0.2c-0.5-0.9-0.9-1.8-1.7-3.4c-0.3,2.5-0.5,4.1-0.7,5.8
		c-0.2,0-0.3,0-0.5-0.1c-0.2-1.2-0.3-2.3-0.5-3.5c-0.3,0-0.5-0.1-0.8-0.1c-0.2,0.7-0.6,1.4-0.5,2.1c1,4.3,2.8,6.5,5.9,7.3
		c0-0.9,0.1-1.8,0.1-2.7c0.1,4.6,3.7,6,6.8,7.7C432.2,763.5,438.7,767,445.2,770.5z M508.6,823c-0.6-1-0.9-1.5-1.2-1.8
		c-6.5-8-11.3-16.9-14.2-26.6c-1.9-6.5-4.7-9.8-11.7-10.8c-7.5-1-14.7-3.6-22-5.5c-0.9,1.6-1.8,3.1-2.7,4.6
		c-0.2-0.1-0.4-0.2-0.6-0.4c0.7-1.5,1.4-3.1,2.3-4.9c-2.7-1.1-5.4-2.2-8.3-3.4c0.1,0.8,0.1,1,0.2,1.2c7,13.5,15.8,25.8,25.7,37.4
		c0.5,0.5,1,1.1,1.6,1.4C487.5,818.4,497.3,821.8,508.6,823z M450.4,604.8c4.8-8.6,9.2-16.3,13.6-24c1.2-2.2,3.5-3.8,1.8-7
		c-0.6-1.1,0.6-3.3,1.1-4.9c0.3-1,1.1-1.9,1.2-2.2c-1.3-0.8-3.1-1.2-3.4-2.1c-1.3-4.6-5.8-5.4-8.5-8.4c-0.8,1-1.3,1.8-1.8,2.3
		c-1.7-0.1-3.1-0.2-5.2-0.4c0.7,1.1,1.1,1.5,0.9,1.3c-2.1,1.6-4.3,2.8-5.8,4.5c-6.8,8.1-13.5,16.3-20.6,25c4.7,3,8.8,5.8,13.1,8.2
		c0.7,0.4,2.5-0.7,3.4-1.5c1-0.8,1.5-2.2,2.5-3.8c1.6,3.1-1.8,6,1,8.1C445.9,601.7,448.1,603.2,450.4,604.8z M492.6,526.2
		c-2.2-0.9-4.2-1.6-6-2.5c-2.5-1.3-4.7-1.1-7.3,0c-14.1,6.1-27.1,14-38.8,23.9c-10,8.4-18.8,17.9-26.5,28.5
		c-0.6,0.8-0.8,2.6-0.3,3.1c2.8,3.1,5.9,6,9,9.1c7.2-9.1,14.1-17.7,20.9-26.3c-2.4-0.1-4.7-0.2-7-0.3c0-0.3,0-0.6,0-0.9
		c2.7-0.3,5.4-0.8,8.2-1c3.1-0.2,3.5-0.8,2.8-3.6c-0.8-3.2,3.3-8.2,6.1-7.4c3.6,0.9,6.2-0.3,7.7-3.7c1.5-3.5,4.1-4.4,7.4-2.5
		c0.9-3.1,3.2-4.1,5.9-5.5C480.7,533.9,486.4,530,492.6,526.2z M453.3,637.2c0.5-1.1,1.2-2,1.1-2.9c-0.5-5.8-0.9-11.5,2.2-16.9
		c1.4-2.4,2.3-5,3.5-7.7c-3-1.1-5.6-2.1-8.4-3.2c-1.1,2.3-2,4.2-2.9,6.2c-6.4,13.8-11,28.2-13.8,43.2c-0.3,1.4-0.9,2.8,1.1,3.6
		c4.8,2,9.6,4.2,14.4,6.3c1.8,0.8,2.6-0.1,3.3-2.4c-2.9-0.5-5.4-0.9-7.7-1.3c0.4-1.1,1.1-2.9,2-5.1c0.9,4.1,3.9,3.8,7,4.2
		c0-2.5,0-4.8,0-7.6c2.8,3.5,0.9,9.1,7.1,10.3c-0.3-2.2-0.5-4.1-0.7-5.9c-0.4-2.5-1.4-5.1-1.2-7.5
		C460.7,644.1,455.5,641.3,453.3,637.2z M472.3,811.9c0.2-0.3,0.3-0.6,0.5-0.8c-0.1-0.2,0-0.4-0.2-0.6c-9.7-10.9-17.3-23.3-24.4-36
		c-0.6-1.1-1.8-1.9-2.8-2.5c-8.9-5-17.8-9.8-26.8-14.7c-0.3-0.2-0.7-0.2-1.6-0.5c0.9,1.8,1.5,4,2.3,4.1c2.4,0.3,1.8,1.9,2.2,3.2
		c0.5,1.7,1.2,3.3,1.9,4.8c6.1,12.3,15.2,22,26.6,29.5C457.2,803.2,464.8,807.4,472.3,811.9z M411.6,580c-0.2,0-0.4,0-0.4,0.1
		c-9.2,13.2-15.7,27.7-20.4,43.1c-0.3,0.9-0.3,2.3,0.2,2.9c2.7,3.4,5.7,6.7,8.6,10.1c3.4-8.4,6.3-16.5,9.9-24.2
		c3.6-7.7,7.8-15.1,11.8-22.8C418.3,586.3,414.9,583.1,411.6,580z M396.2,692.6c0.3-0.9,0.5-1.1,0.5-1.4c0-1.3-0.1-2.7-0.2-4
		c-0.9-15.1-0.8-30.1,2.3-44.9c0.7-3.2,0.4-5.3-2.3-7.4c-2.5-2-4.4-4.7-6.8-7.3c-0.3,1-0.4,1.5-0.6,1.9c-3.7,14.2-4.7,28.6-5,43.2
		C383.9,682.3,390.7,686.6,396.2,692.6z M587.1,526.5c1.2,0.8,2.1,1.4,3.1,1.9c13.7,7.7,26.6,16.5,38.2,27.2c7,6.4,7.2,6.4,13.6-0.9
		c0.1-0.2,0.3-0.3,0.4-0.5c1.5-1.4,1.2-2.5-0.3-3.8c-13.4-11.7-28.3-20.9-44.7-27.6c-0.8-0.3-1.9-0.6-2.6-0.3
		C592.3,523.7,589.9,525,587.1,526.5z M633.5,562.5c-1.1-1.3-1.5-1.7-1.9-2.2c-13.2-12.4-27.9-22.9-43.8-31.6
		c-3.1-1.7-6.6-1.1-9.9,2.3c3.2,1.3,6.1,2.4,9,3.6c1.2,0.5,3.3,1,3.4,1.7c0.4,2.9,2.8,3.3,4.6,4.5c3.5,2.4,7,4.7,10.3,7.3
		c2.5,1.9,2.4,6.1,0,6.5c-3.1,0.5-2.2,2.2-1.3,3.7c2.3,4,4.7,8,7.2,11.9c0.4,0.6,1.8,1.2,2.4,1C620,568.5,626.5,565.6,633.5,562.5z
		 M664.2,604.2c2-1.3,3.9-2.5,5.7-3.8c0.4-0.3,1-1,0.9-1.5c-0.3-3.1-0.5-6.3-1.3-9.3c-0.6-2.1-1.3-4-0.4-6.2c0.3-0.8,0-2.2-0.5-3
		c-2.2-3.3-4.7-6.5-7-9.8c-1.3-1.8-2.4-3.4-5.2-2.9c-1,0.2-2.7-1.1-3.5-2.1c-1.8-2.3-3.3-5-4.9-7.5c-0.9-1.4-1.8-2.9-2.6-4.3
		c-3.3,3-6.3,5.8-9.4,8.5c6.4,8.2,12.7,16.3,19.1,24.5c1.6-1.6,3.2-3.1,4.7-4.6c-0.3-0.3-0.5-0.5-0.8-0.8c-0.7,0.5-1.4,1.1-2.7,2
		c1-1.9,1.6-3.1,2.1-4.1c1.8,1.5,4,2.8,5.5,4.6c1.5,2,2.4,4.4,3.2,6.8c0.2,0.7-1.1,1.9-1.9,3.2c-1.4-2-2.3-3.2-3.1-4.4
		C658.6,595.1,660.9,599.5,664.2,604.2z M412.5,750.7c-1.2-3-2.2-5.4-3-7.7c-2.8-7.5-6-14.9-8.1-22.6c-1.9-7.1-2.6-14.5-3.9-21.8
		c-0.2-1.4-0.4-3.1-1.2-4c-3.4-3.7-7-7.1-11.1-11.2c0.1,2.1,0.2,3.5,0.3,4.9c2.1,16.6,6.6,32.5,13.6,47.7
		C401.9,741.9,406.6,746.4,412.5,750.7z M528.5,534.3c-5.5-0.9-10.3-1.8-15.2-2.5c-0.9-0.1-2,0.4-2.8,1c-4.6,3.8-9.2,7.7-13.6,11.7
		c-0.9,0.8-1.3,2-2.2,3.4c8.2-0.6,12.6,3.6,15.7,9.7c2.2-2.3,2.7,1.5,4.8,1.1c0.6-1.1,1.5-2.6,2.4-4.3c-2.6-0.3-4.7-0.5-6.8-0.7
		c0-0.2,0.1-0.4,0.1-0.6c0.7-0.2,1.4-0.5,2.9-1c-2.2-0.5-3.6-0.9-4.5-1.1c1.4-1.2,2.9-2.5,4.3-3.7c-1.2-1.1-2.4-2.2-3.9-3.6
		c0.9-0.5,1.8-1.3,2.7-1.4c3.6-0.1,7,0.6,10.2,3C524.5,541.7,526.4,538.2,528.5,534.3z M527.5,581.7c0.8,2.3,1.5,4.6,2,6.1
		c1.7,0.5,2.8,0.5,3.6,1.1c1.9,1.4,3.6,3.1,5.5,4.5c0.7,0.5,1.6,0.8,2.5,0.9c1.8,0.3,3.6,0.4,4.7,0.5c0.2,3,0.1,5.2,0.7,7.3
		c0.5,1.9,1.7,4.2,4,3.2c1.1-0.5,1.4-3.1,1.6-4.8c0.1-0.7-1-1.6-1.5-2.3c1.5-1.7,3-3.4,4.6-5c4.2-4-2.1-6.1-1.8-9.5
		c0-0.6-1.7-1.9-2.7-2C543,581.6,535.3,581.7,527.5,581.7z M509.6,531.4c-4.9-1.5-9.3-2.9-13.8-4.2c-0.4-0.1-0.9-0.2-1.2,0
		c-5.3,2.9-10.5,5.8-15.8,8.6c0.1,0.3,0.2,0.5,0.3,0.8c1,0,2.1-0.2,2.9,0.2c1.9,0.8,3.8,1.7,5.3,3.1c1.7,1.5,2.8,3.6,4.4,5.3
		c0.4,0.4,1.9,0.4,2.3,0C499.1,540.7,504.2,536.2,509.6,531.4z M613.1,748.7c0.3,0.3,0.5,0.6,0.8,0.9c1.2-0.7,2.4-1.5,4.1-2.6
		c-0.2,1.6-0.3,3.1-0.4,4.4c1.4-0.9,2.9-2.6,4.3-2.6c1.7,0.1,3.3,1.7,4.9,2.6c2,1.1,6.5,0.3,6.9-1.4c1.2-5.1,2.1-10.2,3.2-15.9
		c-7.4,1.8-14.2,3.5-21.3,5.2C617,743.1,616.1,746.2,613.1,748.7z M683.9,608.8c-3.8,2-4.1,4.1-2.6,6.8c0.6,1.2,1.2,2.4,1.6,3.7
		c0.8,2.6,1.8,5.3,2.3,8c0.4,2.2-2.2,4.9-4.9,5.5c-2.5,0.6-3.1-1.3-3.9-3c-0.7-1.5-1.4-3-2.3-4.4c-0.3-0.5-1.3-0.7-2.1-1.1
		c2.5,11.4,4.9,22.3,7.3,33.1c0.3,0.1,0.5,0.3,0.8,0.4c0.6-1.4,1.8-2.8,1.8-4.2c0-4.4-0.5-8.8-0.5-13.2c0-1.4,0.3-3.2,1.2-4.2
		c1.6-2.1,3.8-3.7,5.7-5.6c0.6-0.6,1.2-1.8,1-2.5C687.6,621.6,685.8,615.4,683.9,608.8z M485.5,521.7c2.2,0.9,4.4,2.2,6.8,2.7
		c1.6,0.4,3.8,0.5,5.2-0.2c10.9-5.2,22.3-8.5,34.1-10.7c1.5-0.3,3-0.6,4.5-0.9C518.6,511.5,501.9,515,485.5,521.7z M537.8,514.7
		c-13.9,1.5-27.4,4.6-39.9,11.5c4.2,1.5,8.4,2.7,12.7,3.7c0.8,0.2,1.9-0.6,2.7-1.1c5.8-3.6,11.5-7.3,17.3-10.8
		C532.9,516.6,535.4,515.7,537.8,514.7z M541.6,514.9c-10.2,3.7-19.1,8.7-27.2,15.5c4.6,1,9.2,1.7,13.8,2.2c0.7,0.1,1.8-0.5,2.2-1.2
		C534.1,526.1,537.7,520.7,541.6,514.9z M548.8,513.9c-0.2,4.6-0.3,8.6-0.6,12.6c-0.2,2.6,1.3,3.1,3.3,2.7c1.4-0.3,2.7-1,4.5-1.7
		c-1.4-1.1-2.3-1.8-3.2-2.5c0.2-0.3,0.4-0.6,0.6-1c1.9,1.2,3.7,2.4,5.6,3.5c0.1,0.4,0.1,0.8,0.2,1.2c-3.4-0.5-3.8,1.5-4.1,4.3
		c3.6-0.8,6.9-1.4,10.2-2.1c0-0.2,0-0.5,0-0.7c-0.5-0.3-1-0.5-1.5-0.8c1.2-1.2,2-2.1,2.9-3c-4-3.2-7.6-6.2-11.4-9
		C553.5,516,551.4,515.2,548.8,513.9z M547.7,514.1c-4.3,0.9-14.4,13.4-15.8,19c4.2,0.2,8.4,0.5,13,0.7
		C545.8,527.1,546.7,520.8,547.7,514.1z M463.6,598.5c0.9,1.1,1.8,2.1,2.7,3.1c1.9-2.3,1.6-2.2,0.3-4.6c-2-3.6-4.7-7.3-1.7-11.8
		c0.3-0.5,0-1.4,0-2c-0.4-0.1-0.8-0.2-1.1-0.3c-3.9,7.3-7.7,14.6-11.7,22.2c3.2,1.2,5.7,2.2,8.4,3.3
		C461.6,605,462.5,602,463.6,598.5z M671.5,601.4c-1.7,1.1-3.6,2.2-5.5,3.5c-0.5,0.4-1.1,1.4-1,1.9c1.8,5.2,3.7,10.4,5.7,15.6
		c0.2,0.4,0.9,0.6,1.4,0.9c0.3-0.6,0.7-1.1,0.8-1.7c0.1-0.6-0.2-1.2-0.4-1.8c-0.9-2.4-1.7-4.8,1.9-5.8c0.4-0.1,0.6-1.3,0.8-1.9
		c1,0,1.9,0,3,0C677.1,607.8,676.7,603.3,671.5,601.4z M553.6,514.2c2.3,1.7,4.3,3.1,6.2,4.6c2.9,2.3,5.6,4.8,8.6,7
		c5.2,3.7,9.5,3.7,14,0.3C575.7,521.3,559.5,514.5,553.6,514.2z M593.1,521.8c0-0.3-0.1-0.6-0.1-0.8c-11-3.8-22.2-6.5-34-8
		c0.3,0.5,0.3,0.7,0.4,0.8c8.1,3.8,16.2,7.5,24.3,11.2c0.7,0.3,1.7,0.6,2.3,0.3C588.5,524.2,590.8,522.9,593.1,521.8z M414.4,758.6
		c1-3.8-1.3-6-4.2-7.7c-0.8-0.5-1.8-0.6-2.7-0.8c0.1,0.9-0.1,2,0.4,2.7c3.7,5.4,7.5,10.8,11.3,16.1c0.5,0.6,1.2,1.1,2.1,1.8
		C421.7,767.1,416.6,758.5,414.4,758.6z M542.9,627.3c0.2-0.4,1-1.4,1-2.4c0.1-1.4-0.1-3.1-0.8-4.2c-0.4-0.6-2.3-0.9-3.3-0.5
		c-4.6,1.7-8.4,4.4-10.5,9c-0.5,1.2-0.7,2.6-0.6,3.9c0,0.6,0.9,1.2,1.4,1.8c0.6-0.5,1.4-0.9,1.6-1.5c0.5-1,0.4-2.3,0.9-3.3
		c1.1-2.2,2.4-4.4,3.6-6.6C538.5,624.8,540.7,626,542.9,627.3z M603.4,560.3c-1.2,2.9-2.3,4.9-2.8,6.9c-0.3,1.3-0.2,3.1,0.5,4.3
		c1.8,3.2,4.7,3.2,9,0.2C608,568.1,605.9,564.5,603.4,560.3z M531.7,620.8c2.2,0.4,5,0.7,5.4-2c0.3-1.8-1.3-4.3-2.7-5.6
		c-1.1-1-3.7-1.4-5-0.8c-2.3,1.1-4.2,3.2-6.3,4.9c0.1,0.3,0.2,0.5,0.3,0.8c1.3-0.2,2.7-0.1,4-0.5
		C531.2,616.6,531.4,616.7,531.7,620.8z M473.4,672.6c0.2-0.3,0.3-0.5,0.5-0.8c-2.4-6-4.9-12-7.4-17.9c-0.2-0.4-0.9-0.6-1.4-0.9
		c-0.4,0.8-1.2,1.6-1,2.3c1.1,4.9,1.9,10,6,13c-0.2,0.9-0.8,2-0.6,2.2C470.8,671.3,472.1,672,473.4,672.6z M434.4,730
		c2.5-1.7,4.4-3,6.3-4.4c2-1.4,1.9-3.2-0.2-4.2c-2.5-1.2-5-2.2-8.3-3.6C433,722.3,433.7,726.1,434.4,730z M455.4,666.3
		c0,0.4,0,0.8,0,1.2c3.5,1,7,1.9,11.1,3.1c-1-2.2-1.7-3.8-2.1-4.8C461,666,458.2,666.1,455.4,666.3z M587.4,645.2
		c-1.5-1.7-2.8-3.1-4-4.5c-0.2,0.1-0.4,0.2-0.6,0.3c0.2,1.9,0.5,3.9,0.8,6.1C585.1,646.4,586.2,645.8,587.4,645.2z M677.9,708.6
		c-0.4,2.2-0.8,4.1-1.2,6.2C680.4,713.3,680.5,712.5,677.9,708.6z M578.6,628.8c1.3-1.2,2.7-1.8,2.7-2.5c0-1.1-0.8-2.3-1.3-3.4
		c-0.3,0.1-0.5,0.3-0.8,0.4C579,624.6,578.8,626.1,578.6,628.8z M400,702.9c1-4.4,1-4.4-1.4-5.9C399.2,699.2,399.6,701,400,702.9z"
		/>
	<path class="st0" d="M703.6,741.1c-4.9,18-9.6,35.4-14.6,53.6c-2.8-3.4-5.2-6.4-7.8-9.6c-4.2,3.6-8.1,7.2-12.2,10.6
		c-30.7,25.5-65.2,43.4-104.7,50.6c-40.2,7.2-78.7,2.1-114.5-18.4c-16.3-9.3-34.5-28-42.3-43c0.2-0.2,0.4-0.4,0.5-0.6
		c0.6,0.7,1.1,1.5,1.7,2.2c20.2,22.6,44.7,37.8,74.7,43.7c14.6,2.9,29.4,3.2,44.1,1.4c53.1-6.6,96.4-32,133.3-69.7
		c0.4-0.4,0.8-0.9,1.3-1.6c-2.9-3.7-5.7-7.3-9-11.5C670.8,746.1,686.9,743.7,703.6,741.1z"/>
	<path class="st0" d="M419.4,654.5c0,0.5-0.1,1-0.1,1.1c-3.1-0.9-6.1-1.8-9.1-2.8c0.1-0.3,0.2-0.5,0.2-0.8c3,0.9,6,1.7,9,2.6
		C419.5,654.7,419.4,654.5,419.4,654.5z"/>
	<path class="st0" d="M627.8,632.8c-1.3,0.5-2.6,1-4,1.5c0.4,1,0.8,1.9,1.2,2.8c-0.2,0.1-0.3,0.2-0.5,0.4c-0.9-1.2-1.8-2.4-2.9-3.9
		c2.2-0.5,4.1-1,6-1.5C627.6,632.3,627.7,632.5,627.8,632.8z"/>
	<path class="st0" d="M474.9,710.9c-1.1-1.5-1.9-2.7-2.8-3.9c0.3-0.2,0.5-0.3,0.8-0.5c0.9,1.5,2.5,3.1,2.4,4.6
		c-0.1,0.9-2.6,1.8-4.1,2.6c-0.2-0.3-0.3-0.6-0.5-0.9C472,712.3,473.3,711.7,474.9,710.9z"/>
	<path class="st0" d="M559.5,695.6c-0.8,1-1.3,2.3-2,2.5c-1.4,0.3-3,0.2-4.5-0.1c-2.3-0.5-4.4-1.2-6.6-1.9c0.3-0.1,0.9-0.4,1.8-0.9
		c-4.6-3.4-9.1-5.5-15-4.8c1-2.6,2.7-3.6,4.7-3.2c2.6,0.5,5.1,1.4,7.5,2.4c4,1.6,7.9,3.4,11.8,5.1
		C558.2,695.1,559.1,695.4,559.5,695.6z"/>
	<path class="st0" d="M574.7,700.8c-1.3,2.8-6.9,1.5-5.7,5.6c-1.1-0.6-2.5-1.4-3.8-2.3c-2.1-1.4-3.4-3.2-3.1-6.1
		c1.5-0.1,3.1-0.3,5.6-0.5c-1.4-0.7-2-1-2.3-1.1c0.6-0.9,1.2-2,1.8-2.9c0.6,0.8,1.3,1.9,2.1,3c-0.2,0.1-0.8,0.4-1.3,0.6
		c0.1,0.3,0.2,0.6,0.3,1C570.3,699,572.4,699.9,574.7,700.8z"/>
	<path class="st0" d="M527.4,698.8c-0.3,0.6-0.7,1.5-1.1,2.4c-0.2,0-0.3,0-0.5-0.1c0.1-1.5,0.2-3,0.4-4.6c1.6,0.3,3.2,0.7,4.8,1
		C531.1,701.2,528.7,698,527.4,698.8z"/>
	<path class="st0" d="M556.1,703.6c-3.5,0.2-7,0.4-10.5,0.6c0-0.4,0-0.7,0-1.1c3.5,0,7,0,10.5,0
		C556.1,703.3,556.1,703.5,556.1,703.6z"/>
	<path class="st0" d="M560.1,655.3c0.4,1.4,0.8,2.7,1.3,4.3c1.5-0.7,2.8-1.2,4.1-1.8c0.1,0.3,0.2,0.6,0.3,0.8
		c-1.6,0.6-3.8,2.2-4.6,1.6c-1.3-0.9-1.6-3.1-2.3-4.8C559.4,655.4,559.7,655.4,560.1,655.3z"/>
	<path class="st0" d="M666.1,677.8c-1.6-1.1-3.2-2.1-4.8-3.2c0.2-0.4,0.5-0.8,0.7-1.1c1.6,1.1,3.2,2.1,4.8,3.2
		C666.6,677,666.4,677.4,666.1,677.8z"/>
	<path class="st0" d="M423.5,658.2c1.5,1.4,2.7,2.4,3.8,3.5c-0.1,0.2-0.2,0.3-0.3,0.5c-0.8-0.5-1.7-1-2.7-1.7
		c-0.4,1-0.7,1.9-1.1,2.8c-0.2-0.1-0.4-0.1-0.6-0.2C422.9,661.6,423.2,660.1,423.5,658.2z"/>
	<path class="st0" d="M598.1,591c1.8,5,6.3,4.9,10.2,6.2c-1.9,0.4-3.7,0.7-6.4,1.2c1.7,2.4,3.1,4.4,4.4,6.3
		c-0.8,0.4-2.3,1.1-3.2,1.5c-0.8-2.2-1.6-4.4-2.7-7.3c-1.9,2.3-3.3,3.8-4.6,5.4c-0.3-0.2-0.6-0.3-0.8-0.5c1.5-3.9,5.2-7.5,1.6-12.3
		C597,591.3,597.6,591.2,598.1,591z"/>
	<path class="st0" d="M592.1,616.7c1-3.3,2-6.4,2.7-8.8c1.9,1,4.1,1.7,5.7,3.1c1.6,1.5,2.7,3.7,4.1,5.7
		C599.9,616.7,596.1,616.7,592.1,616.7z"/>
	<path class="st0" d="M551.2,568.1c4.1-0.6,8.7-4.3,9.1-7.2c1.2,0.2,2.4,0.4,3.6,0.5c0.9,0.1,1.8,0.3,2.7,0.2
		c1.8-0.2,3.8-1.1,5.4-0.7c1.7,0.4,3,2,5.4,3.7c-1.6,0.4-2.6,0.8-3.6,1c-1.4,0.3-3,0.1-4,0.7c-1.9,1.2-2.3,2.7,0,4.3
		c0.9,0.6,2.2,2.3,2,2.7c-0.7,1.1-1.9,2.1-3.2,2.6c-0.7,0.3-2.3-0.2-2.7-0.9c-3.6-5.7-6.3-6.6-12.4-3.9c-0.4,0.2-0.8,0.3-1.5,0.5
		C551.8,570.3,551.5,569.2,551.2,568.1z"/>
	<path class="st0" d="M535.5,547.1c-2.1,0.6-4.1,1.1-6.5,1.8C531,545.2,531.7,545,535.5,547.1z"/>
	<path class="st0" d="M415,739.6c-0.5-2.1-1-4.2-1.4-6.3C416.7,734.6,415.8,737.2,415,739.6z"/>
	<path class="st0" d="M621.6,563.9c-2.4-2.1-4.4-3.9-6.9-6.1c2.8-0.4,4.9-1.2,6.8-0.9c1.1,0.2,2.1,2.2,2.8,3.5
		c0.2,0.5-0.5,1.7-1,2.3C622.7,563.4,621.8,563.7,621.6,563.9z"/>
	<path class="st0" d="M655.6,578.7c-3.8-0.2-5.3-3.3-7.4-5.8c0.7-0.6,1.3-1.1,2.3-1.9c2,2.3,4,4.6,6,6.9
		C656.2,578.1,655.9,578.4,655.6,578.7z"/>
</g>
</svg>
