<?xml version="1.0" encoding="utf-8"?>
<!-- Generator: Adobe Illustrator 27.4.0, SVG Export Plug-In . SVG Version: 6.00 Build 0)  -->
<svg version="1.1" id="Layer_1" xmlns="http://www.w3.org/2000/svg" xmlns:xlink="http://www.w3.org/1999/xlink" x="0px" y="0px"
	 viewBox="0 0 107 45" style="enable-background:new 0 0 107 45;" xml:space="preserve">
<style type="text/css">
	.st0{fill:#5CC7D3;}
</style>
<g>
	<g>
		<path class="st0" d="M36.6,29.4c0.3-0.8,0.5-1.6,0.8-2.5c-0.8,0.7-0.8,0.7-1.1,0.3c-0.3,0.1-0.5,0.3-0.6,0.7
			c-0.1,0.5-0.3,1-0.5,1.6c0,0.1-0.1,0.2-0.2,0.3c0,0-0.1,0-0.1,0c0.2-0.7,0.4-1.4,0.6-2.1c-0.8,0.4-1.5,0.7-2.3,1
			c-0.6,0.2-1.2,0.4-1.8,0.7c-0.1,0.1-0.3,0.2-0.3,0.4c-0.1,0.5-0.2,1-0.3,1.5c-0.1,0.5-0.1,0.5,0.4,0.5c0.1,0,0.2,0,0.2,0
			c0.2,0.6,0,1.1-0.4,1.6c-0.4,0.5-0.8,1.1-1.2,1.7c-0.1,0.2-0.3,0.4-0.5,0.5c-2.6,1.9-5.4,3.3-8.5,4.1c-0.1,0-0.1,0-0.2,0
			c0.3-0.6,0.6-1.1,0.9-1.7c0.1-0.2,0.2-0.4,0.3-0.6c0.3-0.7,0.2-0.8-0.6-0.8c-2.4,0-4.9-0.2-7.3-0.7c-0.1,0-0.2,0-0.3,0
			c0.5,1.7,1.2,3.2,2.4,4.6c-0.6,0-1.2,0-1.8-0.1C11.5,40,9.2,38.6,7,36.8c-0.8-0.6-1.4-1.4-2.1-2.1c-0.1-0.1-0.2-0.1-0.3-0.1
			c-0.1-0.2-0.2-0.5-0.4-0.7c-2.2-2.8-3.5-6-4-9.5C-0.2,21.2,0,18.1,1,15.1c1.5-4.5,4.3-8,8.3-10.4c6.4-3.8,12.9-3.9,19.4-0.4
			c5.3,2.8,8.5,7.4,9.8,13.2c0.9,3.9,0.4,7.7-0.9,11.4C37.5,29.3,37.5,29.3,36.6,29.4z M5.1,19.9c0.1-0.1,0.1-0.1,0.2-0.1
			c-0.8-0.5-1.6-1.1-2.4-1.7c0,0.1-0.1,0.2-0.1,0.2c-0.4,2-0.4,4-0.3,6.1c0,0.2,0.1,0.4,0.2,0.5c0.5,0.4,1,0.8,1.5,1.1
			C4.4,26,4.7,26,4.8,26.1c0.4,0.6,1,0.6,1.6,1c0-0.3,0.1-0.5-0.2-0.5c0-0.2,0.1-0.4,0.1-0.6c-0.1-1.8,0-3.6,0.3-5.4
			c0-0.1-0.1-0.3-0.2-0.4C6,20.2,5.5,20,5.1,19.9C5,19.8,5.1,19.9,5.1,19.9z M31.5,22.3c-0.1,0-0.1,0-0.2,0c-1.9,0.5-3.8,0.8-5.8,1
			c-0.6,0.1-0.7,0.1-0.6,0.8c0,0.4-0.3,0.9,0.4,1c-0.1,0-0.3,0-0.4,0.1c0,1,0,2,0,3c0.2,0.1,0.5,0.1,0.7,0.2
			c0.2,0.1,0.3,0.2,0.4,0.4c0.1,0.1,0.3,0.1,0.3,0.2c0.2,0.4,0.6,0.4,1,0.5c0.3,0,0.7,0.2,1,0.3c0.1,0,0.3,0.1,0.4,0.1
			c0.5-0.1,1.2-0.1,1.5-0.7c-0.1,0.1-0.1,0.2-0.2,0.3c0.3-0.1,0.5-0.2,0.8-0.2c0.2,0,0.3-0.2,0.4-0.4c0-0.5,0.1-1,0.2-1.4
			c0.1-1.6,0.1-3.2,0.2-4.7C31.6,22.6,31.5,22.5,31.5,22.3z M12.8,29.4c0,0.1,0,0.1,0,0.1c0.1,1.9,0.4,3.8,0.9,5.7
			c0,0.1,0.2,0.3,0.4,0.3c0.6,0.1,1.1,0.2,1.7,0.3c1.9,0.3,3.8,0.4,5.7,0.4c0.1,0,0.3,0,0.5-0.1c-0.6-0.4-1-0.8-1.5-1.2
			c0,0-0.1-0.1-0.1-0.1c-0.1-0.2-0.1-0.4-0.2-0.5c-0.1-0.1-0.3-0.1-0.5-0.1c0.3-0.3,0.2-0.6,0-0.9c-0.1-0.1-0.1-0.1-0.2-0.2
			c-0.2-0.3-0.3-0.6,0-0.9c0.1-0.1,0.1-0.1,0.2-0.2c-0.3-0.2-0.2-0.5,0-0.7c0.2-0.3,0.4-0.5,0.7-0.8c-0.3,0-0.4,0-0.6,0
			c-1.5-0.2-3-0.4-4.5-0.5c-0.1,0-0.3,0-0.5,0C14.2,29.6,13.5,29.6,12.8,29.4z M24.9,23.3c0.5-0.1,0.9-0.1,1.3-0.2
			c1.7-0.3,3.4-0.6,5-0.9c0.2,0,0.3-0.1,0.3-0.3c-0.1-0.7-0.1-1.4-0.2-2c0-0.1-0.1-0.2-0.2-0.3c-0.2-0.1-0.4-0.2-0.6-0.3
			c0-0.1,0-0.1,0.1-0.2c0.2,0.1,0.4,0.2,0.7,0.3c-0.1-0.7-0.3-1.4-0.4-2.1c0-0.1-0.1-0.1-0.2-0.2c0-0.1,0.1-0.2,0.1-0.3
			c-0.1-0.3-0.1-0.6-0.2-0.9c0-0.1-0.2-0.1-0.3-0.1c-0.4,0.1-0.8,0.1-1.1,0.5c0,0.1-0.1,0.1-0.2,0.2c0,0,0,0,0,0
			c0.1-0.1,0.2-0.2,0.3-0.4c-0.8,0.2-1.6,0.3-2.4,0.5c0.2,0.1,0.3,0.2,0.4,0.3c-0.2,0-0.3-0.1-0.4-0.2c-0.1-0.1-0.3-0.1-0.4-0.1
			c-0.5,0.1-1.1,0.1-1.6,0.2c-0.1,0-0.3,0.1-0.3,0.2c-0.1,0.3,0.1,0.7,0.4,0.9c0.2,0.1,0.3,0.2,0.5,0.3c0.3,0.2,0.6,0.3,0.9,0.1
			c0.2-0.1,0.4,0,0.6,0c-0.1,0.1-0.2,0.4-0.4,0.4c-0.4,0.2-0.5,0.5-0.6,0.9c0,0.3-0.1,0.5-0.2,0.8c0,0.1-0.1,0.3-0.1,0.4
			c0,0-0.1,0-0.1,0c0-0.5-0.1-0.9-0.1-1.4c-0.7,0.1-0.7,0.1-0.7,0.7c0,0.9,0.1,1.9,0.1,2.8C24.9,22.9,24.9,23.1,24.9,23.3z
			 M7.8,27.8C7.9,27.3,8,26.9,8,26.5c0,0,0.1,0,0.1,0C8.2,27,8.3,27.5,8.3,28c0.6-0.2,1.2-0.3,1.2-1c0.2,0.4,0.4,0.7,0.6,1.1
			c-0.4-0.1-0.8-0.3-1.1,0.3c1.2,0.3,2.3,0.6,3.5,0.9c-0.2-0.8,0.2-1.6-0.4-2.2c0.1,0.1,0.2,0.1,0.4,0.2c-0.1-0.3-0.1-0.6-0.2-0.8
			c0-0.1,0.1-0.2,0.1-0.4c0-0.4,0.1-0.8,0.1-1.2c0-0.2-0.1-0.4-0.2-0.6c-0.1-0.2-0.3-0.4-0.2-0.6c0.1-0.5-0.1-0.8-0.3-1.2
			c-0.1-0.3-0.2-0.3-0.5-0.1c0-0.1-0.1-0.1-0.2-0.3c0,0.2,0,0.4-0.1,0.5c-0.3-0.4-0.6-0.8-1.1-0.8c-0.5,0-0.9-0.5-1.4,0
			c0.1-0.2,0.1-0.3,0.2-0.4c-0.7-0.3-1.3-0.6-2-0.9c0,0.4,0,0.6,0,0.9c0,0.1-0.2,0.2-0.2,0.3c-0.2,1.7-0.2,3.5-0.1,5.3
			c0,0.1,0.1,0.2,0.2,0.3C7.1,27.5,7.4,27.6,7.8,27.8z M22.5,28.5C22.6,28.5,22.6,28.5,22.5,28.5c0.1,0,0.1-0.1,0.2-0.2
			c0.1-0.5,0.2-0.6,0.7-0.4c0.3,0.1,0.7,0.2,1,0.3c0.1,0,0.3-0.1,0.3-0.2c0-0.7,0-1.4,0-2.2c-0.1,0-0.3,0-0.4,0
			c-0.1,0-0.2-0.1-0.3-0.1c0,0,0,0,0-0.1c0.2,0,0.5,0,0.8,0c0-0.7,0-1.3,0-2c0-0.1-0.1-0.2-0.2-0.2c-0.6,0-1.2,0.1-1.8,0.1
			c0,0.1,0,0.2,0,0.3c-0.1-0.3-0.3-0.3-0.6-0.3c-2.3,0-4.5-0.2-6.7-0.6c-0.8-0.2-0.9-0.1-0.8,0.7c0,0,0,0,0,0c0.1,0.9,1,1.5,1.8,1.3
			c0.1,0,0.2-0.1,0.2-0.1c0.1-0.3,0.2-0.6,0.6-0.6c0.1,0,0.3-0.1,0.4,0c0.1,0.1,0.2,0.3,0.2,0.5c-0.1,0.3-0.2,0.5-0.3,0.8
			c-0.1,0.3,0,0.4,0.3,0.5c0.4,0.1,0.8,0.2,1.2,0.4c0.2,0.1,0.3,0.3,0.1,0.6c-0.2,0.3-0.3,0.7-0.1,1c0.2,0.4,0.6,0.4,1,0.4
			c0.2,0,0.5,0.1,0.7,0.1c0.1,0,0.2,0,0.3,0c0.3-0.3,0.6-0.5,0.9-0.8c0-0.1-0.1-0.1-0.2-0.3c0.3,0.1,0.6,0.3,0.8,0.4
			C22.5,28,22.5,28.2,22.5,28.5z M13.4,35.4c0-0.1,0-0.1,0-0.2c-0.3-1.6-0.6-3.2-0.9-4.9c0-0.1-0.1-0.2-0.2-0.3
			c0-0.1,0.1-0.2,0.1-0.3c0-0.2,0.1-0.5-0.2-0.6c-1.1-0.3-2.2-0.6-3.3-0.9c-0.1,0-0.2,0-0.4,0c0.4,0.4,0.8,0.7,1.1,1.1
			c0,0,0,0.1-0.1,0.1c-0.4-0.2-0.8-0.3-1.1-0.6c-0.3-0.2-0.6-0.3-1-0.1c-0.2,0.1-0.4,0.1-0.6,0.2c0.4,1.6,0.8,3.1,1.6,4.6
			C8.5,33.9,8.7,34,8.8,34c0.8,0.3,1.5,0.6,2.3,0.8C11.8,35.1,12.6,35.2,13.4,35.4z M24.2,20.2c-0.2-0.4-0.3-0.8-0.5-1.2
			c0.2,0.1,0.3,0.1,0.5,0.2c0.2,0.1,0.4,0,0.4-0.2c0-0.5,0.1-1-0.3-1.4c0.3-0.2,0.1-0.5,0.1-0.8c-0.4,0-0.7,0-1.1,0.1
			c-0.1,0-0.2,0.2-0.2,0.3c0.1,0.4-0.1,0.6-0.4,0.6c-0.5,0.1-0.6,0.4-0.8,0.7c-0.2,0.2-0.1,0.5,0.2,0.6c-0.1,0.1-0.2,0.1-0.3,0.2
			c-0.1,0.4-0.5,0.6-0.8,0.9c-0.2,0.2-0.5,0.3-0.7,0.5c-0.3,0.3-0.4,0.6-0.2,1c0.2-0.1,0.4-0.2,0.6-0.3c0,0,0,0.1,0,0.1
			c-0.2,0.1-0.4,0.2-0.6,0.4c0.1,0.3,0.2,0.5,0.3,0.8c0.1,0.4-0.2,0.6-0.5,0.4c-0.4-0.1-0.6-0.5-0.5-0.9c0.1-0.4-0.2-0.8-0.7-0.8
			c-0.1,0.2-0.1,0.4-0.2,0.6c0,0,0,0-0.1,0c0-0.2,0-0.4,0.1-0.6c-0.5,0.1-0.9-0.5-1.3,0.2c-0.2-0.1-0.4-0.1-0.6-0.2
			c-1-0.4-1.5,0.3-1.8,1c-0.1,0.2,0,0.3,0.2,0.4c0.8,0.1,1.6,0.3,2.4,0.4c0.6,0.1,0.6,0.1,0.8-0.4c0,0,0,0,0.1,0
			c0,0.2,0,0.3-0.1,0.5c0.2-0.1,0.3-0.2,0.4-0.3c0,0,0,0,0,0c-0.1,0.1-0.2,0.2-0.3,0.4c2.1,0.2,4.2,0.2,6.3,0c0-1.3,0-2.5-0.1-3.7
			c0,0-0.1,0-0.1,0C24.4,19.7,24.3,19.9,24.2,20.2z M33.3,21.4c0.2,0,0.3,0,0.5-0.1c0.6-0.3,1.2-0.6,1.9-0.8
			c0.3-0.1,0.4-0.3,0.4-0.7c-0.2-1.6-0.7-3.2-1.2-4.8c-0.1-0.3-0.3-0.7-0.4-0.9c-1.2,0.5-2.4,0.9-3.5,1.4c-0.2,0.1-0.2,0.2-0.1,0.4
			c0.1,0.6,0.4,1.1,0.4,1.7c0.1,0.5,0.2,1.1,0.3,1.6c0,0.3,0.1,0.7,0.4,0.8c0.1,0.1,0.2,0.1,0.3,0.2c0,0-0.1,0.1-0.1,0.1
			c-0.1-0.1-0.3-0.2-0.5-0.3c0.1,0.7,0.1,1.3,0.2,2C32.5,21.9,33.2,21.6,33.3,21.4z M33.9,27.5C33.9,27.6,33.9,27.6,33.9,27.5
			c-0.5,0-0.9,0-1.4-0.1c-0.1,0-0.3,0-0.4,0.1c-0.6,0.3-0.7,0.9-0.7,1.5c0,0,0.1,0,0.1,0c1.3-0.6,2.7-1.1,4-1.7
			c0.1,0,0.2-0.1,0.2-0.2c0.1-0.5,0.1-1.1,0.2-1.6c0-0.3,0-0.7,0-1c0-0.3,0.1-0.6-0.4-0.7c0.4-0.2,0.4-0.5,0.4-0.8
			c0-0.5,0.1-1.1,0.1-1.6c0-0.3,0-0.6,0-0.9c-0.8,0.4-1.6,0.7-2.4,1c0,0.1,0.1,0.2,0.1,0.1c-0.2,0-0.5,0-0.7,0.1
			c-0.4,0.1-0.7,0.3-1.1,0.3c-0.3,0.1-0.3,0.2-0.3,0.4c0,1,0,1.9,0,2.9c0,0.5,0.3,0.8,0.5,1.2c0.5-0.3,0.9-0.6,0.8-1.2
			c0.3,0.3,0.6,0.5,0.8,0.8c-0.2,0-0.5,0.1-0.8,0.1c0.2,0.1,0.2,0.2,0.3,0.2c-0.4-0.1-0.5,0.2-0.7,0.5
			C33.1,27.2,33.5,27.4,33.9,27.5z M30.3,14.9c-0.7-1.5-1.4-3-2.2-4.6c0-0.1-0.3-0.1-0.4-0.1c-1,0.2-1.9,0.4-2.9,0.6
			c-0.6,0.1-1.2,0.1-1.7,0.2c-0.1,0-0.3,0.2-0.4,0.3c0,0,0,0.2,0,0.2c0.2,0.1,0.3,0.1,0.5,0.1c0.1,0,0.1-0.1,0.2-0.1
			c0.3-0.2,0.5-0.2,0.7,0.1c0.2,0.3,0.3,0.6,0.5,0.8c0.1,0.1,0.3,0.3,0.4,0.3c0.3,0.1,0.5,0.3,0.8,0.4c0,0,0.1,0.1,0.1,0.1
			c0.1,0.5-0.6,1.2-1,1.1c-0.3,0-0.6,0-0.9,0.1c-0.4,0.2-0.7,0.4-1,0.7c-0.1,0.1-0.1,0.2-0.3,0.4c0.5-0.3,0.9-0.5,1.2-0.7
			c0,0-0.1-0.1-0.2-0.2c0.3,0.1,0.5,0.2,0.7,0.3c-0.1,0.1-0.2,0.1-0.3,0.2c0.3,0.9,0.6,1.1,1.5,0.7c-0.3,0.3-0.5,0.5-0.8,0.7
			c0,0,0,0.1,0.1,0.1c1.1-0.2,2.2-0.3,3.3-0.6C29,15.9,29.8,15.9,30.3,14.9z M3.7,15.6c-0.2,0.7-0.5,1.4-0.7,2.1
			c0,0.1,0.1,0.3,0.2,0.3c0.5,0.4,1.1,0.8,1.6,1.2c0.3,0.2,0.6,0.4,0.9,0.5c0.1-0.2,0.1-0.4,0.2-0.5c0,0.7,0.1,0.8,0.9,0.8
			c0.2-0.9,0.5-1.9,0.7-2.8C7.2,17.1,7,17,6.8,16.9c0,0,0,0,0-0.1c0.2,0.1,0.4,0.1,0.6,0.2c0.4-1,0.8-1.9,1.2-2.9
			c0.1-0.2-0.1-0.3-0.2-0.3c-0.2,0.1-0.3,0-0.4-0.1c-0.1-0.1-0.3-0.2-0.5-0.3c-0.1,0.4-0.1,0.7-0.2,1c-0.1,0-0.3-0.1-0.5-0.2
			c0.1-0.3,0.3-0.5,0.4-0.9c-0.4,0-0.6,0-0.8,0c0,0,0,0,0-0.1c0.1,0,0.2-0.1,0.4-0.2c-0.5-0.3-1-0.6-1.5-1c-0.6,1.1-1.2,2.2-1.7,3.3
			c0.2,0.1,0.3,0.2,0.5,0.3c0,0,0,0,0,0.1C4,15.7,3.9,15.6,3.7,15.6z M17.5,29.6c0,0.1,0,0.2,0,0.3c0,0.2,0.1,0.3,0.3,0.3
			c0.8,0.1,1.6,0.1,2.4,0.2c0.3,0,0.4-0.1,0.4-0.4c0-0.3,0-0.7-0.1-1c0-0.1-0.2-0.4-0.3-0.4c-0.1,0-0.4,0-0.5,0.1
			c-0.4,0.3-0.4,0.3-0.7,0c-0.1-0.1-0.3-0.3-0.5-0.3c-0.3,0-0.5-0.1-0.5-0.4c0-0.2-0.1-0.4-0.2-0.6c0,0-0.1,0-0.1,0
			c0,0.1-0.1,0.3-0.1,0.4c-0.1-0.2-0.1-0.3,0-0.5c0.1-0.2-0.1-0.3-0.3-0.3c-0.7,0-1.1-0.4-1.5-0.9c-0.1-0.1-0.3-0.2-0.4-0.2
			c-0.3-0.1-0.7,0-0.9-0.1c-0.4-0.1-0.7-0.4-1-0.6c-0.2-0.1-0.4-0.3-0.7-0.4c0,0.4,0,0.7-0.1,1c-0.1,0.3,0,0.6,0,0.9
			c-0.1,0.8,0,1.6,0,2.4c0,0.1,0.1,0.1,0.1,0.2c0.1,0,0.2-0.1,0.2-0.1c0.1-0.1,0.2-0.2,0.3-0.3c0,0,0,0,0.1,0
			c-0.1,0.1-0.1,0.3-0.2,0.4c0,0,0.1,0.1,0.1,0.1c1.2,0.2,2.3,0.5,3.5,0.7C17.3,30.1,17.3,30.1,17.5,29.6z M20.6,9.8
			c0,0.1-0.1,0.1-0.1,0.2c-0.2-0.1-0.3-0.1-0.5-0.2c-0.2,0-0.4-0.1-0.5-0.1c-0.5,0.3-0.9,0.7-1.4,1c0,0.1,0,0.1,0,0.2
			c0.8,0,1.6,0,2.4,0c0.3,0,0.6,0,0.6-0.4c0-0.1,0.1-0.2,0.1-0.2c0.4,0.1,0.7,0.1,0.9,0.2c0.1,0,0.3,0,0.4,0.1
			c0.2,0.3,0.5,0.2,0.7,0.2c0.2,0,0.4,0,0.6-0.1c0.8-0.1,1.7-0.2,2.6-0.4c-0.6-0.4-1.1-0.8-1.3-1.5c-0.1-0.3-0.2-0.7-0.4-1
			c0,0-0.1-0.1-0.1-0.1c-0.2-0.1-0.4-0.2-0.6-0.4c-0.2,0.3-0.3,0.2-0.4-0.1c0-0.1-0.1-0.1-0.1-0.2c-0.2-0.6-0.7-0.9-1.3-0.8
			c-0.1,0-0.2,0-0.2,0c0-0.2,0-0.4-0.1-0.5c0.1,0,0.2-0.1,0.3-0.1c0-0.1,0-0.2,0-0.4c-0.4,0-0.8,0-1,0.4c0.2,0.3,0.2,0.4-0.2,0.5
			c-0.2,0.1-0.3,0.2-0.2,0.4c0,0.1,0,0.2-0.1,0.2c-0.6-0.3-0.8-0.4-0.8-0.8c0.2,0,0.3,0,0.5-0.1c-0.3-0.4-0.6-0.5-1-0.6
			c-0.8-0.1-1.1,0.2-1.4,0.8c-0.3,0.6-0.4,1.1,0.1,1.7c-0.3-0.1-0.6-0.1-0.9-0.1C17,8,17,8.1,16.9,8.3c0.5,0.1,0.9,0.1,1.3,0.1
			c0.2,0,0.4-0.2,0.6-0.3c-0.2-0.3,0.2-0.7-0.4-0.8c0.4-0.2,0.5-0.1,0.7,0.1c0.2,0.2,0.2,0.5,0.2,0.7c0,0.2,0.3,0.3,0.4,0.5
			c0.2-0.2,0.4-0.3,0.6-0.5c0.1-0.1-0.3-0.7-0.4-0.7c-0.1,0-0.2-0.1-0.3-0.1c0-0.1,0-0.3,0.1-0.4c0.3,0,0.6,0,0.9,0.1
			c0.2,0,0.6,0,0.7,0.1c0.3,0.4,0.8,0.4,1.2,0.4c0.3,0,0.4,0.1,0.2,0.4c-0.3,0.4-0.6,0.6-1.1,0.4C21.1,8.4,21,8.3,21.2,8
			c-0.5-0.1-0.8,0.1-0.7,0.5c0,0.3-0.1,0.4-0.2,0.5c-0.1,0.1-0.1,0.1-0.2,0.2C20.3,9.4,20.4,9.6,20.6,9.8z M32.9,12.2
			C32.9,12.2,32.9,12.1,32.9,12.2c0.2-0.4,0.1-0.6-0.1-0.8c-0.6-0.8-1.2-1.5-1.8-2.3c-0.1-0.2-0.2-0.2-0.4-0.1
			c-0.5,0.3-1.1,0.6-1.7,0.8c-0.2,0.1-0.5,0.2-0.7,0.3c0,0.1,0,0.1,0,0.1c0.8,1.7,1.5,3.4,2.3,5.1c0,0.1,0.2,0.2,0.3,0.1
			c1.1-0.4,2.1-0.9,3.2-1.3c0.1,0,0.2-0.2,0.1-0.2c-0.3-0.6-0.6-1.3-0.9-1.9c0,0-0.1,0-0.1,0C33.1,12,33,12.1,32.9,12.2z M8.1,33.8
			c0,0,0-0.1,0.1-0.1C8.1,33.4,8,33.2,7.9,33c-0.7-1.6-1.1-3.3-1.4-5c-0.1-0.8-0.6-1.1-1.3-0.8c-0.1,0-0.1,0-0.2,0.1c0,0,0,0,0,0
			C5.2,27,5.3,27,5.5,26.8c-0.3-0.1-0.5-0.2-0.9-0.4c-0.1-0.3-1-0.8-1.6-0.7c0.2,0.3,0.3,0.5,0.4,0.7c-0.1,0.1-0.3,0.1-0.4,0.2
			c-0.1-0.3-0.2-0.5-0.3-0.8c-0.1,0-0.1,0-0.2,0c0.1,0.4,0.2,0.9,0.3,1.3c0,0.1,0.2,0.3,0.2,0.4c0,0.1-0.1,0.3,0,0.4
			c0.3,0.8,0.5,1.6,0.8,2.4c0,0.1,0.1,0.2,0.1,0.3c0.2-0.1,0.4-0.3,0.6-0.4c0.1,0.2,0.1,0.4,0.2,0.6c0,0,0,0-0.1,0
			c-0.1-0.1-0.1-0.2-0.2-0.4c0,0.3-0.1,0.5-0.1,0.7c0,0,0,0-0.1,0c0-0.1,0-0.3-0.1-0.4c0,0-0.1,0-0.1,0c0,0.1-0.1,0.2-0.1,0.2
			c0.1,0.5,0.3,0.8,0.7,0.9c0-0.1,0-0.2,0-0.3c0,0.6,0.4,0.7,0.8,0.9C6.6,32.9,7.4,33.3,8.1,33.8z M15.8,40.1
			c-0.1-0.1-0.1-0.2-0.1-0.2c-0.8-1-1.4-2-1.7-3.2c-0.2-0.8-0.6-1.2-1.4-1.3c-0.9-0.1-1.8-0.4-2.6-0.7c-0.1,0.2-0.2,0.4-0.3,0.5
			c0,0,0,0-0.1,0c0.1-0.2,0.2-0.4,0.3-0.6c-0.3-0.1-0.6-0.3-1-0.4c0,0.1,0,0.1,0,0.1c0.8,1.6,1.9,3.1,3.1,4.5
			c0.1,0.1,0.1,0.1,0.2,0.2C13.2,39.5,14.4,39.9,15.8,40.1z M8.8,13.9c0.6-1,1.1-2,1.6-2.9c0.1-0.3,0.4-0.5,0.2-0.8
			c-0.1-0.1,0.1-0.4,0.1-0.6c0-0.1,0.1-0.2,0.1-0.3c-0.2-0.1-0.4-0.1-0.4-0.3c-0.2-0.6-0.7-0.7-1-1C9.4,8.2,9.3,8.2,9.2,8.3
			c-0.2,0-0.4,0-0.6,0c0.1,0.1,0.1,0.2,0.1,0.2C8.5,8.6,8.2,8.8,8,9c-0.8,1-1.6,2-2.5,3c0.6,0.4,1.1,0.7,1.6,1
			c0.1,0,0.3-0.1,0.4-0.2c0.1-0.1,0.2-0.3,0.3-0.5c0.2,0.4-0.2,0.7,0.1,1C8.2,13.5,8.5,13.7,8.8,13.9z M13.8,4.4
			c-0.3-0.1-0.5-0.2-0.7-0.3c-0.3-0.2-0.6-0.1-0.9,0C10.5,4.9,9,5.8,7.6,7c-1.2,1-2.3,2.2-3.2,3.4c-0.1,0.1-0.1,0.3,0,0.4
			c0.3,0.4,0.7,0.7,1.1,1.1c0.9-1.1,1.7-2.1,2.5-3.2c-0.3,0-0.6,0-0.8,0c0,0,0-0.1,0-0.1c0.3,0,0.7-0.1,1-0.1c0.4,0,0.4-0.1,0.3-0.4
			C8.3,7.6,8.8,7,9.2,7.1c0.4,0.1,0.7,0,0.9-0.4c0.2-0.4,0.5-0.5,0.9-0.3c0.1-0.4,0.4-0.5,0.7-0.7C12.4,5.4,13.1,4.9,13.8,4.4z
			 M9.1,17.8c0.1-0.1,0.1-0.2,0.1-0.3c-0.1-0.7-0.1-1.4,0.3-2c0.2-0.3,0.3-0.6,0.4-0.9c-0.4-0.1-0.7-0.3-1-0.4
			c-0.1,0.3-0.2,0.5-0.3,0.7c-0.8,1.7-1.3,3.4-1.7,5.2c0,0.2-0.1,0.3,0.1,0.4c0.6,0.2,1.2,0.5,1.7,0.8c0.2,0.1,0.3,0,0.4-0.3
			c-0.3-0.1-0.7-0.1-0.9-0.2c0.1-0.1,0.1-0.3,0.2-0.6c0.1,0.5,0.5,0.5,0.8,0.5c0-0.3,0-0.6,0-0.9c0.3,0.4,0.1,1.1,0.8,1.2
			c0-0.3-0.1-0.5-0.1-0.7c0-0.3-0.2-0.6-0.1-0.9C10,18.6,9.4,18.3,9.1,17.8z M11.4,38.7C11.4,38.7,11.4,38.7,11.4,38.7
			c0.1-0.1,0.1-0.2,0-0.2c-1.2-1.3-2.1-2.8-2.9-4.3c-0.1-0.1-0.2-0.2-0.3-0.3C7.1,33.3,6,32.8,5,32.2c0,0-0.1,0-0.2-0.1
			c0.1,0.2,0.2,0.5,0.3,0.5c0.3,0,0.2,0.2,0.3,0.4c0.1,0.2,0.1,0.4,0.2,0.6c0.7,1.5,1.8,2.6,3.2,3.5C9.6,37.7,10.5,38.2,11.4,38.7z
			 M4.1,10.9C4.1,10.9,4.1,10.9,4.1,10.9c-1.2,1.6-1.9,3.3-2.5,5.2c0,0.1,0,0.3,0,0.3c0.3,0.4,0.7,0.8,1,1.2c0.4-1,0.8-2,1.2-2.9
			c0.4-0.9,0.9-1.8,1.4-2.7C4.9,11.6,4.5,11.3,4.1,10.9z M2.3,24.4c0-0.1,0.1-0.1,0.1-0.2c0-0.2,0-0.3,0-0.5
			c-0.1-1.8-0.1-3.6,0.3-5.4c0.1-0.4,0-0.6-0.3-0.9c-0.3-0.2-0.5-0.6-0.8-0.9c0,0.1-0.1,0.2-0.1,0.2C1,18.5,0.8,20.3,0.8,22
			C0.8,23.2,1.6,23.7,2.3,24.4z M25.2,4.5c0.1,0.1,0.3,0.2,0.4,0.2c1.6,0.9,3.2,2,4.6,3.3C31,8.7,31,8.7,31.8,7.9c0,0,0,0,0-0.1
			c0.2-0.2,0.1-0.3,0-0.5c-1.6-1.4-3.4-2.5-5.4-3.3c-0.1,0-0.2-0.1-0.3,0C25.8,4.1,25.5,4.3,25.2,4.5z M30.8,8.8
			c-0.1-0.2-0.2-0.2-0.2-0.3c-1.6-1.5-3.3-2.7-5.3-3.8c-0.4-0.2-0.8-0.1-1.2,0.3c0.4,0.2,0.7,0.3,1.1,0.4c0.1,0.1,0.4,0.1,0.4,0.2
			c0,0.3,0.3,0.4,0.5,0.5c0.4,0.3,0.8,0.6,1.2,0.9c0.3,0.2,0.3,0.7,0,0.8c-0.4,0.1-0.3,0.3-0.2,0.4c0.3,0.5,0.6,1,0.9,1.4
			c0,0.1,0.2,0.1,0.3,0.1C29.1,9.5,29.9,9.2,30.8,8.8z M34.4,13.8c0.2-0.2,0.5-0.3,0.7-0.5c0.1,0,0.1-0.1,0.1-0.2
			c0-0.4-0.1-0.8-0.2-1.1c-0.1-0.3-0.2-0.5,0-0.7c0-0.1,0-0.3-0.1-0.4c-0.3-0.4-0.6-0.8-0.8-1.2c-0.2-0.2-0.3-0.4-0.6-0.3
			c-0.1,0-0.3-0.1-0.4-0.3c-0.2-0.3-0.4-0.6-0.6-0.9c-0.1-0.2-0.2-0.3-0.3-0.5c-0.4,0.4-0.8,0.7-1.1,1c0.8,1,1.5,2,2.3,2.9
			c0.2-0.2,0.4-0.4,0.6-0.6c0,0-0.1-0.1-0.1-0.1c-0.1,0.1-0.2,0.1-0.3,0.2c0.1-0.2,0.2-0.4,0.3-0.5c0.2,0.2,0.5,0.3,0.7,0.6
			c0.2,0.2,0.3,0.5,0.4,0.8c0,0.1-0.1,0.2-0.2,0.4c-0.2-0.2-0.3-0.4-0.4-0.5C33.8,12.7,34,13.2,34.4,13.8z M4.2,31.4
			C4.1,31,4,30.7,3.9,30.5c-0.3-0.9-0.7-1.8-1-2.7c-0.2-0.9-0.3-1.7-0.5-2.6c0-0.2,0-0.4-0.1-0.5c-0.4-0.4-0.8-0.9-1.3-1.3
			c0,0.3,0,0.4,0,0.6c0.2,2,0.8,3.9,1.6,5.7C2.9,30.3,3.5,30.9,4.2,31.4z M18.1,5.4c-0.7-0.1-1.2-0.2-1.8-0.3c-0.1,0-0.2,0-0.3,0.1
			c-0.6,0.5-1.1,0.9-1.6,1.4c-0.1,0.1-0.2,0.2-0.3,0.4c1-0.1,1.5,0.4,1.9,1.2c0.3-0.3,0.3,0.2,0.6,0.1c0.1-0.1,0.2-0.3,0.3-0.5
			c-0.3,0-0.6-0.1-0.8-0.1c0,0,0,0,0-0.1c0.1,0,0.2-0.1,0.3-0.1c-0.3-0.1-0.4-0.1-0.5-0.1C16,7.3,16.2,7.1,16.4,7
			c-0.1-0.1-0.3-0.3-0.5-0.4c0.1-0.1,0.2-0.2,0.3-0.2c0.4,0,0.8,0.1,1.2,0.4C17.7,6.3,17.9,5.9,18.1,5.4z M18,11.1
			c0.1,0.3,0.2,0.6,0.2,0.7c0.2,0.1,0.3,0.1,0.4,0.1c0.2,0.2,0.4,0.4,0.7,0.5c0.1,0.1,0.2,0.1,0.3,0.1c0.2,0,0.4,0,0.6,0.1
			c0,0.4,0,0.6,0.1,0.9c0.1,0.2,0.2,0.5,0.5,0.4c0.1-0.1,0.2-0.4,0.2-0.6c0-0.1-0.1-0.2-0.2-0.3c0.2-0.2,0.4-0.4,0.6-0.6
			c0.5-0.5-0.2-0.7-0.2-1.1c0-0.1-0.2-0.2-0.3-0.2C19.9,11.1,19,11.1,18,11.1z M15.9,5.1c-0.6-0.2-1.1-0.3-1.7-0.5c0,0-0.1,0-0.1,0
			c-0.6,0.3-1.3,0.7-1.9,1c0,0,0,0.1,0,0.1c0.1,0,0.2,0,0.3,0c0.2,0.1,0.5,0.2,0.6,0.4c0.2,0.2,0.3,0.4,0.5,0.6c0,0,0.2,0.1,0.3,0
			C14.6,6.2,15.2,5.6,15.9,5.1z M28.3,31.2c0,0,0.1,0.1,0.1,0.1c0.1-0.1,0.3-0.2,0.5-0.3c0,0.2,0,0.4,0,0.5c0.2-0.1,0.3-0.3,0.5-0.3
			c0.2,0,0.4,0.2,0.6,0.3c0.2,0.1,0.8,0,0.8-0.2c0.1-0.6,0.2-1.2,0.4-1.9c-0.9,0.2-1.7,0.4-2.6,0.6C28.8,30.5,28.7,30.9,28.3,31.2z
			 M36.8,14.3c-0.5,0.2-0.5,0.5-0.3,0.8c0.1,0.1,0.1,0.3,0.2,0.4c0.1,0.3,0.2,0.6,0.3,1c0,0.3-0.3,0.6-0.6,0.7
			c-0.3,0.1-0.4-0.2-0.5-0.4c-0.1-0.2-0.2-0.4-0.3-0.5c0-0.1-0.2-0.1-0.2-0.1c0.3,1.4,0.6,2.7,0.9,4c0,0,0.1,0,0.1,0
			c0.1-0.2,0.2-0.3,0.2-0.5c0-0.5-0.1-1.1-0.1-1.6c0-0.2,0-0.4,0.1-0.5c0.2-0.2,0.5-0.4,0.7-0.7c0.1-0.1,0.1-0.2,0.1-0.3
			C37.2,15.9,37,15.1,36.8,14.3z M13,3.9c0.3,0.1,0.5,0.3,0.8,0.3c0.2,0,0.5,0.1,0.6,0c1.3-0.6,2.7-1,4.1-1.3c0.2,0,0.4-0.1,0.5-0.1
			C17,2.7,15,3.1,13,3.9z M19.3,3.1c-1.7,0.2-3.3,0.6-4.8,1.4c0.5,0.2,1,0.3,1.5,0.4c0.1,0,0.2-0.1,0.3-0.1c0.7-0.4,1.4-0.9,2.1-1.3
			C18.7,3.3,19,3.2,19.3,3.1z M19.7,3.1c-1.2,0.4-2.3,1-3.3,1.9c0.6,0.1,1.1,0.2,1.7,0.3c0.1,0,0.2-0.1,0.3-0.1
			C18.8,4.4,19.2,3.8,19.7,3.1z M20.6,3c0,0.6,0,1-0.1,1.5c0,0.3,0.2,0.4,0.4,0.3c0.2,0,0.3-0.1,0.5-0.2c-0.2-0.1-0.3-0.2-0.4-0.3
			c0,0,0.1-0.1,0.1-0.1c0.2,0.1,0.4,0.3,0.7,0.4c0,0,0,0.1,0,0.1c-0.4-0.1-0.5,0.2-0.5,0.5c0.4-0.1,0.8-0.2,1.2-0.3c0,0,0-0.1,0-0.1
			c-0.1,0-0.1-0.1-0.2-0.1c0.1-0.1,0.2-0.2,0.3-0.4c-0.5-0.4-0.9-0.8-1.4-1.1C21.1,3.2,20.9,3.1,20.6,3z M20.4,3
			c-0.5,0.1-1.7,1.6-1.9,2.3c0.5,0,1,0.1,1.6,0.1C20.2,4.5,20.3,3.8,20.4,3z M10.4,13.1c0.1,0.1,0.2,0.2,0.3,0.4
			c0.2-0.3,0.2-0.3,0-0.5c-0.2-0.4-0.6-0.9-0.2-1.4c0-0.1,0-0.2,0-0.2c0,0-0.1,0-0.1,0C9.9,12.1,9.5,13,9,13.9
			c0.4,0.1,0.7,0.3,1,0.4C10.1,13.9,10.2,13.5,10.4,13.1z M35.3,13.5c-0.2,0.1-0.4,0.3-0.7,0.4c-0.1,0-0.1,0.2-0.1,0.2
			c0.2,0.6,0.5,1.3,0.7,1.9c0,0.1,0.1,0.1,0.2,0.1c0-0.1,0.1-0.1,0.1-0.2c0-0.1,0-0.1,0-0.2c-0.1-0.3-0.2-0.6,0.2-0.7
			c0.1,0,0.1-0.2,0.1-0.2c0.1,0,0.2,0,0.4,0C36,14.2,35.9,13.7,35.3,13.5z M21.2,3c0.3,0.2,0.5,0.4,0.7,0.6c0.3,0.3,0.7,0.6,1,0.8
			c0.6,0.4,1.1,0.4,1.7,0C23.8,3.8,21.9,3,21.2,3z M25.9,3.9c0,0,0-0.1,0-0.1c-1.3-0.5-2.7-0.8-4.1-1c0,0.1,0,0.1,0.1,0.1
			c1,0.5,1.9,0.9,2.9,1.3c0.1,0,0.2,0.1,0.3,0C25.3,4.2,25.6,4,25.9,3.9z M4.4,32.3c0.1-0.5-0.2-0.7-0.5-0.9
			c-0.1-0.1-0.2-0.1-0.3-0.1c0,0.1,0,0.2,0,0.3c0.4,0.6,0.9,1.3,1.4,1.9c0.1,0.1,0.1,0.1,0.3,0.2C5.3,33.4,4.7,32.3,4.4,32.3z
			 M19.9,16.6c0,0,0.1-0.2,0.1-0.3c0-0.2,0-0.4-0.1-0.5c0-0.1-0.3-0.1-0.4-0.1c-0.6,0.2-1,0.5-1.3,1.1c-0.1,0.1-0.1,0.3-0.1,0.5
			c0,0.1,0.1,0.1,0.2,0.2c0.1-0.1,0.2-0.1,0.2-0.2c0.1-0.1,0-0.3,0.1-0.4c0.1-0.3,0.3-0.5,0.4-0.8C19.3,16.3,19.6,16.4,19.9,16.6z
			 M27.1,8.5c-0.1,0.4-0.3,0.6-0.3,0.8c0,0.2,0,0.4,0.1,0.5c0.2,0.4,0.6,0.4,1.1,0C27.7,9.5,27.4,9,27.1,8.5z M18.5,15.8
			c0.3,0,0.6,0.1,0.6-0.2c0-0.2-0.2-0.5-0.3-0.7c-0.1-0.1-0.4-0.2-0.6-0.1c-0.3,0.1-0.5,0.4-0.8,0.6c0,0,0,0.1,0,0.1
			c0.2,0,0.3,0,0.5-0.1C18.5,15.3,18.5,15.3,18.5,15.8z M11.5,22C11.6,22,11.6,22,11.5,22c-0.2-0.8-0.5-1.5-0.8-2.2
			c0-0.1-0.1-0.1-0.2-0.1c0,0.1-0.1,0.2-0.1,0.3c0.1,0.6,0.2,1.2,0.7,1.6c0,0.1-0.1,0.2-0.1,0.3C11.2,21.9,11.4,21.9,11.5,22z
			 M6.8,28.9c0.3-0.2,0.5-0.4,0.8-0.5c0.2-0.2,0.2-0.4,0-0.5c-0.3-0.1-0.6-0.3-1-0.4C6.7,28,6.8,28.4,6.8,28.9z M9.4,21.3
			c0,0,0,0.1,0,0.1c0.4,0.1,0.8,0.2,1.3,0.4c-0.1-0.3-0.2-0.5-0.3-0.6C10,21.2,9.7,21.2,9.4,21.3z M25.2,18.7
			c-0.2-0.2-0.3-0.4-0.5-0.5c0,0,0,0-0.1,0c0,0.2,0.1,0.5,0.1,0.7C24.9,18.9,25.1,18.8,25.2,18.7z M36.1,26.3c0,0.3-0.1,0.5-0.1,0.7
			C36.4,26.9,36.4,26.8,36.1,26.3z M24.2,16.8c0.2-0.1,0.3-0.2,0.3-0.3c0-0.1-0.1-0.3-0.2-0.4c0,0-0.1,0-0.1,0
			C24.2,16.3,24.2,16.4,24.2,16.8z M2.7,25.6c0.1-0.5,0.1-0.5-0.2-0.7C2.6,25.2,2.7,25.4,2.7,25.6z"/>
		<path class="st0" d="M39.2,30.2c-0.6,2.2-1.2,4.3-1.8,6.4c-0.3-0.4-0.6-0.8-0.9-1.2c-0.5,0.4-1,0.9-1.5,1.3
			c-3.7,3.1-7.8,5.2-12.6,6.1c-4.8,0.9-9.4,0.2-13.7-2.2c-2-1.1-4.1-3.4-5.1-5.2c0,0,0,0,0.1-0.1c0.1,0.1,0.1,0.2,0.2,0.3
			c2.4,2.7,5.4,4.5,9,5.2c1.8,0.3,3.5,0.4,5.3,0.2c6.4-0.8,11.6-3.8,16-8.4c0.1-0.1,0.1-0.1,0.2-0.2c-0.3-0.4-0.7-0.9-1.1-1.4
			C35.2,30.8,37.2,30.5,39.2,30.2z"/>
		<path class="st0" d="M5,19.8C5,19.9,5,20,5,20c-0.4-0.1-0.7-0.2-1.1-0.3c0,0,0-0.1,0-0.1C4.3,19.7,4.7,19.8,5,19.8
			C5.1,19.9,5,19.8,5,19.8z"/>
		<path class="st0" d="M30.1,17.2c-0.2,0.1-0.3,0.1-0.5,0.2c0.1,0.1,0.1,0.2,0.1,0.3c0,0,0,0-0.1,0c-0.1-0.1-0.2-0.3-0.4-0.5
			C29.6,17.3,29.8,17.2,30.1,17.2C30,17.2,30.1,17.2,30.1,17.2z"/>
		<path class="st0" d="M11.7,26.6c-0.1-0.2-0.2-0.3-0.3-0.5c0,0,0.1,0,0.1-0.1C11.6,26.3,11.8,26.5,11.7,26.6c0,0.1-0.3,0.2-0.4,0.3
			c0,0,0-0.1-0.1-0.1C11.4,26.8,11.5,26.7,11.7,26.6z"/>
		<path class="st0" d="M21.9,24.8c-0.1,0.1-0.2,0.3-0.2,0.3c-0.2,0-0.4,0-0.5,0c-0.3-0.1-0.5-0.1-0.8-0.2c0,0,0.1,0,0.2-0.1
			c-0.5-0.4-1.1-0.7-1.8-0.6c0.1-0.3,0.3-0.4,0.6-0.4c0.3,0.1,0.6,0.2,0.9,0.3c0.5,0.2,0.9,0.4,1.4,0.6
			C21.7,24.7,21.8,24.8,21.9,24.8z"/>
		<path class="st0" d="M23.7,25.4c-0.2,0.3-0.8,0.2-0.7,0.7c-0.1-0.1-0.3-0.2-0.5-0.3c-0.3-0.2-0.4-0.4-0.4-0.7c0.2,0,0.4,0,0.7-0.1
			c-0.2-0.1-0.2-0.1-0.3-0.1c0.1-0.1,0.1-0.2,0.2-0.3c0.1,0.1,0.2,0.2,0.2,0.4c0,0-0.1,0-0.2,0.1c0,0,0,0.1,0,0.1
			C23.2,25.2,23.4,25.3,23.7,25.4z"/>
		<path class="st0" d="M18,25.2c0,0.1-0.1,0.2-0.1,0.3c0,0,0,0-0.1,0c0-0.2,0-0.4,0-0.6c0.2,0,0.4,0.1,0.6,0.1
			C18.5,25.5,18.2,25.1,18,25.2z"/>
		<path class="st0" d="M21.5,25.7c-0.4,0-0.8,0-1.3,0.1c0,0,0-0.1,0-0.1C20.6,25.7,21,25.7,21.5,25.7C21.5,25.7,21.5,25.7,21.5,25.7
			z"/>
		<path class="st0" d="M21.9,19.9c0,0.2,0.1,0.3,0.2,0.5c0.2-0.1,0.3-0.1,0.5-0.2c0,0,0,0.1,0,0.1c-0.2,0.1-0.5,0.3-0.5,0.2
			c-0.2-0.1-0.2-0.4-0.3-0.6C21.9,20,21.9,19.9,21.9,19.9z"/>
		<path class="st0" d="M34.7,22.6c-0.2-0.1-0.4-0.3-0.6-0.4c0,0,0.1-0.1,0.1-0.1c0.2,0.1,0.4,0.3,0.6,0.4
			C34.7,22.5,34.7,22.6,34.7,22.6z"/>
		<path class="st0" d="M5.5,20.3c0.2,0.2,0.3,0.3,0.5,0.4c0,0,0,0,0,0.1c-0.1-0.1-0.2-0.1-0.3-0.2c0,0.1-0.1,0.2-0.1,0.3
			c0,0,0,0-0.1,0C5.5,20.7,5.5,20.5,5.5,20.3z"/>
		<path class="st0" d="M26.5,12.2c0.2,0.6,0.8,0.6,1.2,0.7c-0.2,0-0.4,0.1-0.8,0.1c0.2,0.3,0.4,0.5,0.5,0.8c-0.1,0-0.3,0.1-0.4,0.2
			c-0.1-0.3-0.2-0.5-0.3-0.9c-0.2,0.3-0.4,0.5-0.6,0.6c0,0-0.1,0-0.1-0.1c0.2-0.5,0.6-0.9,0.2-1.5C26.4,12.3,26.4,12.2,26.5,12.2z"
			/>
		<path class="st0" d="M25.8,15.3c0.1-0.4,0.2-0.8,0.3-1.1c0.2,0.1,0.5,0.2,0.7,0.4c0.2,0.2,0.3,0.4,0.5,0.7
			C26.7,15.3,26.3,15.3,25.8,15.3z"/>
		<path class="st0" d="M20.9,9.5c0.5-0.1,1-0.5,1.1-0.9c0.1,0,0.3,0,0.4,0.1c0.1,0,0.2,0,0.3,0c0.2,0,0.5-0.1,0.7-0.1
			c0.2,0,0.4,0.2,0.6,0.4c-0.2,0.1-0.3,0.1-0.4,0.1c-0.2,0-0.4,0-0.5,0.1c-0.2,0.1-0.3,0.3,0,0.5c0.1,0.1,0.3,0.3,0.2,0.3
			c-0.1,0.1-0.2,0.3-0.4,0.3c-0.1,0-0.3,0-0.3-0.1c-0.4-0.7-0.8-0.8-1.5-0.5c0,0-0.1,0-0.2,0.1C20.9,9.7,20.9,9.6,20.9,9.5z"/>
		<path class="st0" d="M19,6.9c-0.2,0.1-0.5,0.1-0.8,0.2C18.4,6.7,18.5,6.7,19,6.9z"/>
		<path class="st0" d="M4.5,30.1c-0.1-0.3-0.1-0.5-0.2-0.8C4.7,29.5,4.6,29.8,4.5,30.1z"/>
		<path class="st0" d="M29.3,9c-0.3-0.2-0.5-0.5-0.8-0.7c0.3-0.1,0.6-0.1,0.8-0.1c0.1,0,0.3,0.3,0.3,0.4c0,0.1-0.1,0.2-0.1,0.3
			C29.5,8.9,29.3,8.9,29.3,9z"/>
		<path class="st0" d="M33.4,10.7c-0.5,0-0.6-0.4-0.9-0.7c0.1-0.1,0.2-0.1,0.3-0.2c0.2,0.3,0.5,0.5,0.7,0.8
			C33.5,10.7,33.4,10.7,33.4,10.7z"/>
	</g>
	<g>
		<path class="st0" d="M94.7,20.1c0.2-0.5,0.4-1,0.6-1.5c1.1-2.9,2.2-5.7,3.3-8.6c0.2-0.5,0.2-0.5,0.8-0.5c0.4,0,0.9,0,1.3,0
			c0.3,0,0.4,0.1,0.5,0.3c0.9,2.4,1.8,4.8,2.8,7.1c0.4,1,0.8,2,1.1,3c0,0,0,0.1,0,0.2c-0.4,0-0.9,0-1.3,0c-0.4,0-0.9,0.1-1.1-0.1
			c-0.3-0.2-0.3-0.7-0.4-1c0,0,0,0,0,0c-0.1-0.3-0.2-0.8-0.4-1c-0.2-0.2-0.7-0.1-1-0.1c-0.8,0-1.6,0-2.4,0c-0.3,0-0.4,0.1-0.5,0.4
			c-0.2,0.5-0.4,1.1-0.6,1.6c0,0.1-0.1,0.2-0.2,0.2C96.3,20.1,95.5,20.1,94.7,20.1z M100,12.6c0,0-0.1,0-0.1,0
			c-0.4,1.1-0.8,2.1-1.2,3.2c0.8,0,1.6,0,2.5,0C100.8,14.7,100.4,13.7,100,12.6z"/>
		<path class="st0" d="M55,20.1c-0.8,0-1.6,0-2.3,0c-0.1,0-0.2-0.1-0.3-0.2c-0.2-0.5-0.4-1-0.6-1.6c-0.1-0.3-0.2-0.4-0.5-0.4
			c-1.1,0-2.2,0-3.3,0c-0.2,0-0.3,0.1-0.4,0.3c-0.2,0.5-0.4,1.1-0.6,1.6c0,0.1-0.2,0.2-0.3,0.3c-0.7,0-1.5,0-2.3,0
			c0.2-0.4,0.3-0.8,0.5-1.2c1.2-3,2.4-6.1,3.5-9.1c0.1-0.2,0.2-0.3,0.4-0.3c0.6,0,1.1,0,1.7,0c0.2,0,0.3,0.1,0.4,0.3
			c1.3,3.4,2.6,6.8,4,10.2C55,19.9,55,19.9,55,20.1z M51,15.8c-0.4-1.1-0.8-2.2-1.2-3.3c0,0-0.1,0-0.1,0c-0.4,1.1-0.8,2.1-1.2,3.3
			C49.4,15.8,50.2,15.8,51,15.8z"/>
		<path class="st0" d="M90.8,20.1c-0.8,0-1.5,0-2.2,0c-0.1,0-0.1-0.1-0.2-0.2c0-0.1,0-0.1,0-0.2c0-3.3,0-6.5,0-9.8
			c0-0.4,0.1-0.5,0.5-0.5c1.7,0,3.3,0,5,0c0.2,0,0.3,0,0.5,0c0,0.7,0,1.4,0,2.1c-1.2,0-2.4,0-3.6,0c0,0.7,0,1.3,0,2
			c0,0.1,0.2,0.2,0.3,0.2c0.8,0,1.7,0,2.5,0c0.3,0,0.5,0.1,0.4,0.4c0,0.6,0,1.1,0,1.7c-0.2,0-0.3,0-0.4,0c-0.8,0-1.6,0-2.5,0
			c-0.3,0-0.4,0.1-0.4,0.4c0,1.1,0,2.2,0,3.4C90.9,19.8,90.8,19.9,90.8,20.1z"/>
		<g>
			<path class="st0" d="M77,9.4c-0.2,0.9-0.4,1.7-0.7,2.5c-0.7,2.6-1.4,5.2-2.1,7.8c-0.1,0.3-0.2,0.4-0.4,0.4c-0.7,0-1.3,0-2,0
				c-0.3,0-0.4-0.1-0.5-0.4c-0.5-1.7-1-3.5-1.4-5.2c0-0.1-0.1-0.2-0.1-0.4c-0.2,0.8-0.4,1.4-0.6,2.1c-0.3,1.2-0.6,2.3-1,3.5
				c-0.1,0.3-0.2,0.4-0.5,0.4c-0.6,0-1.3,0-1.9,0c-0.3,0-0.4-0.1-0.4-0.3c-0.8-3.1-1.7-6.2-2.5-9.3c-0.1-0.3-0.2-0.6-0.3-1
				c0.5,0,1,0,1.5,0c1,0,1,0,1.3,1c0.5,2,1,4.1,1.5,6.1c0,0.1,0,0.1,0.1,0.2c0.2-0.9,0.5-1.8,0.7-2.7c0.4-1.5,0.8-3,1.2-4.5
				c0-0.1,0.2-0.2,0.3-0.2c0.4,0,0.8,0,1.2,0c0.2,0,0.3,0.1,0.4,0.3c0.5,1.7,0.9,3.5,1.4,5.2c0.1,0.5,0.3,1,0.4,1.6
				c0,0.1,0.1,0.2,0.2,0.3c0.2-0.9,0.4-1.7,0.6-2.6c0.4-1.4,0.7-2.9,1-4.3c0.1-0.4,0.2-0.5,0.6-0.5C75.7,9.4,76.3,9.4,77,9.4z"/>
			<path class="st0" d="M87,20.1c-0.8,0-1.6,0-2.3,0c-0.1,0-0.3-0.2-0.3-0.3c-0.2-0.5-0.4-1-0.6-1.6c-0.1-0.2-0.2-0.3-0.4-0.3
				c-1.1,0-2.2,0-3.2,0c-0.3,0-0.4,0.1-0.4,0.3c-0.2,0.5-0.4,1.1-0.6,1.6c0,0.1-0.2,0.2-0.3,0.2c-0.7,0-1.5,0-2.3,0
				c0-0.1,0-0.2,0.1-0.3c1.3-3.3,2.5-6.7,3.8-10c0.1-0.3,0.2-0.4,0.5-0.3c0.5,0,1.1,0,1.6,0c0.2,0,0.4,0.1,0.5,0.3
				c1,2.6,2,5.1,3,7.7C86.3,18.3,86.6,19.1,87,20.1z M82.9,15.8c-0.4-1.1-0.8-2.2-1.2-3.3c-0.4,1.2-0.8,2.2-1.2,3.3
				C81.3,15.8,82.1,15.8,82.9,15.8z"/>
			<path class="st0" d="M56.5,20c0-3.5,0-7.1,0-10.6c0.8,0,1.6,0,2.4,0c0,2.8,0,5.6,0,8.5c0.2,0,0.3,0,0.4,0c0.9,0,1.9,0,2.8,0
				c0.3,0,0.4,0.1,0.4,0.4c0,0.6,0,1.1,0,1.8C60.5,20,58.5,20,56.5,20z"/>
			<g>
				<path class="st0" d="M92.3,30c-1.9,0-3.3-1.4-3.3-3.4c0-2,1.5-3.5,3.4-3.5c1.8,0,3.3,1.5,3.3,3.5C95.7,28.6,94.3,30,92.3,30z
					 M94.1,26.6c-0.1-0.3-0.1-0.6-0.2-0.9c-0.2-0.7-0.8-1.1-1.6-1.1c-0.7,0-1.3,0.4-1.5,1.2c-0.2,0.5-0.2,1.1,0,1.7
					c0.3,1,1.2,1.4,2.2,1.1C93.7,28.2,94.1,27.5,94.1,26.6z"/>
				<path class="st0" d="M80.2,26.3c0.1,0,0.2,0,0.3,0c0.8,0,1.6,0,2.4,0c0.2,0,0.3,0.1,0.3,0.3c0,0.3,0,0.7,0,1
					c-0.1,1.3-1.3,2.3-2.7,2.5c-1.9,0.2-3.1-1.1-3.5-2.5c-0.4-1.7,0.3-3.4,1.8-4.1c1.1-0.6,2.7-0.3,3.6,0.6c0.1,0.1,0.2,0.2,0.3,0.3
					c-0.3,0.3-0.6,0.7-1,1c-0.1-0.1-0.2-0.2-0.3-0.3c-0.7-0.8-1.9-0.7-2.5,0.2c-0.6,0.9-0.5,2.3,0.3,3c0.4,0.4,0.9,0.5,1.5,0.3
					c0.5-0.2,0.9-0.5,1-1c0-0.1,0-0.1,0-0.2c-0.4,0-0.8,0-1.2,0c-0.3,0-0.4-0.1-0.3-0.3C80.2,26.8,80.2,26.5,80.2,26.3z"/>
				<path class="st0" d="M85.4,27.4c0,0.8,0,1.7,0,2.5c-0.5,0-0.9,0-1.3,0c-0.1,0-0.1-0.2-0.1-0.3c0-1.6,0-3.2,0-4.8
					c0-0.4,0-0.8,0-1.2c0-0.2,0.1-0.3,0.3-0.3c0.8,0,1.6,0,2.4,0c0.9,0,1.6,0.6,1.8,1.4c0.2,1-0.2,1.9-1,2.3c-0.1,0-0.2,0.1-0.3,0.2
					c0.7,0.9,1.4,1.8,2.2,2.7c-0.7,0-1.2,0-1.8,0c-0.1,0-0.2-0.1-0.2-0.2c-0.6-0.7-1.1-1.5-1.7-2.2C85.5,27.4,85.5,27.4,85.4,27.4
					C85.4,27.3,85.4,27.4,85.4,27.4z M85.4,24.4c0,0.4,0,0.8,0,1.1c0,0.7,0.1,0.7,0.8,0.6c0,0,0,0,0.1,0c0.4-0.1,0.6-0.4,0.7-0.8
					c0-0.4-0.2-0.7-0.6-0.8C86,24.5,85.7,24.5,85.4,24.4z"/>
				<path class="st0" d="M96.3,23.3c0.5,0,1,0,1.5,0c0,0.1,0,0.3,0,0.4c0,1.1,0,2.2,0,3.3c0,0.2,0,0.4,0.1,0.7
					c0.1,0.9,0.9,1,1.5,0.9c0.2-0.1,0.4-0.3,0.5-0.5c0.1-0.2,0.1-0.5,0.1-0.8c0-1.2,0-2.3,0-3.5c0-0.1,0-0.3,0-0.4c0.5,0,1,0,1.4,0
					c0,0.1,0,0.2,0,0.2c0,1.4,0,2.9,0,4.3c0,0.8-0.3,1.5-1,1.8c-1,0.5-2.1,0.5-3.1,0c-0.4-0.2-0.7-0.6-0.8-1.1
					c-0.1-0.4-0.2-0.8-0.2-1.2c0-1.3,0-2.5,0-3.8C96.2,23.5,96.3,23.4,96.3,23.3z"/>
				<path class="st0" d="M102.3,29.9c0-2.2,0-4.4,0-6.6c0.3,0,0.7,0,1,0c0.6,0,1.2,0,1.8,0c1.1,0,1.8,0.8,1.9,1.9
					c0.1,1.1-0.6,2-1.6,2.2c-0.4,0.1-0.8,0.1-1.2,0.1c-0.3,0-0.4,0.1-0.4,0.4c0,0.6,0,1.2,0,1.8c0,0.2-0.1,0.3-0.3,0.3
					C103.1,29.9,102.7,29.9,102.3,29.9z M103.8,25.3C103.8,25.3,103.8,25.3,103.8,25.3c0,0.2,0,0.4,0,0.7c0,0.1,0.1,0.2,0.2,0.2
					c0.3,0,0.6,0,0.9-0.1c0.4-0.1,0.7-0.5,0.6-1c-0.1-0.5-0.7-0.8-1.4-0.7c-0.5,0.1-0.1,0.5-0.2,0.7
					C103.8,25.2,103.8,25.3,103.8,25.3z"/>
			</g>
			<g>
				<path class="st0" d="M60.5,30c-2,0-3.4-1.4-3.4-3.4c0-1.9,1.5-3.4,3.3-3.5c1.8,0,3.3,1.5,3.4,3.4C63.8,28.5,62.5,30,60.5,30z
					 M58.7,26.6c0.1,0.3,0.1,0.7,0.2,1c0.2,0.7,0.8,1.1,1.6,1.1c0.7,0,1.3-0.4,1.5-1c0.2-0.7,0.2-1.3,0-2c-0.3-0.8-1.2-1.2-2-1
					C59.2,24.9,58.8,25.6,58.7,26.6z"/>
				<path class="st0" d="M64.5,23.3c1,0,1.9-0.1,2.9,0c0.9,0.1,1.5,0.7,1.6,1.5c0.2,1-0.2,1.8-1,2.2c-0.1,0-0.1,0.1-0.3,0.1
					c0.7,0.9,1.4,1.8,2.2,2.7c-0.6,0-1.2,0-1.8,0c-0.1,0-0.2-0.1-0.3-0.2c-0.5-0.7-1.1-1.4-1.6-2.1c-0.1-0.1-0.1-0.2-0.3-0.3
					c0,0.4,0,0.7,0,1.1c0,0.5,0,0.9,0,1.4c0,0.2-0.1,0.3-0.3,0.3c-0.4,0-0.8,0-1.2,0C64.5,27.7,64.5,25.5,64.5,23.3z M66,26.2
					c0.7,0.1,1.1,0,1.3-0.4c0.2-0.3,0.2-0.7,0-1c-0.3-0.4-0.8-0.4-1.3-0.4C66,25.1,66,25.6,66,26.2z"/>
				<path class="st0" d="M45.2,23.3c0.6,0,1.1,0,1.7,0c0.1,0,0.2,0.1,0.3,0.2c0.3,0.5,0.7,1,1.1,1.5c0.2-0.3,0.4-0.6,0.6-0.9
					c0.3-0.7,0.9-1,1.7-0.9c0.2,0,0.4,0,0.7,0c-0.3,0.5-0.6,0.9-0.8,1.2c-0.4,0.5-0.7,1.1-1.1,1.6c-0.1,0.2-0.1,0.3,0,0.5
					c0.7,1,1.4,1.9,2.1,2.9c0.1,0.1,0.2,0.2,0.3,0.4c-0.6,0-1.2,0-1.8,0c-0.1,0-0.2-0.1-0.3-0.2c-0.5-0.6-0.9-1.3-1.4-2
					c-0.4,0.7-0.9,1.3-1.3,1.9c-0.2,0.2-0.3,0.4-0.6,0.3c-0.4,0-0.9,0-1.4,0c0.1-0.2,0.2-0.3,0.2-0.4c0.7-1,1.3-2,2-2.9
					c0.1-0.2,0.1-0.3,0-0.5C46.5,25.2,45.9,24.3,45.2,23.3z"/>
				<path class="st0" d="M44.4,27.2c-0.6,0-1.2,0-1.8,0c-0.3,0-0.4,0.1-0.4,0.4c0,1,0,1,1,1c0.4,0,0.8,0,1.3,0c0,0.4,0,0.8,0,1.3
					c-1.3,0-2.5,0-3.8,0c0-0.1,0-0.2,0-0.3c0-2,0-3.9,0-5.9c0-0.3,0.1-0.4,0.4-0.4c1,0,2,0,3,0c0.3,0,0.4,0.1,0.4,0.4
					c0,0.3,0,0.6,0,0.9c-0.6,0-1.2,0-1.7,0c-0.5,0-0.5,0-0.5,0.5c0,0.8,0,0.8,0.8,0.8c0.3,0,0.7,0,1,0c0.2,0,0.3,0,0.3,0.3
					C44.4,26.5,44.4,26.8,44.4,27.2z"/>
				<path class="st0" d="M53.5,27.4c0,0.8,0,1.6,0,2.5c-0.5,0-1,0-1.5,0c0-2.2,0-4.4,0-6.6c0.1,0,0.1,0,0.2,0c0.9,0,1.7,0,2.6,0
					c1,0,1.7,0.6,1.9,1.6c0.2,0.9-0.2,1.9-1,2.3c-0.4,0.2-0.8,0.2-1.2,0.3C54.1,27.5,53.8,27.4,53.5,27.4z M53.5,25.3
					C53.5,25.3,53.5,25.3,53.5,25.3c0,0.2,0,0.4,0,0.7c0,0.1,0.1,0.2,0.2,0.2c0.3,0,0.7,0,1-0.1c0.4-0.1,0.6-0.6,0.5-1.1
					c-0.1-0.4-0.8-0.7-1.4-0.6c-0.4,0.1-0.1,0.5-0.2,0.7C53.5,25.2,53.5,25.3,53.5,25.3z"/>
				<path class="st0" d="M69.6,24.6c0-0.5,0-0.9,0-1.3c1.5,0,3,0,4.6,0c0,0.4,0,0.8,0,1.3c-0.4,0-0.7,0-1.1,0
					c-0.3,0-0.4,0.1-0.4,0.4c0,1.5,0,3,0,4.5c0,0.1,0,0.3,0,0.5c-0.5,0-0.9,0-1.3,0c-0.1,0-0.2-0.2-0.2-0.3c0-0.9,0-1.8,0-2.7
					c0-0.6,0-1.2,0-1.8c0-0.5,0-0.5-0.5-0.5C70.3,24.6,70,24.6,69.6,24.6z"/>
			</g>
		</g>
	</g>
</g>
</svg>
