<svg width="30" height="30" viewBox="0 0 30 30" fill="none" xmlns="http://www.w3.org/2000/svg">
<g clip-path="url(#clip0_208_391)">
<path d="M29.0623 18.2813H25.8561C26.8562 15.6657 26.9935 12.7989 26.2481 10.0997C25.5026 7.40053 23.9134 5.01052 21.7127 3.27896C19.5121 1.54739 16.8153 0.565043 14.0165 0.47547C11.2177 0.385896 8.46366 1.19379 6.15678 2.7811C3.8499 4.3684 2.11114 6.6519 1.19462 9.29788C0.278095 11.9439 0.231846 14.8136 1.06263 17.4878C1.89342 20.1619 3.55768 22.5002 5.81222 24.1611C8.06675 25.8219 10.7934 26.7181 13.5936 26.7188V29.0625C13.5936 29.1868 13.643 29.3061 13.7309 29.394C13.8188 29.4819 13.938 29.5313 14.0623 29.5313H29.0623C29.1867 29.5313 29.3059 29.4819 29.3938 29.394C29.4817 29.3061 29.5311 29.1868 29.5311 29.0625V18.75C29.5311 18.6257 29.4817 18.5065 29.3938 18.4185C29.3059 18.3306 29.1867 18.2813 29.0623 18.2813ZM20.1598 18.2813C20.4379 16.8916 20.5893 15.4795 20.6122 14.0625H25.7684C25.7166 15.513 25.4033 16.9421 24.8436 18.2813H20.1598ZM14.0623 18.2813C13.938 18.2813 13.8188 18.3306 13.7309 18.4185C13.643 18.5065 13.5936 18.6257 13.5936 18.75V19.2188C11.8407 19.2101 10.0936 19.4203 8.3928 19.8445C7.83371 17.9669 7.5353 16.0214 7.50593 14.0625H9.37483V16.875C9.37483 16.9993 9.42422 17.1186 9.51213 17.2065C9.60003 17.2944 9.71926 17.3438 9.84358 17.3438H11.7186C11.8429 17.3438 11.9621 17.2944 12.05 17.2065C12.1379 17.1186 12.1873 16.9993 12.1873 16.875V14.0625H14.9998V14.5313H14.5311C14.4384 14.5313 14.3478 14.5588 14.2707 14.6103C14.1936 14.6618 14.1336 14.735 14.0981 14.8206C14.0626 14.9063 14.0534 15.0005 14.0714 15.0914C14.0895 15.1823 14.1341 15.2659 14.1997 15.3314L16.0747 17.2064C16.1626 17.2943 16.2818 17.3437 16.4061 17.3437C16.5304 17.3437 16.6496 17.2943 16.7375 17.2064L18.6125 15.3314C18.678 15.2659 18.7227 15.1823 18.7407 15.0914C18.7588 15.0005 18.7495 14.9063 18.7141 14.8206C18.6786 14.735 18.6185 14.6618 18.5415 14.6103C18.4644 14.5588 18.3738 14.5313 18.2811 14.5313H17.8123V14.0625H19.6747C19.6524 15.4804 19.4954 16.893 19.2059 18.2813H14.0623ZM4.43046 21.6164C2.58718 19.52 1.52317 16.8521 1.4178 14.0625H6.56843C6.59105 16.1102 6.89225 18.1453 7.46374 20.1117C6.37557 20.44 5.35022 20.9486 4.43046 21.6164ZM7.46374 7.07813C6.89246 9.04382 6.59126 11.0781 6.56843 13.125H1.4178C1.52317 10.3354 2.58718 7.66754 4.43046 5.5711C5.35006 6.2397 6.37541 6.74912 7.46374 7.07813ZM13.5936 1.40625C15.575 1.40625 17.3708 3.41532 18.4916 6.44813C16.8888 6.84152 15.2439 7.03735 13.5936 7.03125C11.9433 7.03735 10.2984 6.84152 8.69561 6.44813C9.8164 3.41532 11.6122 1.40625 13.5936 1.40625ZM13.5936 7.96875C15.3472 7.97763 17.0952 7.76741 18.7967 7.34297C19.355 9.2207 19.6526 11.1662 19.6812 13.125H17.8123V10.3125C17.8123 10.1882 17.7629 10.069 17.675 9.98105C17.5871 9.89314 17.4679 9.84375 17.3436 9.84375H15.4686C15.3443 9.84375 15.225 9.89314 15.1371 9.98105C15.0492 10.069 14.9998 10.1882 14.9998 10.3125V13.125H12.1873V12.6563H12.6561C12.7488 12.6562 12.8394 12.6287 12.9165 12.5772C12.9935 12.5257 13.0536 12.4525 13.0891 12.3669C13.1245 12.2812 13.1338 12.187 13.1157 12.0961C13.0977 12.0052 13.053 11.9217 12.9875 11.8561L11.1125 9.9811C11.0246 9.89322 10.9054 9.84385 10.7811 9.84385C10.6568 9.84385 10.5376 9.89322 10.4497 9.9811L8.57468 11.8561C8.50914 11.9217 8.46451 12.0052 8.44643 12.0961C8.42836 12.187 8.43764 12.2812 8.47311 12.3669C8.50858 12.4525 8.56864 12.5257 8.64571 12.5772C8.72278 12.6287 8.81339 12.6562 8.90608 12.6563H9.37483V13.125H7.50593C7.5353 11.1661 7.83371 9.22059 8.3928 7.34297C10.0936 7.76722 11.8407 7.97744 13.5936 7.96875ZM22.7567 5.5711C24.6 7.66754 25.664 10.3354 25.7694 13.125H20.6187C20.5959 11.0781 20.2947 9.04382 19.7234 7.07813C20.8118 6.74912 21.8371 6.2397 22.7567 5.5711ZM17.1786 15.4392L16.4061 16.2122L15.6331 15.4392C15.7225 15.4057 15.7996 15.3457 15.8539 15.2672C15.9083 15.1887 15.9374 15.0955 15.9373 15V10.7813H16.8748V15C16.8748 15.0955 16.9039 15.1887 16.9582 15.2672C17.0126 15.3457 17.0892 15.4057 17.1786 15.4392ZM10.0067 11.7483L10.7811 10.9753L11.5541 11.7483C11.4646 11.7818 11.3876 11.8418 11.3332 11.9203C11.2789 11.9988 11.2498 12.092 11.2498 12.1875V16.4063H10.3123V12.1875C10.3124 12.092 10.2833 11.9988 10.2289 11.9203C10.1746 11.8418 10.0975 11.7818 10.0081 11.7483H10.0067ZM20.1561 19.2188H22.9686V22.9688H20.1561V19.2188ZM22.107 4.88391C21.2894 5.45597 20.3857 5.89382 19.43 6.18094C18.8949 4.53717 17.9772 3.04389 16.7525 1.82391C18.7702 2.36798 20.614 3.42172 22.107 4.88391ZM7.75718 6.18094C6.80149 5.89382 5.89777 5.45597 5.08015 4.88391C6.57313 3.42172 8.41701 2.36798 10.4347 1.82391C9.20994 3.04389 8.29229 4.53717 7.75718 6.18094ZM5.08015 22.3059C5.89777 21.7339 6.80149 21.296 7.75718 21.0089C8.29196 22.6535 9.20963 24.1476 10.4347 25.3683C8.41653 24.8229 6.5726 23.7675 5.08015 22.3036V22.3059ZM8.69561 20.7417C10.2983 20.3475 11.9432 20.1509 13.5936 20.1563V25.7813C11.6122 25.7813 9.8164 23.7722 8.69561 20.7394V20.7417ZM28.5936 28.5938H14.5311V19.2188H19.2186V23.4375C19.2186 23.5618 19.268 23.6811 19.3559 23.769C19.4438 23.8569 19.563 23.9063 19.6873 23.9063H23.4373C23.5617 23.9063 23.6809 23.8569 23.7688 23.769C23.8567 23.6811 23.9061 23.5618 23.9061 23.4375V19.2188H28.5936V28.5938Z" fill="#0E131E"/>
<path d="M23.4375 24.8438C23.3132 24.8438 23.194 24.8931 23.106 24.981C23.0181 25.069 22.9688 25.1882 22.9688 25.3125V27.1875C22.9688 27.3118 23.0181 27.431 23.106 27.519C23.194 27.6069 23.3132 27.6562 23.4375 27.6562H27.1875C27.3118 27.6562 27.431 27.6069 27.519 27.519C27.6069 27.431 27.6562 27.3118 27.6562 27.1875V25.3125C27.6562 25.1882 27.6069 25.069 27.519 24.981C27.431 24.8931 27.3118 24.8438 27.1875 24.8438H23.4375ZM26.7188 26.7188H23.9062V25.7812H26.7188V26.7188Z" fill="#0E131E"/>
<path d="M22.0312 20.1562H21.0938V22.0312H22.0312V20.1562Z" fill="#0E131E"/>
</g>
<defs>
<clipPath id="clip0_208_391">
<rect width="30" height="30" fill="white"/>
</clipPath>
</defs>
</svg>
