<svg width="30" height="30" viewBox="0 0 30 30" fill="none" xmlns="http://www.w3.org/2000/svg">
<g clip-path="url(#clip0_208_327)">
<path d="M0.642415 22.7783L7.93408 18.6116L7.9221 18.5902C8.00238 18.6458 8.09694 18.6771 8.1945 18.6803H9.332C9.2042 19.0158 9.2042 19.3865 9.332 19.722H9.23617C9.09803 19.722 8.96556 19.7769 8.86788 19.8746C8.7702 19.9722 8.71533 20.1047 8.71533 20.2428V23.8887H6.632C6.49387 23.8887 6.36139 23.9435 6.26371 24.0412C6.16604 24.1389 6.11117 24.2714 6.11117 24.4095V28.5762C6.11117 28.7143 6.16604 28.8468 6.26371 28.9445C6.36139 29.0421 6.49387 29.097 6.632 29.097H22.257C22.3951 29.097 22.5276 29.0421 22.6253 28.9445C22.723 28.8468 22.7778 28.7143 22.7778 28.5762V24.4095C22.7778 24.2714 22.723 24.1389 22.6253 24.0412C22.5276 23.9435 22.3951 23.8887 22.257 23.8887H14.9653V20.2428C14.9653 20.1047 14.9105 19.9722 14.8128 19.8746C14.7151 19.7769 14.5826 19.722 14.4445 19.722H14.3487C14.4765 19.3865 14.4765 19.0158 14.3487 18.6803H23.3945C23.3328 18.8471 23.3004 19.0233 23.2987 19.2012C23.2987 19.6156 23.4633 20.013 23.7563 20.306C24.0493 20.5991 24.4468 20.7637 24.8612 20.7637C25.2756 20.7637 25.673 20.5991 25.966 20.306C26.259 20.013 26.4237 19.6156 26.4237 19.2012C26.4219 19.0233 26.3895 18.8471 26.3278 18.6803H26.9445C27.4573 18.6797 27.952 18.4901 28.334 18.1479C28.7159 17.8057 28.9585 17.3348 29.0153 16.8251L29.4065 16.434C29.6899 16.1509 29.893 15.7975 29.9951 15.4102C30.0972 15.0228 30.0946 14.6152 29.9875 14.2292C29.8804 13.8432 29.6728 13.4925 29.3857 13.2131C29.0987 12.9336 28.7426 12.7354 28.3539 12.6387L27.8242 12.5043L27.806 12.4678C27.4889 11.8287 26.9991 11.2912 26.392 10.9163C25.785 10.5415 25.085 10.3442 24.3716 10.347H18.306L13.2502 5.29128C13.1526 5.19359 13.0201 5.1387 12.882 5.13867H9.757C9.66481 5.13869 9.57428 5.16317 9.49466 5.20963C9.41503 5.25608 9.34916 5.32283 9.30377 5.40307C9.25838 5.48331 9.2351 5.57415 9.23631 5.66633C9.23752 5.75851 9.26317 5.84871 9.31064 5.92773L11.9622 10.347H7.42106L4.97314 6.9194C4.92491 6.85183 4.86121 6.79676 4.78737 6.7588C4.71353 6.72084 4.63169 6.70108 4.54867 6.70117H2.46533C2.3272 6.70117 2.19472 6.75605 2.09705 6.85372C1.99937 6.9514 1.9445 7.08387 1.9445 7.22201V11.9095H1.42367C1.28553 11.9095 1.15306 11.9644 1.05538 12.0621C0.957705 12.1597 0.902832 12.2922 0.902832 12.4303V15.0345C0.902832 15.1726 0.957705 15.3051 1.05538 15.4028C1.15306 15.5005 1.28553 15.5553 1.42367 15.5553H6.632V17.1178C6.63203 17.256 6.68692 17.3884 6.7846 17.4861L7.15491 17.8564L5.82575 18.6158L4.982 17.3496C4.90878 17.2399 4.79666 17.1621 4.66829 17.1318C4.53991 17.1016 4.40484 17.1211 4.29033 17.1866L0.644499 19.2699C0.582485 19.3054 0.528419 19.3532 0.485664 19.4104C0.442908 19.4676 0.412375 19.533 0.395962 19.6025C0.37955 19.672 0.377608 19.7441 0.390259 19.8144C0.402909 19.8847 0.429882 19.9516 0.469499 20.0111L1.27367 21.2168L0.121582 21.8741L0.642415 22.7783ZM4.38721 18.3324L4.84971 19.0257L2.11012 20.5908L1.64762 19.8975L4.38721 18.3324ZM10.2778 19.2012C10.2778 19.0982 10.3084 18.9975 10.3656 18.9118C10.4228 18.8262 10.5042 18.7594 10.5994 18.72C10.6945 18.6806 10.7992 18.6703 10.9003 18.6903C11.0013 18.7104 11.0941 18.76 11.167 18.8329C11.2398 18.9057 11.2894 18.9985 11.3095 19.0996C11.3296 19.2006 11.3193 19.3053 11.2799 19.4005C11.2404 19.4957 11.1737 19.577 11.088 19.6342C11.0024 19.6915 10.9017 19.722 10.7987 19.722C10.6605 19.722 10.5281 19.6671 10.4304 19.5695C10.3327 19.4718 10.2778 19.3393 10.2778 19.2012ZM7.15283 24.9303H11.3195V28.0553H7.15283V24.9303ZM21.7362 28.0553H17.5695V24.9303H21.7362V28.0553ZM16.5278 28.0553H12.3612V24.9303H16.5278V28.0553ZM9.757 23.8887V20.7637H13.9237V23.8887H9.757ZM13.4028 19.2012C13.4028 19.3042 13.3723 19.4049 13.3151 19.4905C13.2578 19.5762 13.1765 19.6429 13.0813 19.6824C12.9861 19.7218 12.8814 19.7321 12.7804 19.712C12.6794 19.6919 12.5866 19.6423 12.5137 19.5695C12.4409 19.4966 12.3913 19.4038 12.3712 19.3028C12.3511 19.2018 12.3614 19.097 12.4008 19.0019C12.4402 18.9067 12.507 18.8253 12.5926 18.7681C12.6783 18.7109 12.779 18.6803 12.882 18.6803C13.0201 18.6803 13.1526 18.7352 13.2503 18.8329C13.348 18.9306 13.4028 19.063 13.4028 19.2012ZM25.382 19.2012C25.382 19.3042 25.3515 19.4049 25.2942 19.4905C25.237 19.5762 25.1556 19.6429 25.0605 19.6824C24.9653 19.7218 24.8606 19.7321 24.7596 19.712C24.6585 19.6919 24.5657 19.6423 24.4929 19.5695C24.42 19.4966 24.3704 19.4038 24.3503 19.3028C24.3302 19.2018 24.3406 19.097 24.38 19.0019C24.4194 18.9067 24.4862 18.8253 24.5718 18.7681C24.6575 18.7109 24.7582 18.6803 24.8612 18.6803C24.9993 18.6803 25.1318 18.7352 25.2295 18.8329C25.3271 18.9306 25.382 19.063 25.382 19.2012ZM12.6664 6.18034L19.4372 12.9512H14.7393L10.6768 6.18034H12.6664ZM2.98617 7.74284H4.28044L6.632 11.0345V11.9095H2.98617V7.74284ZM1.9445 14.5137V12.9512H7.15283C7.29097 12.9512 7.42344 12.8963 7.52112 12.7986C7.61879 12.7009 7.67367 12.5685 7.67367 12.4303V11.3887H12.5872L13.9981 13.7402C14.0444 13.8173 14.1099 13.881 14.1881 13.9253C14.2663 13.9696 14.3546 13.9928 14.4445 13.9928H20.6945C20.7975 13.9928 20.8982 13.9623 20.9838 13.905C21.0694 13.8478 21.1362 13.7665 21.1756 13.6713C21.215 13.5761 21.2253 13.4714 21.2052 13.3704C21.1851 13.2694 21.1355 13.1766 21.0627 13.1038L19.3476 11.3887H24.3716C24.8916 11.3867 25.4017 11.5305 25.8442 11.8037C26.2866 12.0769 26.6436 12.4687 26.8747 12.9345L26.9997 13.1845C27.0332 13.2513 27.0807 13.3101 27.1389 13.3569C27.1972 13.4037 27.2648 13.4375 27.3372 13.4559L28.1002 13.6496C28.3102 13.7015 28.5026 13.8082 28.6577 13.9589C28.8129 14.1096 28.9252 14.2988 28.9831 14.5072C29.0411 14.7155 29.0427 14.9356 28.9876 15.1447C28.9326 15.3539 28.823 15.5447 28.67 15.6975L28.1388 16.2288C28.0411 16.3264 27.9862 16.4589 27.9862 16.597C27.9862 16.8733 27.8764 17.1382 27.6811 17.3336C27.4857 17.5289 27.2208 17.6387 26.9445 17.6387H8.41012L7.67367 16.9022V15.0345C7.67367 14.8964 7.61879 14.7639 7.52112 14.6662C7.42344 14.5685 7.29097 14.5137 7.15283 14.5137H1.9445Z" fill="#0E131E"/>
<path d="M8.19434 25.9717H10.2777V27.0133H8.19434V25.9717Z" fill="#0E131E"/>
<path d="M13.4028 25.9717H15.4862V27.0133H13.4028V25.9717Z" fill="#0E131E"/>
<path d="M10.7988 21.8057H12.8822V22.8473H10.7988V21.8057Z" fill="#0E131E"/>
<path d="M23.2988 12.4307H25.3822V13.4723H23.2988V12.4307Z" fill="#0E131E"/>
<path d="M18.6113 25.9717H20.6947V27.0133H18.6113V25.9717Z" fill="#0E131E"/>
</g>
<defs>
<clipPath id="clip0_208_327">
<rect width="30" height="30" fill="white"/>
</clipPath>
</defs>
</svg>
