<svg width="34" height="34" viewBox="0 0 34 34" fill="none" xmlns="http://www.w3.org/2000/svg">
<g clip-path="url(#clip0_208_425)">
<path d="M7.52739 24.3251C7.74653 23.5069 7.63412 22.6524 7.21078 21.9196C6.78744 21.1867 6.10369 20.6617 5.28547 20.4425C4.46725 20.2234 3.61274 20.3358 2.8799 20.7591C2.14635 21.1825 1.62198 21.8662 1.40284 22.6844C1.1837 23.5027 1.29611 24.3572 1.71945 25.09C2.14279 25.8228 2.82654 26.3479 3.64476 26.5671C3.91798 26.6403 4.19475 26.6766 4.47081 26.6766C5.02008 26.6766 5.56224 26.5322 6.05104 26.2504C6.78388 25.8264 7.30825 25.1434 7.52739 24.3251ZM5.62343 25.5105C4.51705 26.1494 3.09762 25.7688 2.4587 24.6624C1.81977 23.556 2.20042 22.1366 3.3068 21.4984C3.67109 21.2885 4.0681 21.1882 4.46156 21.1882C5.2627 21.1882 6.04321 21.6037 6.47153 22.3458C7.10974 23.4521 6.72981 24.8723 5.62343 25.5105ZM30.6816 24.0142C30.5329 24.0021 30.3892 24.0676 30.3009 24.1885L29.5717 25.1903L28.8424 24.1885C28.7549 24.0683 28.6104 24.0021 28.4617 24.0142C26.5186 24.175 24.9967 25.8285 24.9967 27.7787V29.0651C22.6958 30.9278 19.8071 31.9524 16.8387 31.9524C14.431 31.9524 12.0852 31.2878 10.0461 30.032L9.26985 28.688C9.11332 28.417 8.85931 28.2227 8.5555 28.1409C8.48009 28.121 8.40467 28.1082 8.32854 28.1032L7.61704 26.8702C9.14604 25.4386 9.55089 23.0893 8.45945 21.1988C7.50107 19.5396 5.66043 18.7008 3.86888 18.932C3.88596 14.3621 6.29579 10.1642 10.2033 7.83552C10.2787 7.9024 10.3769 7.94296 10.4858 7.94296H11.023C11.0543 8.80742 11.7665 9.50113 12.6388 9.50113C13.5111 9.50113 14.2233 8.80742 14.2546 7.94296H14.9632C14.9945 8.80742 15.7067 9.50113 16.579 9.50113C17.4513 9.50113 18.1635 8.80742 18.1948 7.94296H19.499H19.8832C19.9145 8.80742 20.6267 9.50113 21.499 9.50113C22.3713 9.50113 23.0835 8.80742 23.1148 7.94296H23.499C23.5424 7.94296 23.5837 7.93655 23.6236 7.92446C27.4187 10.2582 29.7709 14.4097 29.8093 18.8715C29.7317 18.8637 29.6535 18.8594 29.5738 18.8594C28.2718 18.8594 27.2123 19.9188 27.2123 21.2209C27.2123 22.5229 28.2718 23.5823 29.5738 23.5823C30.8758 23.5823 31.9352 22.5229 31.9352 21.2209C31.9352 20.3116 31.4187 19.5218 30.6638 19.127C30.6645 19.0779 30.6652 19.0288 30.6652 18.9811C30.6652 16.503 30.0014 14.0718 28.7463 11.9501C27.5702 9.96289 25.9067 8.29443 23.9267 7.10979V6.09449C23.9267 5.39153 23.4179 4.80668 22.7498 4.68431L21.4208 2.44238C21.3439 2.31218 21.2045 2.23249 21.0536 2.23249H19.9252V0.279436C19.9252 0.0439314 19.7338 -0.147461 19.4983 -0.147461H10.4844C10.2489 -0.147461 10.0575 0.0439314 10.0575 0.279436V6.93121C5.70596 9.38373 3.01366 13.9771 3.01366 18.9818C3.01366 19.0302 3.01438 19.0786 3.01509 19.127C2.72266 19.2237 2.43593 19.3518 2.15916 19.5112C-0.0429209 20.7826 -0.799952 23.6087 0.471491 25.8107C1.32457 27.2885 2.87777 28.116 4.47294 28.116C4.91834 28.116 5.36729 28.0512 5.80486 27.9182L6.51636 29.1498C6.34916 29.4899 6.34916 29.9054 6.55193 30.2576L8.45803 33.5596C8.67575 33.9367 9.07205 34.1473 9.47831 34.1473C9.67753 34.1473 9.8796 34.0968 10.0646 33.9901L10.7455 33.5974C11.3069 33.2729 11.5004 32.5522 11.1759 31.9908L10.865 31.4529C12.7199 32.3423 14.7576 32.8076 16.838 32.8076C20.0106 32.8076 23.097 31.7098 25.5524 29.7147H33.7197C33.9552 29.7147 34.1466 29.5233 34.1466 29.2878V27.7787C34.1466 25.8285 32.6247 24.175 30.6816 24.0142ZM29.5717 22.7285C28.7406 22.7285 28.064 22.0519 28.064 21.2209C28.064 20.3899 28.7406 19.7132 29.5717 19.7132C30.4027 19.7132 31.0793 20.3899 31.0793 21.2209C31.0793 22.0519 30.4027 22.7285 29.5717 22.7285ZM12.6388 8.64662C12.2176 8.64662 11.8753 8.3044 11.8753 7.88319C11.8753 7.46198 12.2176 7.11975 12.6388 7.11975C13.06 7.11975 13.4022 7.46198 13.4022 7.88319C13.4022 8.3044 13.0593 8.64662 12.6388 8.64662ZM16.5783 8.64662C16.1571 8.64662 15.8149 8.3044 15.8149 7.88319C15.8149 7.46198 16.1571 7.11975 16.5783 7.11975C16.9995 7.11975 17.3418 7.46198 17.3418 7.88319C17.3418 8.3044 16.9995 8.64662 16.5783 8.64662ZM17.9857 7.08916C17.7075 6.59894 17.181 6.26667 16.5783 6.26667C15.9757 6.26667 15.4492 6.59894 15.171 7.08916H14.0461C13.7679 6.59894 13.2414 6.26667 12.6388 6.26667C12.0361 6.26667 11.5096 6.59894 11.2314 7.08916H10.912V5.92729H19.0721V7.08916H17.9857ZM21.4976 8.64662C21.0764 8.64662 20.7342 8.3044 20.7342 7.88319C20.7342 7.46198 21.0764 7.11975 21.4976 7.11975C21.9188 7.11975 22.261 7.46198 22.261 7.88319C22.261 8.3044 21.9188 8.64662 21.4976 8.64662ZM23.0707 6.0952V7.08845H22.9057C22.6275 6.59823 22.101 6.26596 21.4983 6.26596C20.8957 6.26596 20.3692 6.59823 20.091 7.08845H19.9259V5.51462H22.4901C22.8103 5.51462 23.0707 5.77503 23.0707 6.0952ZM20.8103 3.087L21.7417 4.66154H19.9259V3.087H20.8103ZM19.0714 0.706334V5.07349H10.9113V0.706334H19.0714ZM4.47152 27.2615C3.17162 27.2615 1.90587 26.5877 1.21073 25.3831C0.70913 24.5137 0.575369 23.5012 0.835065 22.5315C1.09476 21.5617 1.71661 20.7513 2.58606 20.2497C4.38045 19.2138 6.68356 19.8306 7.7195 21.625C8.75543 23.4194 8.13857 25.7225 6.34417 26.7585C5.75363 27.1 5.10831 27.2615 4.47152 27.2615ZM6.77107 27.4984C6.82728 27.4664 6.88135 27.4322 6.93543 27.3981L7.48968 28.3579L7.15599 28.5507L6.60245 27.5916C6.65866 27.561 6.71486 27.5304 6.77107 27.4984ZM10.3186 32.8574L9.63769 33.2501C9.484 33.3391 9.28621 33.2857 9.19727 33.132L7.29118 29.83C7.20224 29.6756 7.2556 29.4785 7.40928 29.3896L8.09019 28.9968C8.1407 28.9676 8.1962 28.9534 8.25098 28.9534C8.36269 28.9534 8.47083 29.0111 8.5306 29.1149L10.4367 32.417C10.5256 32.5707 10.4723 32.7685 10.3186 32.8574ZM33.2928 28.8588H32.3401V27.433C32.3401 27.1974 32.1487 27.0061 31.9132 27.0061C31.6777 27.0061 31.4863 27.1974 31.4863 27.433V28.8588H27.6563V27.433C27.6563 27.1974 27.4649 27.0061 27.2294 27.0061C26.9939 27.0061 26.8025 27.1974 26.8025 27.433V28.8588H25.8505V27.7787C25.8505 26.3486 26.9092 25.1242 28.2995 24.8936L29.2266 26.1665C29.307 26.2768 29.4351 26.3422 29.5717 26.3422C29.7083 26.3422 29.8363 26.2768 29.9167 26.1665L30.8438 24.8936C32.2348 25.1234 33.2928 26.3479 33.2928 27.7787V28.8588ZM16.838 12.986C13.5324 12.986 10.843 15.6755 10.843 18.9811C10.843 22.2867 13.5324 24.9762 16.838 24.9762C20.1436 24.9762 22.8331 22.2867 22.8331 18.9811C22.8331 15.6755 20.1436 12.986 16.838 12.986ZM16.4111 15.8655C15.9095 15.8448 15.4207 15.7879 14.9583 15.6983C15.3396 14.7698 15.8668 14.1458 16.4111 13.9273V15.8655ZM16.4111 16.72V18.5542H14.3848C14.4147 17.8 14.5214 17.1134 14.6843 16.5122C15.2336 16.6268 15.8156 16.6972 16.4111 16.72ZM16.4111 19.408V21.2422C15.8156 21.265 15.2336 21.3354 14.6843 21.4493C14.5214 20.8481 14.4147 20.1622 14.3848 19.4073H16.4111V19.408ZM16.4111 22.0967V24.0349C15.8675 23.8164 15.3403 23.1924 14.9583 22.2639C15.4207 22.1743 15.9095 22.1174 16.4111 22.0967ZM17.2649 22.0967C17.7665 22.1174 18.2553 22.1743 18.7178 22.2639C18.3364 23.1924 17.8092 23.8164 17.2649 24.0349V22.0967ZM17.2649 21.2422V19.408H19.2913C19.2614 20.1622 19.1547 20.8488 18.9917 21.4493C18.4424 21.3354 17.8604 21.2657 17.2649 21.2422ZM17.2649 18.5542V16.72C17.8604 16.6972 18.4424 16.6268 18.9917 16.5129C19.1547 17.1141 19.2614 17.8 19.2913 18.5542H17.2649ZM17.2649 15.8655V13.9273C17.8085 14.1458 18.3357 14.7698 18.7178 15.6983C18.2553 15.7886 17.7665 15.8448 17.2649 15.8655ZM18.9184 14.2817C19.4357 14.5115 19.9081 14.8231 20.3187 15.2023C20.0789 15.3112 19.822 15.408 19.5495 15.4919C19.3717 15.0351 19.1596 14.6282 18.9184 14.2817ZM14.1265 15.4912C13.854 15.4073 13.5972 15.3105 13.3574 15.2016C13.7679 14.8231 14.2411 14.5108 14.7576 14.281C14.5171 14.6282 14.3044 15.0351 14.1265 15.4912ZM13.8604 16.3016C13.6754 16.9846 13.5609 17.7452 13.531 18.5542H11.716C11.7992 17.546 12.1742 16.6196 12.7562 15.8598C13.0934 16.0305 13.4634 16.1785 13.8604 16.3016ZM13.531 19.408C13.5609 20.217 13.6761 20.9776 13.8604 21.6606C13.4634 21.7837 13.0934 21.9317 12.7562 22.1017C12.1735 21.3418 11.7992 20.4155 11.7153 19.4073H13.531V19.408ZM14.1265 22.471C14.3044 22.9271 14.5171 23.334 14.7583 23.6805C14.2411 23.4507 13.7686 23.1391 13.3581 22.7598C13.5972 22.6517 13.854 22.5549 14.1265 22.471ZM19.5502 22.471C19.8227 22.5549 20.0796 22.6517 20.3194 22.7606C19.9088 23.1391 19.4357 23.4514 18.9191 23.6812C19.1596 23.334 19.3717 22.9271 19.5502 22.471ZM19.8156 21.6613C20.0006 20.9783 20.1152 20.2177 20.1451 19.4087H21.9601C21.8768 20.4169 21.5019 21.3433 20.9199 22.1031C20.5826 21.9317 20.2126 21.7837 19.8156 21.6613ZM20.1451 18.5542C20.1152 17.7452 19.9999 16.9846 19.8156 16.3016C20.2126 16.1785 20.5833 16.0305 20.9199 15.8605C21.5026 16.6204 21.8768 17.5467 21.9601 18.5549H20.1451V18.5542Z" fill="#0E131E"/>
</g>
<defs>
<clipPath id="clip0_208_425">
<rect width="34" height="34" fill="white"/>
</clipPath>
</defs>
</svg>
