<svg width="45" height="43" viewBox="0 0 45 43" fill="none" xmlns="http://www.w3.org/2000/svg">
<path d="M13.5992 42.1843C12.3006 42.1843 11.25 41.1338 11.25 39.8351V32.3351H3.82295C3.42898 32.3351 3.12256 32.0141 3.12256 31.6347V19.7865C3.12256 17.6269 4.87353 15.876 7.03306 15.876C9.23637 15.876 10.9436 17.554 10.9436 19.6843C10.9436 20.2242 11.3813 20.662 11.9212 20.662H16.2986C17.7724 20.662 18.9689 21.8585 18.9689 23.3322C18.9689 24.8059 17.7724 26.0024 16.2986 26.0024H10.535V27.4032H12.7383C13.5992 27.4032 14.4017 27.7388 15.0146 28.3517C15.6274 28.9645 15.9484 29.767 15.9484 30.6279L15.9338 39.8205C15.9484 41.1192 14.8979 42.1843 13.5992 42.1843ZM4.52334 30.9343H11.9504C12.3443 30.9343 12.6508 31.2553 12.6508 31.6347V39.8351C12.6508 40.3604 13.0739 40.7836 13.5992 40.7836C14.1245 40.7836 14.5477 40.3604 14.5477 39.8351L14.5622 30.6425C14.5622 30.161 14.3726 29.7087 14.037 29.3585C13.7014 29.0229 13.2344 28.8332 12.7529 28.8332H9.83462C9.64493 28.8332 9.46984 28.7602 9.33851 28.6289C9.20719 28.4976 9.13423 28.3225 9.13423 28.1328V25.3166C9.13423 24.9227 9.45524 24.6162 9.83462 24.6162H16.2986C16.999 24.6162 17.5681 24.0472 17.5681 23.3468C17.5681 22.6464 16.999 22.0773 16.2986 22.0773H11.9212C10.608 22.0773 9.5282 21.0122 9.5282 19.6843C9.5282 18.3273 8.41925 17.2768 7.01847 17.2768C5.63229 17.2768 4.50875 18.4003 4.50875 19.7865C4.52334 19.7865 4.52334 30.9343 4.52334 30.9343Z" fill="white"/>
<path d="M7.03306 17.2771C4.87353 17.2771 3.12256 15.5261 3.12256 13.3666C3.12256 11.207 4.87353 9.45605 7.03306 9.45605C9.1926 9.45605 10.9436 11.207 10.9436 13.3666C10.9436 15.5115 9.1926 17.2771 7.03306 17.2771ZM7.03306 10.8422C5.64688 10.8422 4.52334 11.9658 4.52334 13.352C4.52334 14.7382 5.64688 15.8617 7.03306 15.8617C8.41925 15.8617 9.54279 14.7382 9.54279 13.352C9.54279 11.9658 8.41925 10.8422 7.03306 10.8422Z" fill="white"/>
<path d="M9.13424 32.335H2.24708C1.00681 32.335 0 31.3282 0 30.0879V17.7873C0 17.3933 0.321011 17.0869 0.700388 17.0869C1.07977 17.0869 1.40078 17.4079 1.40078 17.7873V30.0879C1.40078 30.5548 1.78015 30.9342 2.24708 30.9342H9.13424C9.52821 30.9342 9.83463 31.2552 9.83463 31.6346C9.83463 32.014 9.52821 32.335 9.13424 32.335Z" fill="white"/>
<path d="M2.23249 42.1846C1.83852 42.1846 1.5321 41.8636 1.5321 41.4842V31.635C1.5321 31.241 1.85312 30.9346 2.23249 30.9346C2.61187 30.9346 2.93288 31.2556 2.93288 31.635V41.4842C2.93288 41.8636 2.62646 42.1846 2.23249 42.1846Z" fill="white"/>
<path d="M9.10505 42.1846C8.71108 42.1846 8.40466 41.8636 8.40466 41.4842V31.635C8.40466 31.241 8.72568 30.9346 9.10505 30.9346C9.49902 30.9346 9.80544 31.2556 9.80544 31.635V41.4842C9.82003 41.8636 9.49902 42.1846 9.10505 42.1846Z" fill="white"/>
<path d="M31.4007 42.1844C30.1021 42.1844 29.0515 41.1338 29.0515 39.8352L29.0369 30.6426C29.0369 29.7817 29.3725 28.9791 29.9708 28.3663C30.569 27.7535 31.3861 27.4179 32.247 27.4179H34.4503V26.0171H28.6867C27.213 26.0171 26.0165 24.8206 26.0165 23.3469C26.0165 21.8731 27.213 20.6766 28.6867 20.6766H33.0641C33.604 20.6766 34.0418 20.2389 34.0418 19.699C34.0418 17.554 35.7636 15.8906 37.9523 15.8906C40.1118 15.8906 41.8628 17.6416 41.8628 19.8011V31.6494C41.8628 32.0433 41.5418 32.3498 41.1624 32.3498H33.7353V39.8498C33.7499 41.1192 32.6994 42.1844 31.4007 42.1844ZM32.247 28.8186C31.7655 28.8186 31.3132 29.0083 30.963 29.3439C30.6274 29.6795 30.4377 30.1465 30.4377 30.628L30.4523 39.8206C30.4523 40.3459 30.8754 40.769 31.4007 40.769C31.926 40.769 32.3492 40.3459 32.3492 39.8206V31.6202C32.3492 31.2262 32.6702 30.9198 33.0496 30.9198H40.4766V19.7719C40.4766 18.3858 39.3531 17.2622 37.9669 17.2622C36.5661 17.2622 35.4571 18.3128 35.4571 19.6698C35.4571 20.983 34.392 22.0628 33.0641 22.0628H28.6867C27.9863 22.0628 27.4173 22.6319 27.4173 23.3323C27.4173 24.0326 27.9863 24.6017 28.6867 24.6017H35.1507C35.3404 24.6017 35.5155 24.6747 35.6468 24.806C35.7782 24.9373 35.8511 25.1124 35.8511 25.3021V28.1183C35.8511 28.5122 35.5301 28.8186 35.1507 28.8186H32.247Z" fill="white"/>
<path d="M37.9669 17.2771C35.8074 17.2771 34.0564 15.5261 34.0564 13.3666C34.0564 11.207 35.8074 9.45605 37.9669 9.45605C40.1264 9.45605 41.8774 11.207 41.8774 13.3666C41.8774 15.5115 40.1264 17.2771 37.9669 17.2771ZM37.9669 10.8422C36.5807 10.8422 35.4572 11.9658 35.4572 13.352C35.4572 14.7382 36.5807 15.8617 37.9669 15.8617C39.3531 15.8617 40.4766 14.7382 40.4766 13.352C40.4766 11.9658 39.3531 10.8422 37.9669 10.8422Z" fill="white"/>
<path d="M42.753 32.335H35.8658C35.4718 32.335 35.1654 32.014 35.1654 31.6346C35.1654 31.2552 35.4864 30.9342 35.8658 30.9342H42.753C43.2199 30.9342 43.5993 30.5548 43.5993 30.0879V17.7873C43.5993 17.3933 43.9203 17.0869 44.2996 17.0869C44.6936 17.0869 45 17.4079 45 17.7873V30.0879C45 31.3282 43.9932 32.335 42.753 32.335Z" fill="white"/>
<path d="M42.7675 42.1846C42.3736 42.1846 42.0671 41.8636 42.0671 41.4842V31.635C42.0671 31.241 42.3881 30.9346 42.7675 30.9346C43.1469 30.9346 43.4679 31.2556 43.4679 31.635V41.4842C43.4679 41.8636 43.1615 42.1846 42.7675 42.1846Z" fill="white"/>
<path d="M35.895 42.1846C35.501 42.1846 35.1946 41.8636 35.1946 41.4842V31.635C35.1946 31.241 35.5156 30.9346 35.895 30.9346C36.2743 30.9346 36.5954 31.2556 36.5954 31.635V41.4842C36.5954 41.8636 36.2743 42.1846 35.895 42.1846Z" fill="white"/>
<path d="M28.6867 26.0023H16.3132C15.9192 26.0023 15.6128 25.6813 15.6128 25.3019C15.6128 24.908 15.9338 24.6016 16.3132 24.6016H28.6867C29.0807 24.6016 29.3871 24.9226 29.3871 25.3019C29.3871 25.6959 29.0807 26.0023 28.6867 26.0023Z" fill="white"/>
<path d="M22.5 42.1842C22.106 42.1842 21.7996 41.8632 21.7996 41.4839V25.3019C21.7996 24.908 22.1206 24.6016 22.5 24.6016C22.8793 24.6016 23.2003 24.9226 23.2003 25.3019V41.4693C23.2003 41.8632 22.8939 42.1842 22.5 42.1842Z" fill="white"/>
<path d="M14.7666 16.1673C14.6498 16.1673 14.5477 16.1381 14.4456 16.0944C14.2121 15.9776 14.0662 15.7296 14.0662 15.4669V12.6508H13.3658C12.9718 12.6508 12.6654 12.3298 12.6654 11.9504V0.70039C12.6654 0.306421 12.9864 0 13.3658 0H30.2335C30.6275 0 30.9339 0.321012 30.9339 0.70039V11.9504C30.9339 12.3444 30.6129 12.6508 30.2335 12.6508H19.9173L15.1751 16.036C15.0584 16.1235 14.9125 16.1673 14.7666 16.1673ZM14.0662 11.2354H14.7666C15.1605 11.2354 15.467 11.5564 15.467 11.9358V14.0807L19.2753 11.3521C19.3921 11.2646 19.538 11.2208 19.6839 11.2208H29.5331V1.3716H14.0662V11.2354Z" fill="white"/>
<path d="M27.4173 4.20254H16.1673C15.7733 4.20254 15.4669 3.88152 15.4669 3.50215C15.4669 3.10818 15.7879 2.80176 16.1673 2.80176H27.4173C27.8113 2.80176 28.1177 3.12277 28.1177 3.50215C28.1323 3.89612 27.8113 4.20254 27.4173 4.20254Z" fill="white"/>
<path d="M27.4173 7.01894H16.1673C15.7733 7.01894 15.4669 6.69793 15.4669 6.31855C15.4669 5.93918 15.7879 5.61816 16.1673 5.61816H27.4173C27.8113 5.61816 28.1177 5.93918 28.1177 6.31855C28.1177 6.69793 27.8113 7.01894 27.4173 7.01894Z" fill="white"/>
<path d="M27.4173 9.83535H16.1673C15.7733 9.83535 15.4669 9.51434 15.4669 9.13496C15.4669 8.75558 15.7879 8.43457 16.1673 8.43457H27.4173C27.8113 8.43457 28.1177 8.75558 28.1177 9.13496C28.1177 9.51434 27.8113 9.83535 27.4173 9.83535Z" fill="white"/>
<path d="M24.6158 42.184H20.3989C20.0049 42.184 19.6985 41.863 19.6985 41.4836C19.6985 41.1042 20.0195 40.7832 20.3989 40.7832H24.6158C25.0098 40.7832 25.3162 41.1042 25.3162 41.4836C25.3162 41.863 24.9952 42.184 24.6158 42.184Z" fill="white"/>
</svg>
