<svg width="30" height="30" viewBox="0 0 30 30" fill="none" xmlns="http://www.w3.org/2000/svg">
<g clip-path="url(#clip0_208_357)">
<path d="M5.86367 5.62506H15.2475C15.4356 5.6233 15.6154 5.54698 15.7473 5.41284C15.8793 5.27871 15.9526 5.09772 15.9513 4.90957V3.84985C15.9632 3.46395 15.8218 3.08903 15.558 2.80712C15.2943 2.52522 14.9295 2.35928 14.5437 2.34563H12.9002C12.901 2.32297 12.9015 2.30123 12.9015 2.28086C12.8883 1.68105 12.6383 1.11084 12.2061 0.694704C11.7776 0.260099 11.1958 0.0107216 10.5856 5.62463e-05C9.97048 -0.00418692 9.378 0.231793 8.93425 0.657774C8.4905 1.08375 8.23051 1.6661 8.20962 2.28086C8.20962 2.30123 8.21019 2.32298 8.21123 2.34564H6.56745C6.18161 2.35929 5.81689 2.52523 5.5531 2.80713C5.2893 3.08904 5.14792 3.46396 5.15988 3.84986V4.90958C5.15854 5.09772 5.23189 5.27871 5.36383 5.41285C5.49577 5.54698 5.67553 5.6233 5.86367 5.62506ZM6.09826 3.84985C6.08674 3.71277 6.12942 3.57664 6.21714 3.47069C6.30486 3.36473 6.43064 3.29739 6.56745 3.28313H8.46438C8.55742 3.28588 8.65 3.26905 8.73612 3.23372C8.82223 3.19839 8.89996 3.14535 8.96427 3.07805C9.04412 2.9779 9.10205 2.8621 9.13431 2.73814C9.16658 2.61418 9.17245 2.48482 9.15155 2.35845C9.14995 2.33075 9.148 2.3042 9.148 2.28086C9.17005 1.91546 9.33144 1.57244 9.5989 1.32252C9.86637 1.07259 10.2195 0.934801 10.5856 0.937556C10.9481 0.947634 11.2924 1.09921 11.5446 1.35984C11.7999 1.59977 11.9503 1.93072 11.9631 2.28086C11.9631 2.30261 11.9618 2.32733 11.9606 2.35319C11.9411 2.48161 11.9484 2.61268 11.9821 2.73812C12.0158 2.86356 12.0752 2.98064 12.1565 3.08195C12.2202 3.14716 12.2966 3.19864 12.3809 3.23324C12.4652 3.26784 12.5558 3.28482 12.6469 3.28314H14.5437C14.6805 3.2974 14.8063 3.36474 14.894 3.4707C14.9817 3.57665 15.0244 3.71278 15.0129 3.84986V4.68756H6.09826V3.84985Z" fill="#0E131E"/>
<path d="M10.5559 3.75044C10.8149 3.75044 11.0249 3.54048 11.0249 3.28147C11.0249 3.02247 10.8149 2.8125 10.5559 2.8125C10.2969 2.8125 10.0869 3.02247 10.0869 3.28147C10.0869 3.54048 10.2969 3.75044 10.5559 3.75044Z" fill="#0E131E"/>
<path d="M3.71839 18.1578C3.66785 18.193 3.62474 18.2378 3.59153 18.2896C3.55832 18.3415 3.53566 18.3994 3.52485 18.46C3.51404 18.5207 3.51529 18.5828 3.52853 18.643C3.54177 18.7031 3.56674 18.7601 3.60201 18.8106L3.92193 19.2688C3.98705 19.3583 4.08112 19.4226 4.18821 19.4508C4.2953 19.479 4.40883 19.4692 4.50957 19.4233L5.59721 18.9023C5.65301 18.8759 5.70304 18.8387 5.74441 18.7928C5.78579 18.747 5.8177 18.6934 5.83831 18.6352C5.85892 18.5769 5.86783 18.5152 5.86453 18.4536C5.86122 18.3919 5.84576 18.3315 5.81904 18.2758C5.79233 18.2201 5.75487 18.1703 5.70883 18.1291C5.66279 18.0879 5.60907 18.0563 5.55076 18.0359C5.49245 18.0156 5.43069 18.007 5.36903 18.0106C5.30738 18.0141 5.24704 18.0299 5.19149 18.0569L4.46342 18.4057L4.37154 18.2741C4.30024 18.1722 4.19145 18.1027 4.06901 18.0809C3.94657 18.0591 3.82048 18.0868 3.71839 18.1578Z" fill="#0E131E"/>
<path d="M5.81772 20.6208C5.79109 20.5653 5.75377 20.5155 5.7079 20.4744C5.66203 20.4332 5.60851 20.4015 5.55039 20.3811C5.49226 20.3606 5.43068 20.3518 5.36916 20.3552C5.30764 20.3585 5.24738 20.374 5.19183 20.4006L4.46376 20.7495L4.37188 20.6178C4.30074 20.5158 4.19197 20.4462 4.06951 20.4243C3.94704 20.4025 3.82091 20.4302 3.71887 20.5013C3.61682 20.5725 3.54721 20.6812 3.52536 20.8037C3.50351 20.9262 3.5312 21.0523 3.60235 21.1543L3.92228 21.6126C3.98693 21.7027 4.081 21.7674 4.18827 21.7956C4.29554 21.8239 4.4093 21.8137 4.50991 21.7671L5.59755 21.2461C5.65309 21.2196 5.70285 21.1823 5.74398 21.1365C5.78511 21.0907 5.81681 21.0372 5.83726 20.9791C5.85771 20.921 5.86651 20.8595 5.86315 20.798C5.8598 20.7365 5.84436 20.6763 5.81772 20.6208Z" fill="#0E131E"/>
<path d="M7.27148 20.3906C7.14716 20.3906 7.02794 20.44 6.94003 20.5279C6.85212 20.6158 6.80273 20.7351 6.80273 20.8594C6.80273 20.9837 6.85212 21.1029 6.94003 21.1908C7.02794 21.2787 7.14716 21.3281 7.27148 21.3281H17.1245C17.2488 21.3281 17.368 21.2787 17.4559 21.1908C17.5439 21.1029 17.5932 20.9837 17.5932 20.8594C17.5932 20.7351 17.5439 20.6158 17.4559 20.5279C17.368 20.44 17.2488 20.3906 17.1245 20.3906H7.27148Z" fill="#0E131E"/>
<path d="M5.81772 22.9645C5.7639 22.8523 5.66773 22.7661 5.55036 22.7248C5.43299 22.6835 5.30403 22.6906 5.19183 22.7443L4.46376 23.0931L4.37188 22.9615C4.30074 22.8595 4.19197 22.7899 4.06951 22.768C3.94704 22.7462 3.82091 22.7739 3.71887 22.845C3.61682 22.9162 3.54721 23.0249 3.52536 23.1474C3.50351 23.2699 3.5312 23.396 3.60235 23.498L3.92228 23.9563C3.98669 24.0467 4.08077 24.1116 4.18813 24.1399C4.2955 24.1681 4.40936 24.1578 4.50991 24.1107L5.59755 23.5898C5.65309 23.5632 5.70285 23.526 5.74398 23.4802C5.78511 23.4343 5.81681 23.3809 5.83726 23.3228C5.85771 23.2647 5.86651 23.2032 5.86315 23.1417C5.8598 23.0802 5.84436 23.02 5.81772 22.9645Z" fill="#0E131E"/>
<path d="M5.19183 25.0881L4.46376 25.437L4.37188 25.3054C4.30074 25.2033 4.19197 25.1337 4.06951 25.1119C3.94704 25.09 3.82091 25.1177 3.71887 25.1888C3.61682 25.26 3.54721 25.3687 3.52536 25.4912C3.50351 25.6137 3.5312 25.7398 3.60235 25.8419L3.92228 26.3001C3.9867 26.3905 4.08078 26.4554 4.18814 26.4837C4.2955 26.5119 4.40936 26.5016 4.50991 26.4546L5.59755 25.9336C5.70967 25.8798 5.79582 25.7837 5.83706 25.6664C5.87829 25.549 5.87123 25.4201 5.81743 25.308C5.76363 25.1959 5.66749 25.1098 5.55016 25.0685C5.43284 25.0273 5.30395 25.0343 5.19183 25.0881Z" fill="#0E131E"/>
<path d="M10.087 16.2844C10.2313 16.361 10.3921 16.4011 10.5555 16.4011C10.7188 16.4011 10.8797 16.3611 11.024 16.2846L14.1758 14.527C14.3225 14.4455 14.4448 14.3263 14.5301 14.1817C14.6154 14.0372 14.6606 13.8725 14.661 13.7047V10.2018C14.6606 10.0339 14.6153 9.86917 14.5299 9.72457C14.4445 9.57998 14.3221 9.46077 14.1753 9.37924L11.0243 7.62212C10.881 7.5427 10.7198 7.50102 10.5559 7.50098C10.392 7.50094 10.2308 7.54254 10.0873 7.62188L6.93554 9.37946C6.78885 9.46103 6.66656 9.58023 6.58125 9.72477C6.49595 9.86932 6.45071 10.034 6.4502 10.2018V13.7047C6.45073 13.8726 6.49602 14.0373 6.58141 14.1819C6.6668 14.3265 6.7892 14.4457 6.936 14.5273L10.087 16.2844ZM7.39258 10.7188L10.0864 12.2277V15.2104L7.38859 13.7046L7.39258 10.7188ZM11.0248 15.2V12.2277L13.7227 10.7165V13.7047L11.0248 15.2ZM10.5667 8.44037L13.222 9.92239L10.5556 11.4158L7.8899 9.92271L10.5667 8.44037Z" fill="#0E131E"/>
<path d="M6.80225 25.5469C6.80231 25.6713 6.85177 25.7905 6.93976 25.8784C7.02775 25.9663 7.14706 26.0157 7.27144 26.0156H13.3449C13.3449 26.0156 13.3457 25.8971 13.3473 25.8696C13.3638 25.6015 13.41 25.336 13.4851 25.0781H7.27144C7.14706 25.0781 7.02776 25.1274 6.93977 25.2153C6.85178 25.3032 6.80231 25.4225 6.80225 25.5469Z" fill="#0E131E"/>
<path d="M15.2767 22.7344H7.27148C7.14716 22.7344 7.02794 22.7838 6.94003 22.8717C6.85212 22.9596 6.80273 23.0788 6.80273 23.2031C6.80273 23.3274 6.85212 23.4467 6.94003 23.5346C7.02794 23.6225 7.14716 23.6719 7.27148 23.6719H14.232C14.531 23.3085 14.8832 22.9924 15.2767 22.7344Z" fill="#0E131E"/>
<path d="M18.0469 28.125C17.9226 28.125 17.8033 28.1744 17.7154 28.2623C17.6275 28.3502 17.5781 28.4694 17.5781 28.5938V29.5312C17.5781 29.6556 17.6275 29.7748 17.7154 29.8627C17.8033 29.9506 17.9226 30 18.0469 30C18.1712 30 18.2904 29.9506 18.3783 29.8627C18.4662 29.7748 18.5156 29.6556 18.5156 29.5312V28.5938C18.5156 28.4694 18.4662 28.3502 18.3783 28.2623C18.2904 28.1744 18.1712 28.125 18.0469 28.125Z" fill="#0E131E"/>
<path d="M25.0781 28.125C24.9538 28.125 24.8346 28.1744 24.7467 28.2623C24.6588 28.3502 24.6094 28.4694 24.6094 28.5938V29.5312C24.6094 29.6556 24.6588 29.7748 24.7467 29.8627C24.8346 29.9506 24.9538 30 25.0781 30C25.2024 30 25.3217 29.9506 25.4096 29.8627C25.4975 29.7748 25.5469 29.6556 25.5469 29.5312V28.5938C25.5469 28.4694 25.4975 28.3502 25.4096 28.2623C25.3217 28.1744 25.2024 28.125 25.0781 28.125Z" fill="#0E131E"/>
<path d="M18.2782 22.4609C18.2782 22.4609 16.1459 23.3174 16.1382 23.321C16.0667 23.3542 14.3878 24.1564 14.284 25.9243C14.2834 25.9335 14.2832 29.531 14.2832 29.531C14.2832 29.6555 14.3326 29.7748 14.4206 29.8628C14.5086 29.9508 14.628 30.0002 14.7524 30.0002C14.8768 30.0002 14.9962 29.9508 15.0842 29.8628C15.1722 29.7748 15.2216 29.6555 15.2216 29.531V25.9662C15.2968 24.8227 16.4218 24.2276 16.527 24.1745L18.9465 23.2029C18.6937 22.9844 18.4692 22.7351 18.2782 22.4609Z" fill="#0E131E"/>
<path d="M28.8275 25.9243C28.7556 24.6955 27.8221 23.661 26.7134 23.2159L24.8333 22.4609C24.6423 22.7351 24.4178 22.9844 24.165 23.2029L26.3634 24.0857C27.1411 24.3978 27.8329 25.0952 27.89 25.9661V29.531C27.89 29.6554 27.9394 29.7748 28.0274 29.8628C28.1154 29.9507 28.2347 30.0002 28.3592 30.0002C28.4836 30.0002 28.6029 29.9507 28.6909 29.8628C28.7789 29.7748 28.8284 29.6554 28.8284 29.531C28.8284 29.531 28.8281 25.9334 28.8275 25.9243Z" fill="#0E131E"/>
<path d="M13.3448 29.0625H2.57945C2.45511 29.0624 2.33589 29.013 2.24793 28.9251C2.15997 28.8373 2.11046 28.7181 2.11026 28.5938V4.92188C2.11046 4.79754 2.15997 4.67836 2.24793 4.59048C2.33589 4.50261 2.45511 4.45321 2.57945 4.45312H4.22161V3.84979C4.22245 3.73798 4.23067 3.62635 4.24623 3.51562H2.57945C2.20644 3.51586 1.84875 3.66405 1.58487 3.92768C1.32098 4.19132 1.17246 4.54886 1.17188 4.92188V28.5938C1.17246 28.9668 1.32098 29.3243 1.58487 29.5879C1.84875 29.8516 2.20644 29.9998 2.57945 30H13.4267C13.3728 29.8496 13.3451 29.691 13.3448 29.5312V29.0625Z" fill="#0E131E"/>
<path d="M16.8898 4.45312H18.532C18.6563 4.45321 18.7756 4.50261 18.8635 4.59048C18.9515 4.67836 19.001 4.79754 19.0012 4.92188V12.6183C19.0399 12.5856 19.079 12.5521 19.1175 12.5198C19.366 12.3121 19.6428 12.1407 19.9396 12.0108V4.92188C19.939 4.54886 19.7905 4.19132 19.5266 3.92768C19.2627 3.66405 18.905 3.51586 18.532 3.51562H16.8652C16.8808 3.62635 16.889 3.73798 16.8898 3.84979V4.45312Z" fill="#0E131E"/>
<path d="M17.1245 18.0469H7.27148C7.14716 18.0469 7.02794 18.0963 6.94003 18.1842C6.85212 18.2721 6.80273 18.3913 6.80273 18.5156C6.80273 18.6399 6.85212 18.7592 6.94003 18.8471C7.02794 18.935 7.14716 18.9844 7.27148 18.9844H17.1245C17.2028 18.9839 17.2798 18.9635 17.3482 18.9253C17.2063 18.6539 17.1298 18.3531 17.1249 18.0469L17.1245 18.0469Z" fill="#0E131E"/>
<path d="M22.5892 24.0409C22.2841 24.1231 21.9702 24.1686 21.6543 24.1764L22.4938 27.3093C22.4923 27.3284 22.4885 27.3473 22.4825 27.3654L21.56 28.234L20.6444 27.3718C20.6322 27.3517 20.6219 27.3305 20.6136 27.3084L21.3388 24.1705C21.0248 24.1547 20.7138 24.1018 20.4123 24.0127L19.6968 27.1091C19.6656 27.2858 19.6798 27.4676 19.7381 27.6374C19.7964 27.8072 19.8968 27.9594 20.03 28.0798L21.1336 29.1207C21.2461 29.2309 21.3968 29.2933 21.5542 29.2949C21.7116 29.2964 21.8635 29.2371 21.9781 29.1292L23.0901 28.0798C23.226 27.9567 23.3267 27.7997 23.3819 27.6248C23.4371 27.45 23.4448 27.2636 23.4042 27.0848L22.5892 24.0409Z" fill="#0E131E"/>
<path d="M24.6056 18.8365C24.7254 18.7322 24.8218 18.6039 24.8886 18.4598C24.9555 18.3158 24.9912 18.1593 24.9935 18.0005C25.0052 17.6715 25.1125 17.353 25.3021 17.0838C25.5738 16.7783 25.8487 16.278 25.8099 15.9012C25.7564 15.3805 24.967 14.7234 24.8771 14.6501C24.8761 14.6492 24.1433 14.0523 23.1613 13.2315C22.7147 12.8589 22.1515 12.6546 21.5699 12.6543H21.3199C20.7352 12.6548 20.1693 12.8611 19.7214 13.237C18.9096 13.9186 18.0367 14.7007 17.4978 15.229C17.3277 15.4149 17.2282 15.6545 17.2165 15.9062C17.2048 16.1579 17.2817 16.4057 17.4337 16.6066L17.7456 17.0232C17.9358 17.3218 18.0448 17.6649 18.0618 18.0186C18.0651 18.188 18.1068 18.3544 18.1838 18.5053C18.2608 18.6563 18.371 18.7878 18.5061 18.8899V20.1964C18.5068 21.0048 18.8285 21.7798 19.4003 22.3512C19.9722 22.9225 20.7475 23.2435 21.5559 23.2435C22.3642 23.2435 23.1395 22.9225 23.7114 22.3512C24.2833 21.7798 24.6049 21.0048 24.6056 20.1964L24.6056 18.8365ZM19.0002 18.0186C18.9924 17.7174 18.9367 17.4194 18.835 17.1358H20.355C20.4802 17.3423 20.6564 17.513 20.8668 17.6314C21.0771 17.7499 21.3145 17.8121 21.5559 17.8121C21.7973 17.8121 22.0346 17.7499 22.245 17.6314C22.4553 17.513 22.6316 17.3423 22.7567 17.1358H24.2225C24.118 17.4124 24.0614 17.7049 24.0551 18.0005C24.0551 18.1294 23.8502 18.2793 23.5859 18.2793H19.4694C19.1874 18.2793 19.0002 18.1223 19.0002 18.0186ZM21.0867 16.4059C21.0866 16.3131 21.114 16.2223 21.1655 16.1451C21.2171 16.0679 21.2903 16.0077 21.376 15.9721C21.4617 15.9365 21.5561 15.9272 21.6471 15.9452C21.7382 15.9633 21.8218 16.0079 21.8875 16.0735C21.9532 16.1391 21.9979 16.2227 22.016 16.3138C22.0342 16.4048 22.0249 16.4991 21.9894 16.5849C21.9539 16.6707 21.8938 16.744 21.8166 16.7955C21.7394 16.8471 21.6487 16.8746 21.5559 16.8746C21.4315 16.8746 21.3123 16.8252 21.2244 16.7373C21.1364 16.6494 21.0869 16.5302 21.0867 16.4059ZM18.1547 15.8985C18.6782 15.3853 19.5302 14.6222 20.3251 13.9548C20.6037 13.7207 20.9559 13.5922 21.3199 13.5918H21.5698C21.9315 13.592 22.2816 13.719 22.5592 13.9507C23.5471 14.7763 24.2841 15.3766 24.2841 15.3766C24.5106 15.5548 24.7078 15.7674 24.8684 16.0067C24.8469 16.0733 24.8186 16.1375 24.7839 16.1983H22.9464C22.8967 15.865 22.729 15.5607 22.4738 15.3407C22.2186 15.1207 21.8928 14.9997 21.5559 14.9997C21.2189 14.9997 20.8932 15.1207 20.638 15.3407C20.3827 15.5607 20.215 15.865 20.1654 16.1983H18.2999L18.1851 16.045C18.1569 16.0017 18.1461 15.9494 18.1547 15.8985ZM21.5559 22.3058C20.9964 22.3054 20.4598 22.0831 20.064 21.6877C19.6682 21.2922 19.4454 20.7559 19.4445 20.1964V19.2157C19.4529 19.2158 23.6402 19.2146 23.6672 19.2132V20.1964C23.6663 20.7559 23.4435 21.2922 23.0477 21.6877C22.6519 22.0831 22.1154 22.3054 21.5559 22.3058Z" fill="#0E131E"/>
</g>
<defs>
<clipPath id="clip0_208_357">
<rect width="30" height="30" fill="white"/>
</clipPath>
</defs>
</svg>
