<svg width="45" height="45" viewBox="0 0 45 45" fill="none" xmlns="http://www.w3.org/2000/svg">
<path d="M43.7327 30.4971H40.9017C40.9017 27.5071 40.9017 4.70848 40.9017 1.56899C40.9017 1.04575 40.4539 0.597235 39.9332 0.597235C35.1651 0.597235 31.2903 0.597235 26.8955 0.597235C26.374 0.597235 25.9263 1.04575 25.9263 1.56899V13.7532H23.0952C22.5737 13.7532 22.1267 14.2024 22.1267 14.7257V30.6473H13.9317V13.6792H17.6567C18.1782 13.6792 18.6252 13.2307 18.6252 12.7074V7.47496C18.6252 3.36373 15.2727 0 11.1751 0C7.07758 0 3.72504 3.36373 3.72504 7.47496V12.7074C3.72504 13.2307 4.17283 13.6792 4.69359 13.6792H8.41863V30.4978H0.968547C0.447786 30.4978 0 30.9463 0 31.4696C0 34.6838 0 37.599 0 40.8133C0 41.3365 0.447786 41.785 0.968547 41.785H5.66282V44.0275C5.66282 44.5507 6.10981 45 6.63132 45H12.2189C12.7404 45 13.1874 44.5507 13.1874 44.0275V41.785H32.7811V44.0275C32.7811 44.5507 33.2289 45 33.7496 45H39.3372C39.8587 45 40.3065 44.5507 40.3065 44.0275V41.785H44.0315C44.5523 41.785 45 41.3365 45 40.8133C45 37.599 45 34.6838 45 31.4696C44.6275 30.8708 44.255 30.4971 43.7327 30.4971ZM33.9739 2.46597V6.42772H31.5146V2.46597H33.9739ZM27.8648 2.46597H29.6521V7.3247C29.6521 7.84795 30.0999 8.29646 30.6214 8.29646H34.9424C35.4639 8.29646 35.9109 7.84795 35.9109 7.3247V2.46597H39.1144V13.6784C35.1659 13.6784 31.8133 13.6784 27.9393 13.6784L27.8648 2.46597ZM28.8326 15.5472H32.5576V21.1534H28.8326V15.5472ZM24.1398 15.5472H26.9708V22.1251C26.9708 22.6484 27.4178 23.0969 27.9393 23.0969H33.5269C34.0484 23.0969 34.4954 22.6484 34.4954 22.1251V15.5472H39.1897V30.4971H24.2895V15.5472H24.1398ZM5.51458 7.47496C5.51458 4.40948 8.04686 1.86874 11.1021 1.86874C14.1567 1.86874 16.6897 4.40948 16.6897 7.47496V11.8104C12.5169 11.8104 9.68662 11.8104 5.51458 11.8104V7.47496ZM10.2074 13.6784H12.0699V30.4971H10.2074V13.6784ZM1.78954 32.3658C6.63209 32.3658 37.5499 32.3658 42.765 32.3658V36.1033H1.78954V32.3658ZM11.1021 42.981H7.3771V41.6355H11.1021V42.981ZM38.1452 42.981H34.4202V41.6355H38.1452V42.981ZM1.78954 39.8408V37.972H42.765V39.8408C37.4747 39.8408 7.67436 39.8408 1.78954 39.8408Z" fill="white"/>
<path d="M9.61212 8.82004C9.98462 9.11904 10.5806 9.0443 10.9531 8.5958L13.7841 4.85832C14.0821 4.48457 14.0077 3.88656 13.5607 3.51281C13.1136 3.13907 12.5921 3.28783 12.2196 3.73708L9.38862 7.47456C9.16438 7.92306 9.23961 8.52104 9.61212 8.82004Z" fill="white"/>
</svg>
