<svg width="30" height="30" viewBox="0 0 30 30" fill="none" xmlns="http://www.w3.org/2000/svg">
<g clip-path="url(#clip0_208_378)">
<path d="M17.3434 5.625H9.84344C9.58469 5.625 9.37469 5.835 9.37469 6.09375V6.61406C9.03579 6.26766 8.62094 5.99859 8.15782 5.82844C8.89938 5.22656 9.37469 4.30875 9.37469 3.28125H11.2497V2.34375H9.23641C8.83188 0.99 7.57704 0 6.09344 0C4.28407 0 2.81219 1.47188 2.81219 3.28125C2.81219 4.30875 3.28751 5.22656 4.02907 5.82844C2.77422 6.28969 1.87469 7.49344 1.87469 8.90625V14.0625C1.87469 15.2152 2.21219 16.3341 2.81219 17.2941V22.3894L0.0489122 27.9155C-0.0603065 28.1344 0.0170372 28.4011 0.227037 28.5272L2.57079 29.9334C2.64626 29.9784 2.72969 30 2.81172 30C2.96922 30 3.12297 29.9208 3.21157 29.7769L6.96157 23.6831C6.99672 23.6259 7.01922 23.5622 7.02766 23.4956L7.31641 21.1903L9.37469 22.7344V29.5312C9.37469 29.79 9.58469 30 9.84344 30H12.6559C12.9147 30 13.1247 29.79 13.1247 29.5312V20.625C13.1247 20.5102 13.0825 20.3995 13.0066 20.3133L9.37469 16.2281V15.9375H13.5934C14.8858 15.9375 15.9372 14.8861 15.9372 13.5938V13.125H17.3434C17.6022 13.125 17.8122 12.915 17.8122 12.6562V6.09375C17.8122 5.835 17.6022 5.625 17.3434 5.625ZM14.0622 6.5625V8.4375H13.1247V6.5625H14.0622ZM6.09344 0.9375C7.05204 0.9375 7.87563 1.51734 8.23844 2.34375H3.94844C4.31126 1.51734 5.13485 0.9375 6.09344 0.9375ZM3.74969 3.28125H8.43719C8.43719 4.57359 7.38579 5.625 6.09344 5.625C4.8011 5.625 3.74969 4.57359 3.74969 3.28125ZM6.10985 23.2786L2.6561 28.8909L1.08204 27.9464L3.70047 22.7095C3.73282 22.6448 3.74969 22.5727 3.74969 22.5V18.4566C3.92688 18.6272 4.11344 18.7884 4.31219 18.9375L6.45251 20.5425L6.10985 23.2786ZM14.9997 13.5938C14.9997 14.3691 14.3688 15 13.5934 15H8.90594C8.13063 15 7.49969 14.3691 7.49969 13.5938V9.375H6.56219V13.5938C6.56219 14.7258 7.36891 15.6727 8.43719 15.8902V16.4062C8.43719 16.5211 8.47938 16.6317 8.55532 16.718L12.1872 20.8031V29.0625H10.3122V22.5C10.3122 22.3523 10.2428 22.2136 10.1247 22.125L4.87469 18.1875C3.58329 17.2191 2.81219 15.6769 2.81219 14.0625V8.90625C2.81219 7.61391 3.8636 6.5625 5.15594 6.5625H7.03094C8.32329 6.5625 9.37469 7.61391 9.37469 8.90625V12.6562C9.37469 12.915 9.58469 13.125 9.84344 13.125H14.9997V13.5938ZM16.8747 12.1875H10.3122V8.90625V6.5625H12.1872V8.90625C12.1872 9.165 12.3972 9.375 12.6559 9.375H14.5309C14.7897 9.375 14.9997 9.165 14.9997 8.90625V6.5625H16.8747V12.1875Z" fill="#0E131E"/>
<path d="M30 0.46875C30 0.21 29.79 0 29.5312 0H20.1562C19.8975 0 19.6875 0.21 19.6875 0.46875V12.6562H19.2188C18.96 12.6562 18.75 12.8663 18.75 13.125V15.9375C18.75 16.1963 18.96 16.4062 19.2188 16.4062H19.6875V29.5312C19.6875 29.79 19.8975 30 20.1562 30H29.5312C29.79 30 30 29.79 30 29.5312V0.46875ZM20.625 0.9375H29.0625V8.4375H27.1359C27.7453 7.84125 28.125 7.01156 28.125 6.09375C28.125 4.28438 26.6531 2.8125 24.8438 2.8125C23.0344 2.8125 21.5625 4.28438 21.5625 6.09375C21.5625 7.61438 22.6041 8.89312 24.0103 9.26344C23.6583 9.67359 23.4375 10.1995 23.4375 10.7812V12.6562H20.625V0.9375ZM23.9062 6.5625C23.9062 7.06594 23.6348 7.52297 23.212 7.77047C22.7742 7.34437 22.5 6.75141 22.5 6.09375C22.5 4.80141 23.5514 3.75 24.8438 3.75C26.1361 3.75 27.1875 4.80141 27.1875 6.09375C27.1875 7.38609 26.1361 8.4375 24.8438 8.4375C24.57 8.4375 24.3112 8.38125 24.067 8.295C24.5475 7.86 24.8438 7.2375 24.8438 6.5625H23.9062ZM19.6875 13.5938H23.9062C24.165 13.5938 24.375 13.3837 24.375 13.125V10.7812C24.375 10.0059 25.0059 9.375 25.7812 9.375H29.0625V18.0872L26.588 15.6127C26.9564 15.1983 27.1875 14.6592 27.1875 14.0625V12.1875H26.25V14.0625C26.25 14.8378 25.6191 15.4688 24.8438 15.4688H19.6875V13.5938ZM20.625 29.0625V16.4062H24.8438C25.1972 16.4062 25.5295 16.3219 25.8305 16.1808L29.0625 19.4128V29.0625H20.625Z" fill="#0E131E"/>
<path d="M11.25 10.3125H12.1875V11.25H11.25V10.3125Z" fill="#0E131E"/>
</g>
<defs>
<clipPath id="clip0_208_378">
<rect width="30" height="30" fill="white"/>
</clipPath>
</defs>
</svg>
