<svg width="30" height="30" viewBox="0 0 30 30" fill="none" xmlns="http://www.w3.org/2000/svg">
<g clip-path="url(#clip0_208_383)">
<path d="M26.9321 25.901C27.1747 25.901 27.3715 25.7044 27.3715 25.4615V10.5631C27.5516 10.616 27.7373 10.6435 27.924 10.6435C28.1227 10.6435 28.3225 10.6133 28.5175 10.5521C29.0229 10.3942 29.4367 10.0488 29.6823 9.57985C30.1895 8.61145 29.8144 7.41097 28.8462 6.90377L15.9874 0.167545C15.4138 -0.132748 14.7283 -0.134121 14.1538 0.16434L1.18674 6.90056C0.716848 7.14455 0.370092 7.55723 0.210332 8.06191C0.0508016 8.56682 0.0972646 9.10378 0.341482 9.57368C0.683889 10.2331 1.3584 10.6428 2.10181 10.6428C2.28881 10.6428 2.47558 10.6149 2.65525 10.5624V29.0623H0.953741C0.711126 29.0623 0.514287 29.2589 0.514287 29.5017C0.514287 29.7443 0.711126 29.9412 0.953741 29.9412H3.08921C3.09104 29.9412 3.09287 29.9414 3.0947 29.9414H26.9321C26.9339 29.9414 26.9357 29.9412 26.9378 29.9412H29.073C29.3156 29.9412 29.5125 29.7443 29.5125 29.5017C29.5125 29.2589 29.3156 29.0623 29.073 29.0623H27.3715V27.8089C27.3715 27.5663 27.1747 27.3695 26.9321 27.3695C26.6892 27.3695 26.4926 27.5663 26.4926 27.8089V29.0623H24.4961V14.323C24.4961 13.2413 23.616 12.361 22.5341 12.361H7.49267C6.41097 12.361 5.53069 13.2413 5.53069 14.323V29.0623H3.53416V10.1491L15.0639 4.1597L26.4926 10.1468V25.4615C26.4926 25.7044 26.6894 25.901 26.9321 25.901ZM6.4096 17.0185H23.6172V29.0506H20.9319V24.2169C20.9319 23.8735 20.6525 23.5941 20.3091 23.5941H15.453V18.7605C15.453 18.4172 15.1735 18.1377 14.8302 18.1377H9.71763C9.37431 18.1377 9.09507 18.4172 9.09507 18.7605V23.8504C9.09507 23.914 9.10468 23.9756 9.12254 24.0335C9.10468 24.0917 9.09507 24.1532 9.09507 24.2169V29.0506H6.4096V17.0185ZM15.453 29.0506V24.473H16.5504V26.1665C16.5504 26.3404 16.6447 26.5009 16.7965 26.5853C16.8686 26.6254 16.9487 26.6453 17.0283 26.6453C17.116 26.6453 17.2034 26.6213 17.2803 26.5734L17.753 26.28L18.2254 26.5734C18.3726 26.665 18.558 26.6693 18.7093 26.5853C18.861 26.5009 18.9553 26.3404 18.9553 26.1665V24.473H20.0528V29.0506H15.453ZM11.9504 24.473H12.5976V25.4464L12.5059 25.3894C12.4347 25.3452 12.3543 25.3233 12.274 25.3233C12.1934 25.3233 12.1131 25.3452 12.0422 25.3894L11.9504 25.4464V24.473ZM9.97398 23.5941V19.0167H11.0715V20.7099C11.0715 20.8839 11.1655 21.0443 11.3173 21.1288C11.4686 21.2128 11.6537 21.2084 11.8014 21.1171L12.2738 20.8237L12.7464 21.1171C12.7464 21.1171 12.7467 21.1171 12.7467 21.1173C12.8236 21.1649 12.911 21.1887 12.9984 21.1887C13.0781 21.1887 13.1582 21.1688 13.2305 21.1285C13.382 21.0441 13.4763 20.8839 13.4763 20.7099V19.0167H14.5738V23.5941H9.97398ZM11.9504 19.0167H12.5976V19.9901L12.5059 19.9331C12.4347 19.8889 12.3543 19.867 12.274 19.867C12.1934 19.867 12.1131 19.8889 12.0422 19.9331L11.9504 19.9899V19.0167ZM17.4293 24.473H18.0766V25.4464L17.9848 25.3894C17.8429 25.3013 17.6633 25.3013 17.5211 25.3894L17.4293 25.4464V24.473ZM9.97398 24.473H11.0715V26.1665C11.0715 26.3404 11.1658 26.5009 11.3175 26.5853C11.3896 26.6254 11.4697 26.6453 11.5494 26.6453C11.637 26.6453 11.7245 26.6213 11.8014 26.5734L12.2738 26.28L12.7464 26.5734C12.8936 26.665 13.079 26.6693 13.2303 26.5853C13.382 26.5009 13.4763 26.3404 13.4763 26.1665V24.473H14.5738V29.0506H9.97375V24.473H9.97398ZM7.49267 13.2399H22.5341C23.1313 13.2399 23.6172 13.7258 23.6172 14.323V14.3935H9.74097C9.49836 14.3935 9.30175 14.5903 9.30175 14.8329C9.30175 15.0758 9.49836 15.2724 9.74097 15.2724H23.6172V16.1396H6.4096V15.2724H7.82615C8.06899 15.2724 8.2656 15.0758 8.2656 14.8329C8.2656 14.5903 8.06899 14.3935 7.82615 14.3935H6.4096V14.323C6.4096 13.7258 6.89551 13.2399 7.49267 13.2399ZM15.0645 3.22472C14.9952 3.22472 14.9256 3.2412 14.862 3.27416L2.60924 9.63914C2.45017 9.72176 2.27942 9.76365 2.10181 9.76365C1.68777 9.76365 1.31194 9.53568 1.12128 9.16855C0.985326 8.90694 0.959463 8.60802 1.0485 8.32695C1.1373 8.04589 1.33025 7.81632 1.59186 7.68036L14.5589 0.94437C14.8787 0.778202 15.2605 0.778888 15.5798 0.945972L28.4383 7.6822C28.9774 7.96441 29.1861 8.63297 28.9039 9.17199C28.767 9.43314 28.5368 9.6254 28.2555 9.71329C27.9739 9.80118 27.6752 9.77418 27.4143 9.63753L15.2685 3.27485C15.2046 3.24143 15.1348 3.22472 15.0645 3.22472Z" fill="#0E131E"/>
<path d="M12.7814 7.4668C11.7874 7.4668 10.979 8.27544 10.979 9.26924C10.979 10.263 11.7874 11.0717 12.7814 11.0717H17.2453C18.2394 11.0717 19.0478 10.263 19.0478 9.26924C19.0478 8.27521 18.2394 7.4668 17.2453 7.4668H12.7814ZM18.1691 9.26924C18.1691 9.7785 17.7548 10.1928 17.2456 10.1928H12.7814C12.2722 10.1928 11.8579 9.7785 11.8579 9.26924C11.8579 8.75998 12.2722 8.3457 12.7814 8.3457H17.2456C17.7546 8.3457 18.1691 8.75998 18.1691 9.26924Z" fill="#0E131E"/>
</g>
<defs>
<clipPath id="clip0_208_383">
<rect width="30" height="30" fill="white"/>
</clipPath>
</defs>
</svg>
