<svg width="45" height="45" viewBox="0 0 45 45" fill="none" xmlns="http://www.w3.org/2000/svg">
<path d="M6.67484 23.5112H13.2747C13.7997 23.5112 14.2496 23.062 14.2496 22.5378C14.2496 22.0137 13.7997 21.5645 13.2747 21.5645H6.67484C6.14986 21.5645 5.69983 22.0137 5.69983 22.5378C5.70058 23.062 6.14986 23.5112 6.67484 23.5112Z" fill="white"/>
<path d="M16.0496 25.3828H6.67484C6.14986 25.3828 5.69983 25.8321 5.69983 26.3562C5.69983 26.8803 6.14986 27.3296 6.67484 27.3296H16.0496C16.5746 27.3296 17.0246 26.8803 17.0246 26.3562C17.0246 25.8328 16.5754 25.3828 16.0496 25.3828Z" fill="white"/>
<path d="M35.6999 22.6872V0.97338C35.6999 0.449253 35.2492 0 34.725 0C31.2 0 4.27492 0 0.975746 0C0.450759 0 0 0.449253 0 0.97338V32.7953C0 33.3195 0.450759 33.7687 0.975746 33.7687H22.4995C22.4995 39.9085 27.5244 45 33.7492 45C39.9748 45 44.999 39.9834 44.999 33.7687C45.0747 28.2287 41.0241 23.5864 35.6999 22.6872ZM33.825 5.69126H26.3251V1.9475H33.825V5.69126ZM24.4502 1.9475V12.2803H15.0754V7.56314H18.8253C19.3503 7.56314 19.8003 7.11389 19.8003 6.58977C19.8003 6.06564 19.3503 5.61639 18.8253 5.61639H15.0754V1.87263C15.0754 1.9475 24.4502 1.9475 24.4502 1.9475ZM13.2005 1.9475V5.69126H1.95071V1.9475H13.2005ZM1.95071 7.56314H13.2005V13.1788C13.2005 13.7029 13.6504 14.1522 14.1754 14.1522H25.4252C25.9501 14.1522 26.4001 13.7029 26.4001 13.1788V7.56314H33.9V22.5382C28.4251 22.5382 23.7002 26.5066 22.8002 31.8976H1.95071V7.56314ZM33.825 43.1289C28.6501 43.1289 24.4502 38.9359 24.4502 33.7695C24.4502 28.2287 29.1751 23.9608 34.6499 24.4101C39.5248 24.8593 43.1998 28.8277 43.1998 33.6946C43.1998 38.9359 38.9991 43.1289 33.825 43.1289Z" fill="white"/>
<path d="M38.549 30.9985H37.574V29.1266C37.574 27.0301 35.9241 25.3828 33.8241 25.3828C31.7242 25.3828 30.0742 27.0301 30.0742 29.1266V30.9985H29.0992C28.5742 30.9985 28.1235 31.4477 28.1235 31.9718V39.4593C28.1235 39.9835 28.5742 40.4327 29.0992 40.4327H38.474C38.9983 40.4327 39.449 39.9835 39.449 39.4593V31.9718C39.4497 31.3728 39.0748 30.9985 38.549 30.9985ZM31.9499 29.1266C31.9499 28.0783 32.7749 27.2547 33.8249 27.2547C34.8741 27.2547 35.6999 28.0783 35.6999 29.1266V30.9985H31.9499V29.1266ZM37.5748 38.486H30.075V32.8703C31.9499 32.8703 35.6999 32.8703 37.5748 32.8703V38.486Z" fill="white"/>
</svg>
