<svg width="30" height="30" viewBox="0 0 30 30" fill="none" xmlns="http://www.w3.org/2000/svg">
<g clip-path="url(#clip0_208_396)">
<path d="M4.82893 19.8672C3.73944 19.8672 2.85303 20.7536 2.85303 21.8431C2.85303 22.9326 3.73938 23.819 4.82893 23.819C5.91848 23.819 6.80489 22.9326 6.80489 21.8431C6.80483 20.7536 5.91848 19.8672 4.82893 19.8672ZM4.82893 22.9401C4.22407 22.9401 3.73199 22.448 3.73199 21.8431C3.73199 21.2382 4.22407 20.7462 4.82893 20.7462C5.43385 20.7462 5.92592 21.2383 5.92592 21.8431C5.92592 22.448 5.43379 22.9401 4.82893 22.9401Z" fill="#0E131E"/>
<path d="M4.82902 22.2323C5.04364 22.2323 5.21762 22.0583 5.21762 21.8437C5.21762 21.6291 5.04364 21.4551 4.82902 21.4551C4.61441 21.4551 4.44043 21.6291 4.44043 21.8437C4.44043 22.0583 4.61441 22.2323 4.82902 22.2323Z" fill="#0E131E"/>
<path d="M11.4261 19.8672C10.3366 19.8672 9.4502 20.7536 9.4502 21.8431C9.4502 22.9326 10.3365 23.819 11.4261 23.819C12.5156 23.819 13.402 22.9326 13.402 21.8431C13.4021 20.7536 12.5157 19.8672 11.4261 19.8672ZM11.4261 22.9401C10.8212 22.9401 10.3292 22.448 10.3292 21.8431C10.3292 21.2382 10.8212 20.7462 11.4261 20.7462C12.031 20.7462 12.523 21.2383 12.523 21.8431C12.5231 22.448 12.031 22.9401 11.4261 22.9401Z" fill="#0E131E"/>
<path d="M11.4262 22.2323C11.6408 22.2323 11.8148 22.0583 11.8148 21.8437C11.8148 21.6291 11.6408 21.4551 11.4262 21.4551C11.2116 21.4551 11.0376 21.6291 11.0376 21.8437C11.0376 22.0583 11.2116 22.2323 11.4262 22.2323Z" fill="#0E131E"/>
<path d="M23.1594 19.8672C22.0699 19.8672 21.1836 20.7536 21.1836 21.8431C21.1836 22.9326 22.0699 23.819 23.1594 23.819C24.249 23.819 25.1354 22.9326 25.1354 21.8431C25.1353 20.7536 24.2489 19.8672 23.1594 19.8672ZM23.1594 22.9401C22.5546 22.9401 22.0626 22.448 22.0626 21.8431C22.0626 21.2382 22.5546 20.7462 23.1594 20.7462C23.7642 20.7462 24.2564 21.2383 24.2564 21.8431C24.2564 22.448 23.7643 22.9401 23.1594 22.9401Z" fill="#0E131E"/>
<path d="M23.1591 22.2323C23.3737 22.2323 23.5477 22.0583 23.5477 21.8437C23.5477 21.6291 23.3737 21.4551 23.1591 21.4551C22.9445 21.4551 22.7705 21.6291 22.7705 21.8437C22.7705 22.0583 22.9445 22.2323 23.1591 22.2323Z" fill="#0E131E"/>
<path d="M29.2527 18.7194C29.2527 11.5646 29.2608 11.8784 29.234 11.6099C29.0457 9.71218 27.439 8.22091 25.49 8.22044H24.2848V7.56706C24.2848 6.99682 23.8208 6.53287 23.2506 6.53287H21.7983C21.2281 6.53287 20.7642 6.99688 20.7642 7.56706V8.22044H19.549C18.9787 8.22044 18.5148 8.68438 18.5148 9.25456V17.4661H18.0517C18.0517 17.2463 18.0517 10.6135 18.0517 10.2937C18.0517 10.051 17.855 9.85427 17.6123 9.85427C17.3695 9.85427 17.1728 10.051 17.1728 10.2937V16.5559H14.7934V6.52285H17.0175C17.1032 6.52285 17.1728 6.59246 17.1728 6.67807V8.75229C17.1728 8.99505 17.3695 9.1918 17.6123 9.1918C17.855 9.1918 18.0517 8.99511 18.0517 8.75229V6.67807C18.0517 6.10783 17.5877 5.64389 17.0175 5.64389H14.7933V5.43072C14.7933 5.18797 14.5966 4.99121 14.3538 4.99121C14.111 4.99121 13.9143 5.18791 13.9143 5.43072V5.64389H11.2414V5.43072C11.2414 5.18797 11.0447 4.99121 10.802 4.99121C10.5593 4.99121 10.3625 5.18791 10.3625 5.43072V5.64389H7.68951V5.43072C7.68951 5.18797 7.49275 4.99121 7.24999 4.99121C7.0073 4.99121 6.81054 5.18791 6.81054 5.43072V5.64389H4.13731V5.43072C4.13731 5.18797 3.94055 4.99121 3.6978 4.99121C3.45505 4.99121 3.25835 5.18791 3.25835 5.43072V5.64389H1.03424C0.463946 5.64389 0 6.10783 0 6.67813C0 7.1477 0 20.6659 0 21.2488C0 21.819 0.463946 22.283 1.03424 22.283H1.69459C1.90928 23.8211 3.23257 25.0089 4.82884 25.0089C6.42511 25.0089 7.74839 23.8211 7.96314 22.283H8.29209C8.50672 23.8211 9.83006 25.0089 11.4263 25.0089C13.0226 25.0089 14.3459 23.8211 14.5606 22.283H17.0174C17.5877 22.283 18.0517 21.819 18.0517 21.2488V20.7691H18.5147V21.2488C18.5147 21.819 18.9787 22.283 19.549 22.283H20.025C20.2397 23.8211 21.5631 25.0089 23.1593 25.0089C24.7556 25.0089 26.0789 23.8211 26.2936 22.283H28.966C29.5362 22.283 30.0001 21.819 30.0001 21.2488V19.7123C30.0001 19.2416 29.6837 18.8441 29.2527 18.7194ZM11.2413 6.52285H13.9142V16.5559H11.2413V6.52285ZM7.68927 6.52285H10.3623V16.5559H7.68927V6.52285ZM0.878967 6.67813C0.878967 6.59252 0.948635 6.52285 1.03424 6.52285H3.25835V13.245C3.25835 13.4877 3.4551 13.6844 3.6978 13.6844C3.9405 13.6844 4.13731 13.4877 4.13731 13.245V6.52285H6.81037V16.5559H4.13731V14.749C4.13731 14.5062 3.94055 14.3095 3.6978 14.3095C3.45505 14.3095 3.25835 14.5062 3.25835 14.749V16.5559H0.878967V6.67813ZM0.878967 17.4348H17.1726C17.1726 17.8962 17.1726 18.2434 17.1726 18.678C16.9053 18.678 1.14451 18.678 0.878967 18.678V17.4348ZM1.69383 21.4041H1.03424C0.948635 21.4041 0.878967 21.3344 0.878967 21.2488V19.5571H2.64188C2.13469 20.0422 1.79268 20.6941 1.69383 21.4041ZM4.82884 24.13C3.56813 24.13 2.54239 23.1043 2.54239 21.8435C2.54239 20.5826 3.56807 19.5569 4.82884 19.5569C6.08966 19.5569 7.11535 20.5826 7.11535 21.8435C7.11535 23.1043 6.08954 24.13 4.82884 24.13ZM8.29127 21.4041H7.9639C7.86711 20.7106 7.53576 20.0544 7.0158 19.5571H9.23937C8.73125 20.0433 8.39099 20.6923 8.29127 21.4041ZM11.4262 24.13C10.1655 24.13 9.13976 23.1043 9.13976 21.8435C9.13976 20.5826 10.1655 19.5569 11.4262 19.5569C12.687 19.5569 13.7127 20.5826 13.7127 21.8435C13.7127 23.1043 12.687 24.13 11.4262 24.13ZM17.1726 20.177C17.1726 20.215 17.1726 20.2277 17.1726 20.2266C17.1726 20.3559 17.1726 20.6461 17.1726 21.2488C17.1726 21.3344 17.1029 21.4041 17.0174 21.4041H14.5613C14.4654 20.7179 14.1396 20.0607 13.6132 19.5571H17.1726C17.1726 19.9245 17.1726 20.101 17.1726 20.177ZM18.5147 19.8901H18.0516C18.0516 19.331 18.0516 18.9041 18.0516 18.345H18.5147C18.5147 18.9041 18.5147 19.3311 18.5147 19.8901ZM28.3412 11.5527C28.3912 11.8839 28.3737 11.7195 28.3737 16.1256H27.7697V11.5527H28.3412ZM21.6431 7.56706C21.6431 7.48145 21.7128 7.41184 21.7983 7.41184H23.2505C23.3361 7.41184 23.4058 7.48145 23.4058 7.56706V8.22044H21.6431V7.56706ZM19.5489 9.09946C20.2379 9.09946 24.8255 9.09946 25.4899 9.09946C26.6084 9.09975 27.5795 9.74059 28.0576 10.6738H27.3303C27.0875 10.6738 26.8908 10.8705 26.8908 11.1133V16.5651C26.8908 16.8078 27.0875 17.0045 27.3303 17.0045H28.3737V18.6781C28.1154 18.6781 19.9439 18.6781 19.3936 18.6781C19.3936 18.3299 19.3936 9.69518 19.3936 9.25456C19.3936 9.16907 19.4633 9.09946 19.5489 9.09946ZM20.0241 21.4041H19.5488C19.4632 21.4041 19.3936 21.3344 19.3936 21.2488C19.3936 20.6474 19.3936 20.3572 19.3936 20.2275C19.3936 20.1615 19.3936 20.1367 19.3936 20.1344C19.3936 20.0419 19.3936 19.8677 19.3936 19.5571H20.9722C20.4569 20.0505 20.1221 20.7023 20.0241 21.4041ZM23.1592 24.13C21.8984 24.13 20.8727 23.1043 20.8727 21.8435C20.8727 20.5826 21.8984 19.5569 23.1592 19.5569C24.42 19.5569 25.4458 20.5826 25.4458 21.8435C25.4458 23.1043 24.42 24.13 23.1592 24.13ZM29.1211 21.2488C29.1211 21.3344 29.0514 21.404 28.9659 21.404H26.2944C26.1968 20.7073 25.8635 20.0517 25.3462 19.557C25.7406 19.557 28.5919 19.557 28.9659 19.557C29.0515 19.557 29.1211 19.6266 29.1211 19.7122V21.2488Z" fill="#0E131E"/>
<path d="M22.7706 16.9355H21.4819C21.2392 16.9355 21.0425 17.1322 21.0425 17.375C21.0425 17.6178 21.2392 17.8145 21.4819 17.8145H22.7706C23.0134 17.8145 23.2102 17.6178 23.2102 17.375C23.2102 17.1322 23.0133 16.9355 22.7706 16.9355Z" fill="#0E131E"/>
<path d="M26.1408 10.6738H21.7489C21.2058 10.6738 20.7642 11.1156 20.7642 11.6585V14.5465C20.7642 14.7892 20.9609 14.9859 21.2036 14.9859H22.3208C24.3408 17.032 24.2518 17.0045 24.4975 17.0045H26.1407C26.3835 17.0045 26.5802 16.8078 26.5802 16.565V11.1132C26.5802 10.8706 26.3835 10.6738 26.1408 10.6738ZM25.7013 16.1257H24.6812C22.6613 14.0797 22.7503 14.1071 22.5046 14.1071H21.6431V11.6586C21.6431 11.6003 21.6906 11.5529 21.7489 11.5529H25.7013V16.1257Z" fill="#0E131E"/>
</g>
<defs>
<clipPath id="clip0_208_396">
<rect width="30" height="30" fill="white"/>
</clipPath>
</defs>
</svg>
